G04 #@! TF.FileFunction,Soldermask,Top*
%FSLAX46Y46*%
G04 Gerber Fmt 4.6, Leading zero omitted, Abs format (unit mm)*
G04 Created by KiCad (PCBNEW 4.0.6) date Fri Jun  2 23:15:54 2017*
%MOMM*%
%LPD*%
G01*
G04 APERTURE LIST*
%ADD10C,0.100000*%
%ADD11R,0.547320X0.747320*%
%ADD12R,0.747320X0.647320*%
%ADD13R,0.647320X0.747320*%
%ADD14R,1.447320X0.847320*%
%ADD15R,3.147320X0.597320*%
%ADD16R,0.947320X1.417320*%
%ADD17R,0.997320X0.447320*%
%ADD18R,0.447320X0.997320*%
%ADD19R,0.497320X0.447320*%
%ADD20R,1.647320X1.097320*%
%ADD21R,1.017320X0.382320*%
%ADD22R,0.797320X0.547320*%
%ADD23O,3.347320X1.447320*%
%ADD24R,2.647320X2.247320*%
%ADD25O,1.447320X2.547320*%
%ADD26O,2.547320X1.347320*%
%ADD27O,2.047320X1.347320*%
%ADD28O,3.047320X1.647320*%
%ADD29R,2.147320X2.047320*%
%ADD30C,1.747320*%
G04 APERTURE END LIST*
D10*
D11*
X117925000Y-104267000D03*
X117025000Y-104267000D03*
D12*
X120946000Y-97536000D03*
X119846000Y-97536000D03*
D13*
X174752000Y-103928000D03*
X174752000Y-102828000D03*
D14*
X176276000Y-102174000D03*
X176276000Y-104074000D03*
D11*
X118814000Y-97536000D03*
X117914000Y-97536000D03*
X120396000Y-102997000D03*
X119496000Y-102997000D03*
X120396000Y-104267000D03*
X119496000Y-104267000D03*
X117925000Y-102997000D03*
X117025000Y-102997000D03*
D15*
X166370000Y-101820000D03*
X166370000Y-101200000D03*
X166370000Y-100580000D03*
X166370000Y-99960000D03*
X166370000Y-99340000D03*
X166370000Y-98720000D03*
X166370000Y-98100000D03*
X166370000Y-97480000D03*
X166370000Y-96860000D03*
X166370000Y-96240000D03*
X166370000Y-95620000D03*
X166370000Y-95000000D03*
X166370000Y-94380000D03*
X166370000Y-93760000D03*
D16*
X119880000Y-92630000D03*
X118880000Y-92630000D03*
D17*
X117930000Y-94130000D03*
X117930000Y-94630000D03*
D18*
X118630000Y-95330000D03*
X119130000Y-95330000D03*
X119630000Y-95330000D03*
X120130000Y-95330000D03*
D17*
X120830000Y-94630000D03*
X120830000Y-94130000D03*
D19*
X117058000Y-88504000D03*
X117058000Y-89154000D03*
X117058000Y-89804000D03*
X118908000Y-89804000D03*
X118908000Y-89154000D03*
X118908000Y-88504000D03*
D20*
X117983000Y-88829000D03*
D21*
X118020500Y-89804000D03*
D22*
X118346000Y-99680000D03*
X118346000Y-100980000D03*
X118346000Y-100330000D03*
X120246000Y-100980000D03*
X120246000Y-99680000D03*
D13*
X121666000Y-103082000D03*
X121666000Y-104182000D03*
D23*
X112886000Y-92320000D03*
X112886000Y-100720000D03*
X106086000Y-100720000D03*
X106086000Y-92320000D03*
D24*
X109486000Y-92070000D03*
X109486000Y-100970000D03*
D25*
X178710000Y-97320000D03*
D26*
X181610000Y-90170000D03*
D27*
X181410000Y-102770000D03*
D28*
X188260000Y-89920000D03*
X188260000Y-103020000D03*
D29*
X123564000Y-92520000D03*
X123564000Y-96520000D03*
X123564000Y-100520000D03*
X138564000Y-92520000D03*
X138564000Y-96520000D03*
X138564000Y-100520000D03*
D30*
X134064000Y-93520000D03*
X128064000Y-99520000D03*
M02*
