G04 #@! TF.FileFunction,Soldermask,Bot*
%FSLAX46Y46*%
G04 Gerber Fmt 4.6, Leading zero omitted, Abs format (unit mm)*
G04 Created by KiCad (PCBNEW 4.0.6) date Fri Jun  2 23:15:54 2017*
%MOMM*%
%LPD*%
G01*
G04 APERTURE LIST*
%ADD10C,0.100000*%
%ADD11R,0.747320X0.547320*%
%ADD12R,0.647320X0.747320*%
%ADD13R,0.947320X0.897320*%
%ADD14R,0.747320X0.647320*%
%ADD15R,0.747320X0.597320*%
%ADD16R,0.747320X1.697320*%
%ADD17R,1.347320X1.947320*%
%ADD18R,0.947320X3.047320*%
%ADD19R,0.847320X0.597320*%
%ADD20R,0.547320X0.747320*%
%ADD21R,1.207320X0.797320*%
%ADD22R,1.006400X0.631400*%
%ADD23R,0.597320X0.847320*%
%ADD24R,3.547320X1.447320*%
%ADD25R,0.297320X0.647320*%
%ADD26R,0.447320X0.697320*%
%ADD27R,0.647320X0.297320*%
%ADD28R,0.697320X0.447320*%
%ADD29R,0.499320X0.447320*%
%ADD30R,0.447320X0.499320*%
%ADD31O,3.347320X1.447320*%
%ADD32O,1.447320X2.547320*%
%ADD33O,2.547320X1.347320*%
%ADD34O,2.047320X1.347320*%
%ADD35O,3.047320X1.647320*%
%ADD36C,1.747320*%
G04 APERTURE END LIST*
D10*
D11*
X120904000Y-101404000D03*
X120904000Y-102304000D03*
D12*
X176022000Y-99526000D03*
X176022000Y-100626000D03*
D13*
X176034000Y-93218000D03*
X177534000Y-93218000D03*
D14*
X176234000Y-94488000D03*
X177334000Y-94488000D03*
D12*
X170180000Y-98594000D03*
X170180000Y-97494000D03*
X168910000Y-98594000D03*
X168910000Y-97494000D03*
X167640000Y-98594000D03*
X167640000Y-97494000D03*
D14*
X147574000Y-96520000D03*
X146474000Y-96520000D03*
X147574000Y-95250000D03*
X146474000Y-95250000D03*
X146516000Y-103378000D03*
X147616000Y-103378000D03*
X146516000Y-104521000D03*
X147616000Y-104521000D03*
X165312000Y-97028000D03*
X166412000Y-97028000D03*
X165312000Y-98298000D03*
X166412000Y-98298000D03*
D12*
X164592000Y-102066000D03*
X164592000Y-103166000D03*
X164592000Y-99568000D03*
X164592000Y-100668000D03*
D14*
X165312000Y-93218000D03*
X166412000Y-93218000D03*
X165312000Y-94488000D03*
X166412000Y-94488000D03*
D12*
X156718000Y-97070000D03*
X156718000Y-95970000D03*
X155448000Y-97070000D03*
X155448000Y-95970000D03*
D14*
X162094000Y-94615000D03*
X160994000Y-94615000D03*
X158030000Y-94488000D03*
X156930000Y-94488000D03*
D15*
X173804000Y-96774000D03*
X171704000Y-96774000D03*
D16*
X159996000Y-102739000D03*
X158996000Y-102739000D03*
X157996000Y-102739000D03*
X156996000Y-102739000D03*
D17*
X161296000Y-100214000D03*
X155696000Y-100214000D03*
D18*
X173820000Y-100076000D03*
X171620000Y-100076000D03*
D19*
X120253000Y-97394000D03*
X120253000Y-98694000D03*
X118253000Y-98044000D03*
D11*
X125984000Y-94038000D03*
X125984000Y-94938000D03*
D20*
X118179000Y-94488000D03*
X117279000Y-94488000D03*
X122370000Y-98679000D03*
X121470000Y-98679000D03*
X121470000Y-97409000D03*
X122370000Y-97409000D03*
D11*
X176022000Y-91890000D03*
X176022000Y-90990000D03*
D20*
X169857000Y-91440000D03*
X170757000Y-91440000D03*
X174694000Y-90932000D03*
X173794000Y-90932000D03*
X171762000Y-90932000D03*
X172662000Y-90932000D03*
D11*
X142494000Y-103690000D03*
X142494000Y-104590000D03*
D20*
X149352000Y-103632000D03*
X150252000Y-103632000D03*
D11*
X153416000Y-99880000D03*
X153416000Y-100780000D03*
X152146000Y-99880000D03*
X152146000Y-100780000D03*
X152400000Y-95816000D03*
X152400000Y-96716000D03*
D20*
X165412000Y-95758000D03*
X166312000Y-95758000D03*
D21*
X171620000Y-94676000D03*
X171620000Y-93726000D03*
X171620000Y-92776000D03*
X173820000Y-92776000D03*
X173820000Y-94676000D03*
X173820000Y-93726000D03*
D22*
X159120000Y-97320000D03*
X159120000Y-96920000D03*
X159120000Y-96520000D03*
X159120000Y-96120000D03*
X159120000Y-95720000D03*
X160920000Y-95720000D03*
X160920000Y-96120000D03*
X160920000Y-96520000D03*
X160920000Y-96920000D03*
X160920000Y-97320000D03*
D12*
X122936000Y-94064000D03*
X122936000Y-92964000D03*
D23*
X150637000Y-94218000D03*
X149337000Y-94218000D03*
X149987000Y-92218000D03*
D11*
X133858000Y-96197000D03*
X133858000Y-97097000D03*
D20*
X148151000Y-93218000D03*
X147251000Y-93218000D03*
D24*
X139700000Y-96933000D03*
X139700000Y-88233000D03*
D25*
X149253000Y-101976000D03*
D26*
X148828000Y-101951000D03*
X148328000Y-101951000D03*
X147828000Y-101951000D03*
X147328000Y-101951000D03*
X146828000Y-101951000D03*
D25*
X146403000Y-101976000D03*
X146403000Y-98176000D03*
D26*
X146828000Y-98201000D03*
X147328000Y-98201000D03*
X147828000Y-98201000D03*
X148328000Y-98201000D03*
X148828000Y-98201000D03*
D25*
X149253000Y-98176000D03*
D27*
X145928000Y-101501000D03*
D28*
X145953000Y-101076000D03*
X145953000Y-100576000D03*
X145953000Y-100076000D03*
X145953000Y-99576000D03*
X145953000Y-99076000D03*
D29*
X145853800Y-98576000D03*
D27*
X149728000Y-98651000D03*
D28*
X149703000Y-99076000D03*
X149703000Y-99576000D03*
X149703000Y-100076000D03*
X149703000Y-100576000D03*
X149703000Y-101076000D03*
D27*
X149728000Y-101501000D03*
X145928000Y-98651000D03*
D10*
G36*
X146202400Y-98601900D02*
X146003600Y-98748900D01*
X146003600Y-98403100D01*
X146202400Y-98550100D01*
X146202400Y-98601900D01*
X146202400Y-98601900D01*
G37*
D30*
X146328000Y-98101800D03*
D10*
G36*
X146155100Y-98251600D02*
X146500900Y-98251600D01*
X146353900Y-98450400D01*
X146302100Y-98450400D01*
X146155100Y-98251600D01*
X146155100Y-98251600D01*
G37*
D30*
X149328000Y-98101800D03*
D29*
X149802200Y-98576000D03*
X149802200Y-101576000D03*
D30*
X146328000Y-102050200D03*
X149328000Y-102050200D03*
D29*
X145853800Y-101576000D03*
D10*
G36*
X146202400Y-101601900D02*
X146003600Y-101748900D01*
X146003600Y-101403100D01*
X146202400Y-101550100D01*
X146202400Y-101601900D01*
X146202400Y-101601900D01*
G37*
G36*
X149155100Y-98251600D02*
X149500900Y-98251600D01*
X149353900Y-98450400D01*
X149302100Y-98450400D01*
X149155100Y-98251600D01*
X149155100Y-98251600D01*
G37*
G36*
X146500900Y-101900400D02*
X146155100Y-101900400D01*
X146302100Y-101701600D01*
X146353900Y-101701600D01*
X146500900Y-101900400D01*
X146500900Y-101900400D01*
G37*
G36*
X149500900Y-101900400D02*
X149155100Y-101900400D01*
X149302100Y-101701600D01*
X149353900Y-101701600D01*
X149500900Y-101900400D01*
X149500900Y-101900400D01*
G37*
G36*
X149453600Y-98550100D02*
X149652400Y-98403100D01*
X149652400Y-98748900D01*
X149453600Y-98601900D01*
X149453600Y-98550100D01*
X149453600Y-98550100D01*
G37*
G36*
X149453600Y-101550100D02*
X149652400Y-101403100D01*
X149652400Y-101748900D01*
X149453600Y-101601900D01*
X149453600Y-101550100D01*
X149453600Y-101550100D01*
G37*
D19*
X116602000Y-103647000D03*
X116602000Y-102347000D03*
X118602000Y-102997000D03*
D31*
X112886000Y-92320000D03*
X112886000Y-100720000D03*
X106086000Y-100720000D03*
X106086000Y-92320000D03*
D32*
X178710000Y-97320000D03*
D33*
X181610000Y-90170000D03*
D34*
X181410000Y-102770000D03*
D35*
X188260000Y-89920000D03*
X188260000Y-103020000D03*
D36*
X134064000Y-93520000D03*
X128064000Y-99520000D03*
M02*
