M48
;DRILL file {KiCad 4.0.6} date Fri Jun  2 23:15:55 2017
;FORMAT={-:-/ absolute / inch / decimal}
FMAT,2
INCH,TZ
T1C0.012
T2C0.020
T3C0.028
T4C0.031
T5C0.039
T6C0.057
T7C0.063
%
G90
G05
M72
T1
X4.56Y-4.03
X4.605Y-3.65
X4.605Y-4.13
X4.62Y-3.95
X4.63Y-3.67
X4.64Y-3.75
X4.6427Y-4.025
X4.66Y-3.79
X4.7Y-3.79
X4.705Y-3.865
X4.705Y-4.03
X4.7314Y-3.999
X4.74Y-3.79
X4.76Y-3.665
X4.7946Y-3.7271
X4.8Y-3.7
X4.81Y-3.64
X4.885Y-4.02
X4.89Y-3.73
X4.92Y-3.64
X4.925Y-3.775
X4.99Y-3.7
X4.99Y-3.74
X4.9908Y-3.9158
X5.125Y-3.83
X5.135Y-3.8
X5.24Y-3.71
X5.3Y-3.925
X5.31Y-3.88
X5.33Y-3.905
X5.34Y-3.785
X5.39Y-3.935
X5.51Y-4.015
X5.52Y-3.885
X5.525Y-3.985
X5.555Y-3.865
X5.57Y-3.9888
X5.585Y-3.67
X5.5857Y-3.7257
X5.595Y-3.925
X5.605Y-3.705
X5.605Y-3.97
X5.63Y-3.885
X5.665Y-4.1
X5.6918Y-3.9568
X5.7072Y-3.8862
X5.71Y-3.915
X5.71Y-3.975
X5.7393Y-3.8126
X5.765Y-4.14
X5.81Y-3.72
X5.8599Y-4.0581
X5.89Y-3.83
X5.9102Y-3.6612
X5.94Y-3.81
X5.95Y-3.885
X5.95Y-3.95
X6.01Y-3.91
X6.015Y-3.985
X6.02Y-4.025
X6.03Y-3.77
X6.045Y-3.825
X6.075Y-3.92
X6.0861Y-3.9661
X6.09Y-3.82
X6.18Y-3.905
X6.195Y-3.8462
X6.205Y-3.895
X6.215Y-3.78
X6.215Y-3.81
X6.22Y-3.995
X6.365Y-3.875
X6.38Y-3.8
X6.4192Y-3.8908
X6.4473Y-4.0033
X6.4499Y-4.0402
X6.45Y-3.92
X6.45Y-3.95
X6.4531Y-3.7764
X6.465Y-3.83
X6.4699Y-3.7194
X6.47Y-3.69
X6.47Y-3.86
X6.4756Y-3.7444
X6.64Y-3.92
X6.64Y-3.945
X6.64Y-3.97
X6.665Y-3.6
X6.665Y-3.92
X6.665Y-3.945
X6.665Y-3.97
X6.69Y-3.92
X6.69Y-3.945
X6.69Y-3.97
X6.72Y-3.74
X6.85Y-4.05
X6.96Y-3.92
T2
X4.1766Y-3.6346
X4.1766Y-3.9654
X4.4443Y-3.6346
X4.4443Y-3.9654
T3
X7.1421Y-4.0461
X7.15Y-3.55
T4
X7.0358Y-3.8315
T5
X7.4118Y-3.5402
X7.4118Y-4.0559
T6
X5.0222Y-4.0185
X5.16Y-3.5815
X5.2978Y-4.0185
T7
X5.0419Y-3.9181
X5.2781Y-3.6819
T0
M30
