G04 #@! TF.FileFunction,Soldermask,Bot*
%FSLAX46Y46*%
G04 Gerber Fmt 4.6, Leading zero omitted, Abs format (unit mm)*
G04 Created by KiCad (PCBNEW 4.0.7) date Sun Oct 15 21:52:05 2017*
%MOMM*%
%LPD*%
G01*
G04 APERTURE LIST*
%ADD10C,0.100000*%
%ADD11R,0.947320X0.897320*%
%ADD12R,0.747320X0.647320*%
%ADD13R,0.647320X0.747320*%
%ADD14R,0.747320X0.597320*%
%ADD15R,0.747320X1.697320*%
%ADD16R,1.347320X1.947320*%
%ADD17R,0.947320X3.047320*%
%ADD18R,0.747320X0.547320*%
%ADD19R,0.547320X0.747320*%
%ADD20R,1.207320X0.797320*%
%ADD21R,1.006400X0.631400*%
%ADD22R,0.847320X0.597320*%
%ADD23R,3.547320X1.447320*%
%ADD24R,0.297320X0.647320*%
%ADD25R,0.447320X0.697320*%
%ADD26R,0.647320X0.297320*%
%ADD27R,0.697320X0.447320*%
%ADD28R,0.499320X0.447320*%
%ADD29R,0.447320X0.499320*%
%ADD30O,3.347320X1.447320*%
%ADD31O,1.447320X2.547320*%
%ADD32O,2.547320X1.347320*%
%ADD33O,2.047320X1.347320*%
%ADD34O,3.047320X1.647320*%
%ADD35R,0.847320X0.747320*%
%ADD36R,0.647320X1.047320*%
%ADD37R,0.797320X0.547320*%
%ADD38R,0.947320X1.047320*%
G04 APERTURE END LIST*
D10*
D11*
X176542000Y-92329000D03*
X178042000Y-92329000D03*
D12*
X176742000Y-93980000D03*
X177842000Y-93980000D03*
D13*
X171196000Y-98086000D03*
X171196000Y-96986000D03*
X169926000Y-98086000D03*
X169926000Y-96986000D03*
X168656000Y-98086000D03*
X168656000Y-96986000D03*
D12*
X154474000Y-97536000D03*
X153374000Y-97536000D03*
X154474000Y-96012000D03*
X153374000Y-96012000D03*
D13*
X154178000Y-104225000D03*
X154178000Y-105325000D03*
X152654000Y-104225000D03*
X152654000Y-105325000D03*
D12*
X165904000Y-99314000D03*
X164804000Y-99314000D03*
X165904000Y-100584000D03*
X164804000Y-100584000D03*
D13*
X162814000Y-101812000D03*
X162814000Y-102912000D03*
X162814000Y-99314000D03*
X162814000Y-100414000D03*
D12*
X165693000Y-92710000D03*
X166793000Y-92710000D03*
X165693000Y-93980000D03*
X166793000Y-93980000D03*
X159470000Y-99822000D03*
X160570000Y-99822000D03*
X159470000Y-98679000D03*
X160570000Y-98679000D03*
D13*
X162814000Y-96986000D03*
X162814000Y-98086000D03*
D12*
X158454000Y-94488000D03*
X159554000Y-94488000D03*
D14*
X174786000Y-96266000D03*
X172686000Y-96266000D03*
D15*
X159996000Y-91309000D03*
X158996000Y-91309000D03*
X157996000Y-91309000D03*
X156996000Y-91309000D03*
D16*
X161296000Y-88784000D03*
X155696000Y-88784000D03*
D17*
X174836000Y-99314000D03*
X172636000Y-99314000D03*
D18*
X138684000Y-94038000D03*
X138684000Y-94938000D03*
D19*
X130625000Y-91694000D03*
X129725000Y-91694000D03*
X137356000Y-97028000D03*
X136456000Y-97028000D03*
D18*
X134874000Y-98240000D03*
X134874000Y-97340000D03*
X176403000Y-90620000D03*
X176403000Y-89720000D03*
D19*
X175202000Y-90170000D03*
X174302000Y-90170000D03*
D18*
X142494000Y-103690000D03*
X142494000Y-104590000D03*
D19*
X157422000Y-105156000D03*
X156522000Y-105156000D03*
D18*
X158369000Y-103066000D03*
X158369000Y-102166000D03*
X159766000Y-103066000D03*
X159766000Y-102166000D03*
X155956000Y-94038000D03*
X155956000Y-94938000D03*
D19*
X165793000Y-95250000D03*
X166693000Y-95250000D03*
D20*
X172636000Y-93914000D03*
X172636000Y-92964000D03*
X172636000Y-92014000D03*
X174836000Y-92014000D03*
X174836000Y-93914000D03*
X174836000Y-92964000D03*
D21*
X159120000Y-97320000D03*
X159120000Y-96920000D03*
X159120000Y-96520000D03*
X159120000Y-96120000D03*
X159120000Y-95720000D03*
X160920000Y-95720000D03*
X160920000Y-96120000D03*
X160920000Y-96520000D03*
X160920000Y-96920000D03*
X160920000Y-97320000D03*
D13*
X135636000Y-94064000D03*
X135636000Y-92964000D03*
D22*
X146796000Y-99426000D03*
X146796000Y-100726000D03*
X144796000Y-100076000D03*
D18*
X142748000Y-100018000D03*
X142748000Y-99118000D03*
X148844000Y-99626000D03*
X148844000Y-100526000D03*
D23*
X147320000Y-97314000D03*
X147320000Y-88614000D03*
D24*
X156111000Y-102738000D03*
D25*
X155686000Y-102713000D03*
X155186000Y-102713000D03*
X154686000Y-102713000D03*
X154186000Y-102713000D03*
X153686000Y-102713000D03*
D24*
X153261000Y-102738000D03*
X153261000Y-98938000D03*
D25*
X153686000Y-98963000D03*
X154186000Y-98963000D03*
X154686000Y-98963000D03*
X155186000Y-98963000D03*
X155686000Y-98963000D03*
D24*
X156111000Y-98938000D03*
D26*
X152786000Y-102263000D03*
D27*
X152811000Y-101838000D03*
X152811000Y-101338000D03*
X152811000Y-100838000D03*
X152811000Y-100338000D03*
X152811000Y-99838000D03*
D28*
X152711800Y-99338000D03*
D26*
X156586000Y-99413000D03*
D27*
X156561000Y-99838000D03*
X156561000Y-100338000D03*
X156561000Y-100838000D03*
X156561000Y-101338000D03*
X156561000Y-101838000D03*
D26*
X156586000Y-102263000D03*
X152786000Y-99413000D03*
D10*
G36*
X153060400Y-99363900D02*
X152861600Y-99510900D01*
X152861600Y-99165100D01*
X153060400Y-99312100D01*
X153060400Y-99363900D01*
X153060400Y-99363900D01*
G37*
D29*
X153186000Y-98863800D03*
D10*
G36*
X153013100Y-99013600D02*
X153358900Y-99013600D01*
X153211900Y-99212400D01*
X153160100Y-99212400D01*
X153013100Y-99013600D01*
X153013100Y-99013600D01*
G37*
D29*
X156186000Y-98863800D03*
D28*
X156660200Y-99338000D03*
X156660200Y-102338000D03*
D29*
X153186000Y-102812200D03*
X156186000Y-102812200D03*
D28*
X152711800Y-102338000D03*
D10*
G36*
X153060400Y-102363900D02*
X152861600Y-102510900D01*
X152861600Y-102165100D01*
X153060400Y-102312100D01*
X153060400Y-102363900D01*
X153060400Y-102363900D01*
G37*
G36*
X156013100Y-99013600D02*
X156358900Y-99013600D01*
X156211900Y-99212400D01*
X156160100Y-99212400D01*
X156013100Y-99013600D01*
X156013100Y-99013600D01*
G37*
G36*
X153358900Y-102662400D02*
X153013100Y-102662400D01*
X153160100Y-102463600D01*
X153211900Y-102463600D01*
X153358900Y-102662400D01*
X153358900Y-102662400D01*
G37*
G36*
X156358900Y-102662400D02*
X156013100Y-102662400D01*
X156160100Y-102463600D01*
X156211900Y-102463600D01*
X156358900Y-102662400D01*
X156358900Y-102662400D01*
G37*
G36*
X156311600Y-99312100D02*
X156510400Y-99165100D01*
X156510400Y-99510900D01*
X156311600Y-99363900D01*
X156311600Y-99312100D01*
X156311600Y-99312100D01*
G37*
G36*
X156311600Y-102312100D02*
X156510400Y-102165100D01*
X156510400Y-102510900D01*
X156311600Y-102363900D01*
X156311600Y-102312100D01*
X156311600Y-102312100D01*
G37*
D22*
X129302000Y-103647000D03*
X129302000Y-102347000D03*
X131302000Y-102997000D03*
D30*
X125586000Y-92320000D03*
X125586000Y-100720000D03*
X118786000Y-100720000D03*
X118786000Y-92320000D03*
D31*
X178710000Y-97320000D03*
D32*
X181610000Y-90170000D03*
D33*
X181410000Y-102770000D03*
D34*
X188260000Y-89920000D03*
X188260000Y-103020000D03*
D35*
X167132000Y-96836000D03*
X167132000Y-98236000D03*
D36*
X172708000Y-102108000D03*
X171208000Y-102108000D03*
D37*
X177099000Y-103299500D03*
X177099000Y-104599500D03*
X175199000Y-103949500D03*
X177099000Y-103949500D03*
X175199000Y-104599500D03*
X175199000Y-103299500D03*
X138364000Y-98918000D03*
X138364000Y-100218000D03*
X136464000Y-99568000D03*
X138364000Y-99568000D03*
X136464000Y-100218000D03*
X136464000Y-98918000D03*
D18*
X173228000Y-104844000D03*
X173228000Y-103944000D03*
X171704000Y-103944000D03*
X171704000Y-104844000D03*
D19*
X136964000Y-102362000D03*
X137864000Y-102362000D03*
D18*
X134874000Y-99372000D03*
X134874000Y-100272000D03*
D37*
X131003000Y-98694000D03*
X131003000Y-97394000D03*
X132903000Y-98044000D03*
X131003000Y-98044000D03*
X132903000Y-97394000D03*
X132903000Y-98694000D03*
D38*
X167066000Y-104378000D03*
X165166000Y-104378000D03*
X166116000Y-102378000D03*
D18*
X169672000Y-104844000D03*
X169672000Y-103944000D03*
D19*
X127450000Y-103632000D03*
X126550000Y-103632000D03*
X127450000Y-104902000D03*
X126550000Y-104902000D03*
M02*
