G04 #@! TF.FileFunction,Profile,NP*
%FSLAX46Y46*%
G04 Gerber Fmt 4.6, Leading zero omitted, Abs format (unit mm)*
G04 Created by KiCad (PCBNEW 4.0.7) date Sun Oct 15 20:20:48 2017*
%MOMM*%
%LPD*%
G01*
G04 APERTURE LIST*
%ADD10C,0.100000*%
%ADD11C,0.150000*%
G04 APERTURE END LIST*
D10*
D11*
X187100000Y-103500000D02*
X187100000Y-102500000D01*
X189400000Y-103500000D02*
X187100000Y-103500000D01*
X189400000Y-102500000D02*
X189400000Y-103500000D01*
X187100000Y-102500000D02*
X189400000Y-102500000D01*
X187100000Y-90400000D02*
X187100000Y-89400000D01*
X189400000Y-90400000D02*
X187100000Y-90400000D01*
X189400000Y-89400000D02*
X189400000Y-90400000D01*
X187100000Y-89400000D02*
X189400000Y-89400000D01*
X180700000Y-103100000D02*
X180700000Y-102400000D01*
X182100000Y-103100000D02*
X180700000Y-103100000D01*
X182100000Y-102400000D02*
X182100000Y-103100000D01*
X180700000Y-102400000D02*
X182100000Y-102400000D01*
X180700000Y-90500000D02*
X180700000Y-89800000D01*
X182500000Y-90500000D02*
X180700000Y-90500000D01*
X182500000Y-89800000D02*
X182500000Y-90500000D01*
X180700000Y-89800000D02*
X182500000Y-89800000D01*
X178300000Y-98300000D02*
X178300000Y-96400000D01*
X179100000Y-98300000D02*
X178300000Y-98300000D01*
X179100000Y-96400000D02*
X179100000Y-98300000D01*
X178300000Y-96400000D02*
X179100000Y-96400000D01*
X117600000Y-101000000D02*
X117600000Y-100400000D01*
X120000000Y-101000000D02*
X117600000Y-101000000D01*
X120000000Y-100400000D02*
X120000000Y-101000000D01*
X117600000Y-100400000D02*
X120000000Y-100400000D01*
X124400000Y-101000000D02*
X124400000Y-100400000D01*
X126800000Y-101000000D02*
X124400000Y-101000000D01*
X126800000Y-100400000D02*
X126800000Y-101000000D01*
X124400000Y-100400000D02*
X126800000Y-100400000D01*
X124400000Y-92700000D02*
X124400000Y-92000000D01*
X126800000Y-92700000D02*
X124400000Y-92700000D01*
X126800000Y-92000000D02*
X126800000Y-92700000D01*
X124400000Y-92000000D02*
X126800000Y-92000000D01*
X117600000Y-92700000D02*
X117600000Y-92000000D01*
X120000000Y-92700000D02*
X117600000Y-92700000D01*
X120000000Y-92000000D02*
X120000000Y-92700000D01*
X117600000Y-92000000D02*
X120000000Y-92000000D01*
X134620000Y-86360000D02*
X127000000Y-86360000D01*
X134620000Y-88138000D02*
X134620000Y-86360000D01*
X139700000Y-88138000D02*
X134620000Y-88138000D01*
X139700000Y-86360000D02*
X139700000Y-88138000D01*
X134620000Y-106680000D02*
X127000000Y-106680000D01*
X134620000Y-104902000D02*
X134620000Y-106680000D01*
X139700000Y-104902000D02*
X134620000Y-104902000D01*
X139700000Y-106680000D02*
X139700000Y-104902000D01*
X127000000Y-86360000D02*
X116586000Y-90170000D01*
X127000000Y-106680000D02*
X116586000Y-102870000D01*
X116586000Y-90170000D02*
X116586000Y-93472000D01*
X116586000Y-99568000D02*
X116586000Y-102870000D01*
X191516000Y-106680000D02*
X139700000Y-106680000D01*
X191516000Y-101854000D02*
X191516000Y-106680000D01*
X180340000Y-101854000D02*
X191516000Y-101854000D01*
X180340000Y-91186000D02*
X180340000Y-101854000D01*
X191516000Y-91186000D02*
X180340000Y-91186000D01*
X191516000Y-86360000D02*
X191516000Y-91186000D01*
X139700000Y-86360000D02*
X191516000Y-86360000D01*
X129286000Y-93472000D02*
X116586000Y-93472000D01*
X129286000Y-99568000D02*
X129286000Y-93472000D01*
X116586000Y-99568000D02*
X129286000Y-99568000D01*
M02*
