G04 #@! TF.FileFunction,Legend,Bot*
%FSLAX46Y46*%
G04 Gerber Fmt 4.6, Leading zero omitted, Abs format (unit mm)*
G04 Created by KiCad (PCBNEW 4.0.6) date Fri Jun  2 23:15:54 2017*
%MOMM*%
%LPD*%
G01*
G04 APERTURE LIST*
%ADD10C,0.100000*%
%ADD11C,0.254000*%
%ADD12C,0.177800*%
%ADD13C,0.120000*%
%ADD14C,0.150000*%
%ADD15C,0.127000*%
G04 APERTURE END LIST*
D10*
D11*
X157086904Y-89220524D02*
X157086904Y-87950524D01*
X156361190Y-89220524D02*
X156905475Y-88494810D01*
X156361190Y-87950524D02*
X157086904Y-88676238D01*
X155333095Y-89160048D02*
X155454047Y-89220524D01*
X155695952Y-89220524D01*
X155816904Y-89160048D01*
X155877380Y-89039095D01*
X155877380Y-88555286D01*
X155816904Y-88434333D01*
X155695952Y-88373857D01*
X155454047Y-88373857D01*
X155333095Y-88434333D01*
X155272618Y-88555286D01*
X155272618Y-88676238D01*
X155877380Y-88797190D01*
X154849285Y-88373857D02*
X154546904Y-89220524D01*
X154244524Y-88373857D01*
X153760714Y-89220524D02*
X153760714Y-88373857D01*
X153760714Y-87950524D02*
X153821190Y-88011000D01*
X153760714Y-88071476D01*
X153700238Y-88011000D01*
X153760714Y-87950524D01*
X153760714Y-88071476D01*
X153155952Y-88373857D02*
X153155952Y-89220524D01*
X153155952Y-88494810D02*
X153095476Y-88434333D01*
X152974523Y-88373857D01*
X152793095Y-88373857D01*
X152672143Y-88434333D01*
X152611666Y-88555286D01*
X152611666Y-89220524D01*
X150313571Y-89099571D02*
X150374047Y-89160048D01*
X150555476Y-89220524D01*
X150676428Y-89220524D01*
X150857856Y-89160048D01*
X150978809Y-89039095D01*
X151039285Y-88918143D01*
X151099761Y-88676238D01*
X151099761Y-88494810D01*
X151039285Y-88252905D01*
X150978809Y-88131952D01*
X150857856Y-88011000D01*
X150676428Y-87950524D01*
X150555476Y-87950524D01*
X150374047Y-88011000D01*
X150313571Y-88071476D01*
X149224999Y-88373857D02*
X149224999Y-89220524D01*
X149769285Y-88373857D02*
X149769285Y-89039095D01*
X149708809Y-89160048D01*
X149587856Y-89220524D01*
X149406428Y-89220524D01*
X149285476Y-89160048D01*
X149224999Y-89099571D01*
X148741189Y-88373857D02*
X148075951Y-88373857D01*
X148741189Y-89220524D01*
X148075951Y-89220524D01*
X147592142Y-88373857D02*
X147592142Y-89220524D01*
X147592142Y-88494810D02*
X147531666Y-88434333D01*
X147410713Y-88373857D01*
X147229285Y-88373857D01*
X147108333Y-88434333D01*
X147047856Y-88555286D01*
X147047856Y-89220524D01*
X145959285Y-89160048D02*
X146080237Y-89220524D01*
X146322142Y-89220524D01*
X146443094Y-89160048D01*
X146503570Y-89039095D01*
X146503570Y-88555286D01*
X146443094Y-88434333D01*
X146322142Y-88373857D01*
X146080237Y-88373857D01*
X145959285Y-88434333D01*
X145898808Y-88555286D01*
X145898808Y-88676238D01*
X146503570Y-88797190D01*
X145354523Y-89220524D02*
X145354523Y-88373857D01*
X145354523Y-88615762D02*
X145294047Y-88494810D01*
X145233571Y-88434333D01*
X145112618Y-88373857D01*
X144991666Y-88373857D01*
D12*
X166406285Y-87640886D02*
X166369999Y-87604600D01*
X166297428Y-87568314D01*
X166115999Y-87568314D01*
X166043428Y-87604600D01*
X166007142Y-87640886D01*
X165970857Y-87713457D01*
X165970857Y-87786029D01*
X166007142Y-87894886D01*
X166442571Y-88330314D01*
X165970857Y-88330314D01*
X165499143Y-87568314D02*
X165426571Y-87568314D01*
X165354000Y-87604600D01*
X165317714Y-87640886D01*
X165281428Y-87713457D01*
X165245143Y-87858600D01*
X165245143Y-88040029D01*
X165281428Y-88185171D01*
X165317714Y-88257743D01*
X165354000Y-88294029D01*
X165426571Y-88330314D01*
X165499143Y-88330314D01*
X165571714Y-88294029D01*
X165608000Y-88257743D01*
X165644285Y-88185171D01*
X165680571Y-88040029D01*
X165680571Y-87858600D01*
X165644285Y-87713457D01*
X165608000Y-87640886D01*
X165571714Y-87604600D01*
X165499143Y-87568314D01*
X164519429Y-88330314D02*
X164954857Y-88330314D01*
X164737143Y-88330314D02*
X164737143Y-87568314D01*
X164809714Y-87677171D01*
X164882286Y-87749743D01*
X164954857Y-87786029D01*
X164265429Y-87568314D02*
X163757429Y-87568314D01*
X164084000Y-88330314D01*
X166097857Y-89651114D02*
X166351857Y-89288257D01*
X166533285Y-89651114D02*
X166533285Y-88889114D01*
X166243000Y-88889114D01*
X166170428Y-88925400D01*
X166134143Y-88961686D01*
X166097857Y-89034257D01*
X166097857Y-89143114D01*
X166134143Y-89215686D01*
X166170428Y-89251971D01*
X166243000Y-89288257D01*
X166533285Y-89288257D01*
X165481000Y-89614829D02*
X165553571Y-89651114D01*
X165698714Y-89651114D01*
X165771285Y-89614829D01*
X165807571Y-89542257D01*
X165807571Y-89251971D01*
X165771285Y-89179400D01*
X165698714Y-89143114D01*
X165553571Y-89143114D01*
X165481000Y-89179400D01*
X165444714Y-89251971D01*
X165444714Y-89324543D01*
X165807571Y-89397114D01*
X165190714Y-89143114D02*
X165009285Y-89651114D01*
X164827857Y-89143114D01*
X163993286Y-89433400D02*
X163630429Y-89433400D01*
X164065858Y-89651114D02*
X163811858Y-88889114D01*
X163557858Y-89651114D01*
D13*
X120374000Y-102104000D02*
X120374000Y-101604000D01*
X121434000Y-101604000D02*
X121434000Y-102104000D01*
X175552000Y-100326000D02*
X175552000Y-99826000D01*
X176492000Y-99826000D02*
X176492000Y-100326000D01*
X176434000Y-93818000D02*
X177134000Y-93818000D01*
X177134000Y-92618000D02*
X176434000Y-92618000D01*
X177034000Y-94958000D02*
X176534000Y-94958000D01*
X176534000Y-94018000D02*
X177034000Y-94018000D01*
X170650000Y-97794000D02*
X170650000Y-98294000D01*
X169710000Y-98294000D02*
X169710000Y-97794000D01*
X169380000Y-97794000D02*
X169380000Y-98294000D01*
X168440000Y-98294000D02*
X168440000Y-97794000D01*
X168110000Y-97794000D02*
X168110000Y-98294000D01*
X167170000Y-98294000D02*
X167170000Y-97794000D01*
X146774000Y-96050000D02*
X147274000Y-96050000D01*
X147274000Y-96990000D02*
X146774000Y-96990000D01*
X146774000Y-94780000D02*
X147274000Y-94780000D01*
X147274000Y-95720000D02*
X146774000Y-95720000D01*
X147316000Y-103848000D02*
X146816000Y-103848000D01*
X146816000Y-102908000D02*
X147316000Y-102908000D01*
X147316000Y-104991000D02*
X146816000Y-104991000D01*
X146816000Y-104051000D02*
X147316000Y-104051000D01*
X166112000Y-97498000D02*
X165612000Y-97498000D01*
X165612000Y-96558000D02*
X166112000Y-96558000D01*
X166112000Y-98768000D02*
X165612000Y-98768000D01*
X165612000Y-97828000D02*
X166112000Y-97828000D01*
X164122000Y-102866000D02*
X164122000Y-102366000D01*
X165062000Y-102366000D02*
X165062000Y-102866000D01*
X164122000Y-100368000D02*
X164122000Y-99868000D01*
X165062000Y-99868000D02*
X165062000Y-100368000D01*
X166112000Y-93688000D02*
X165612000Y-93688000D01*
X165612000Y-92748000D02*
X166112000Y-92748000D01*
X166112000Y-94958000D02*
X165612000Y-94958000D01*
X165612000Y-94018000D02*
X166112000Y-94018000D01*
X157188000Y-96270000D02*
X157188000Y-96770000D01*
X156248000Y-96770000D02*
X156248000Y-96270000D01*
X155918000Y-96270000D02*
X155918000Y-96770000D01*
X154978000Y-96770000D02*
X154978000Y-96270000D01*
X161294000Y-94145000D02*
X161794000Y-94145000D01*
X161794000Y-95085000D02*
X161294000Y-95085000D01*
X157230000Y-94018000D02*
X157730000Y-94018000D01*
X157730000Y-94958000D02*
X157230000Y-94958000D01*
X174254000Y-95924000D02*
X174254000Y-97624000D01*
X174254000Y-97624000D02*
X171704000Y-97624000D01*
X174254000Y-95924000D02*
X171704000Y-95924000D01*
D14*
X161496000Y-102414000D02*
X160496000Y-102414000D01*
X161496000Y-101314000D02*
X161496000Y-102414000D01*
X155496000Y-102414000D02*
X156496000Y-102414000D01*
X155496000Y-101314000D02*
X155496000Y-102414000D01*
X160496000Y-99514000D02*
X156496000Y-99514000D01*
X174220000Y-98476000D02*
X171220000Y-98476000D01*
X174220000Y-101676000D02*
X171220000Y-101676000D01*
D13*
X118523000Y-98544000D02*
X118523000Y-99204000D01*
X118523000Y-96884000D02*
X118523000Y-97544000D01*
X118523000Y-96884000D02*
X120553000Y-96884000D01*
X119933000Y-99204000D02*
X118523000Y-99204000D01*
X125454000Y-94738000D02*
X125454000Y-94238000D01*
X126514000Y-94238000D02*
X126514000Y-94738000D01*
X117479000Y-93958000D02*
X117979000Y-93958000D01*
X117979000Y-95018000D02*
X117479000Y-95018000D01*
X121670000Y-98149000D02*
X122170000Y-98149000D01*
X122170000Y-99209000D02*
X121670000Y-99209000D01*
X122170000Y-97939000D02*
X121670000Y-97939000D01*
X121670000Y-96879000D02*
X122170000Y-96879000D01*
X176552000Y-91190000D02*
X176552000Y-91690000D01*
X175492000Y-91690000D02*
X175492000Y-91190000D01*
X170557000Y-91970000D02*
X170057000Y-91970000D01*
X170057000Y-90910000D02*
X170557000Y-90910000D01*
X173994000Y-90402000D02*
X174494000Y-90402000D01*
X174494000Y-91462000D02*
X173994000Y-91462000D01*
X172462000Y-91462000D02*
X171962000Y-91462000D01*
X171962000Y-90402000D02*
X172462000Y-90402000D01*
X141964000Y-104390000D02*
X141964000Y-103890000D01*
X143024000Y-103890000D02*
X143024000Y-104390000D01*
X150052000Y-104162000D02*
X149552000Y-104162000D01*
X149552000Y-103102000D02*
X150052000Y-103102000D01*
X152886000Y-100580000D02*
X152886000Y-100080000D01*
X153946000Y-100080000D02*
X153946000Y-100580000D01*
X151616000Y-100580000D02*
X151616000Y-100080000D01*
X152676000Y-100080000D02*
X152676000Y-100580000D01*
X151870000Y-96516000D02*
X151870000Y-96016000D01*
X152930000Y-96016000D02*
X152930000Y-96516000D01*
X166112000Y-96288000D02*
X165612000Y-96288000D01*
X165612000Y-95228000D02*
X166112000Y-95228000D01*
X171820000Y-92116000D02*
X173620000Y-92116000D01*
X173620000Y-95336000D02*
X171170000Y-95336000D01*
D14*
X158820000Y-98020000D02*
G75*
G03X158820000Y-98020000I-100000J0D01*
G01*
X158920000Y-95320000D02*
X161120000Y-95320000D01*
X158920000Y-97720000D02*
X161120000Y-97720000D01*
D13*
X123406000Y-93264000D02*
X123406000Y-93764000D01*
X122466000Y-93764000D02*
X122466000Y-93264000D01*
X149487000Y-92488000D02*
X148827000Y-92488000D01*
X151147000Y-92488000D02*
X150487000Y-92488000D01*
X151147000Y-92488000D02*
X151147000Y-94518000D01*
X148827000Y-93898000D02*
X148827000Y-92488000D01*
X133328000Y-96897000D02*
X133328000Y-96397000D01*
X134388000Y-96397000D02*
X134388000Y-96897000D01*
X147451000Y-92688000D02*
X147951000Y-92688000D01*
X147951000Y-93748000D02*
X147451000Y-93748000D01*
D14*
X144200000Y-97083000D02*
X141600000Y-97083000D01*
X144200000Y-88083000D02*
X144200000Y-97083000D01*
X141600000Y-88083000D02*
X144200000Y-88083000D01*
X135200000Y-88083000D02*
X137800000Y-88083000D01*
X135200000Y-97083000D02*
X137800000Y-97083000D01*
X135200000Y-88083000D02*
X135200000Y-97083000D01*
X150369421Y-102576000D02*
G75*
G03X150369421Y-102576000I-141421J0D01*
G01*
X149928000Y-102176000D02*
X149628000Y-102176000D01*
X149928000Y-101876000D02*
X149928000Y-102176000D01*
X145728000Y-102176000D02*
X146028000Y-102176000D01*
X145728000Y-101876000D02*
X145728000Y-102176000D01*
X145728000Y-97976000D02*
X146028000Y-97976000D01*
X145728000Y-98276000D02*
X145728000Y-97976000D01*
X149928000Y-97976000D02*
X149628000Y-97976000D01*
X149928000Y-98276000D02*
X149928000Y-97976000D01*
D13*
X118332000Y-102497000D02*
X118332000Y-101837000D01*
X118332000Y-104157000D02*
X118332000Y-103497000D01*
X118332000Y-104157000D02*
X116302000Y-104157000D01*
X116922000Y-101837000D02*
X118332000Y-101837000D01*
D15*
X119780786Y-101748167D02*
X119811024Y-101717929D01*
X119841262Y-101627214D01*
X119841262Y-101566738D01*
X119811024Y-101476024D01*
X119750548Y-101415548D01*
X119690071Y-101385309D01*
X119569119Y-101355071D01*
X119478405Y-101355071D01*
X119357452Y-101385309D01*
X119296976Y-101415548D01*
X119236500Y-101476024D01*
X119206262Y-101566738D01*
X119206262Y-101627214D01*
X119236500Y-101717929D01*
X119266738Y-101748167D01*
X119841262Y-102352929D02*
X119841262Y-101990071D01*
X119841262Y-102171500D02*
X119206262Y-102171500D01*
X119296976Y-102111024D01*
X119357452Y-102050548D01*
X119387690Y-101990071D01*
X176248786Y-98319167D02*
X176279024Y-98288929D01*
X176309262Y-98198214D01*
X176309262Y-98137738D01*
X176279024Y-98047024D01*
X176218548Y-97986548D01*
X176158071Y-97956309D01*
X176037119Y-97926071D01*
X175946405Y-97926071D01*
X175825452Y-97956309D01*
X175764976Y-97986548D01*
X175704500Y-98047024D01*
X175674262Y-98137738D01*
X175674262Y-98198214D01*
X175704500Y-98288929D01*
X175734738Y-98319167D01*
X175885929Y-98863452D02*
X176309262Y-98863452D01*
X175644024Y-98712262D02*
X176097595Y-98561071D01*
X176097595Y-98954167D01*
X179048833Y-93444786D02*
X179079071Y-93475024D01*
X179169786Y-93505262D01*
X179230262Y-93505262D01*
X179320976Y-93475024D01*
X179381452Y-93414548D01*
X179411691Y-93354071D01*
X179441929Y-93233119D01*
X179441929Y-93142405D01*
X179411691Y-93021452D01*
X179381452Y-92960976D01*
X179320976Y-92900500D01*
X179230262Y-92870262D01*
X179169786Y-92870262D01*
X179079071Y-92900500D01*
X179048833Y-92930738D01*
X178474310Y-92870262D02*
X178776691Y-92870262D01*
X178806929Y-93172643D01*
X178776691Y-93142405D01*
X178716214Y-93112167D01*
X178565024Y-93112167D01*
X178504548Y-93142405D01*
X178474310Y-93172643D01*
X178444071Y-93233119D01*
X178444071Y-93384310D01*
X178474310Y-93444786D01*
X178504548Y-93475024D01*
X178565024Y-93505262D01*
X178716214Y-93505262D01*
X178776691Y-93475024D01*
X178806929Y-93444786D01*
X178667833Y-94714786D02*
X178698071Y-94745024D01*
X178788786Y-94775262D01*
X178849262Y-94775262D01*
X178939976Y-94745024D01*
X179000452Y-94684548D01*
X179030691Y-94624071D01*
X179060929Y-94503119D01*
X179060929Y-94412405D01*
X179030691Y-94291452D01*
X179000452Y-94230976D01*
X178939976Y-94170500D01*
X178849262Y-94140262D01*
X178788786Y-94140262D01*
X178698071Y-94170500D01*
X178667833Y-94200738D01*
X178123548Y-94140262D02*
X178244500Y-94140262D01*
X178304976Y-94170500D01*
X178335214Y-94200738D01*
X178395691Y-94291452D01*
X178425929Y-94412405D01*
X178425929Y-94654310D01*
X178395691Y-94714786D01*
X178365452Y-94745024D01*
X178304976Y-94775262D01*
X178184024Y-94775262D01*
X178123548Y-94745024D01*
X178093310Y-94714786D01*
X178063071Y-94654310D01*
X178063071Y-94503119D01*
X178093310Y-94442643D01*
X178123548Y-94412405D01*
X178184024Y-94382167D01*
X178304976Y-94382167D01*
X178365452Y-94412405D01*
X178395691Y-94442643D01*
X178425929Y-94503119D01*
X170406786Y-96287167D02*
X170437024Y-96256929D01*
X170467262Y-96166214D01*
X170467262Y-96105738D01*
X170437024Y-96015024D01*
X170376548Y-95954548D01*
X170316071Y-95924309D01*
X170195119Y-95894071D01*
X170104405Y-95894071D01*
X169983452Y-95924309D01*
X169922976Y-95954548D01*
X169862500Y-96015024D01*
X169832262Y-96105738D01*
X169832262Y-96166214D01*
X169862500Y-96256929D01*
X169892738Y-96287167D01*
X169832262Y-96498833D02*
X169832262Y-96922167D01*
X170467262Y-96650024D01*
X169136786Y-96287167D02*
X169167024Y-96256929D01*
X169197262Y-96166214D01*
X169197262Y-96105738D01*
X169167024Y-96015024D01*
X169106548Y-95954548D01*
X169046071Y-95924309D01*
X168925119Y-95894071D01*
X168834405Y-95894071D01*
X168713452Y-95924309D01*
X168652976Y-95954548D01*
X168592500Y-96015024D01*
X168562262Y-96105738D01*
X168562262Y-96166214D01*
X168592500Y-96256929D01*
X168622738Y-96287167D01*
X168834405Y-96650024D02*
X168804167Y-96589548D01*
X168773929Y-96559309D01*
X168713452Y-96529071D01*
X168683214Y-96529071D01*
X168622738Y-96559309D01*
X168592500Y-96589548D01*
X168562262Y-96650024D01*
X168562262Y-96770976D01*
X168592500Y-96831452D01*
X168622738Y-96861690D01*
X168683214Y-96891929D01*
X168713452Y-96891929D01*
X168773929Y-96861690D01*
X168804167Y-96831452D01*
X168834405Y-96770976D01*
X168834405Y-96650024D01*
X168864643Y-96589548D01*
X168894881Y-96559309D01*
X168955357Y-96529071D01*
X169076310Y-96529071D01*
X169136786Y-96559309D01*
X169167024Y-96589548D01*
X169197262Y-96650024D01*
X169197262Y-96770976D01*
X169167024Y-96831452D01*
X169136786Y-96861690D01*
X169076310Y-96891929D01*
X168955357Y-96891929D01*
X168894881Y-96861690D01*
X168864643Y-96831452D01*
X168834405Y-96770976D01*
X167866786Y-96287167D02*
X167897024Y-96256929D01*
X167927262Y-96166214D01*
X167927262Y-96105738D01*
X167897024Y-96015024D01*
X167836548Y-95954548D01*
X167776071Y-95924309D01*
X167655119Y-95894071D01*
X167564405Y-95894071D01*
X167443452Y-95924309D01*
X167382976Y-95954548D01*
X167322500Y-96015024D01*
X167292262Y-96105738D01*
X167292262Y-96166214D01*
X167322500Y-96256929D01*
X167352738Y-96287167D01*
X167927262Y-96589548D02*
X167927262Y-96710500D01*
X167897024Y-96770976D01*
X167866786Y-96801214D01*
X167776071Y-96861690D01*
X167655119Y-96891929D01*
X167413214Y-96891929D01*
X167352738Y-96861690D01*
X167322500Y-96831452D01*
X167292262Y-96770976D01*
X167292262Y-96650024D01*
X167322500Y-96589548D01*
X167352738Y-96559309D01*
X167413214Y-96529071D01*
X167564405Y-96529071D01*
X167624881Y-96559309D01*
X167655119Y-96589548D01*
X167685357Y-96650024D01*
X167685357Y-96770976D01*
X167655119Y-96831452D01*
X167624881Y-96861690D01*
X167564405Y-96891929D01*
X149506214Y-96746786D02*
X149536452Y-96777024D01*
X149627167Y-96807262D01*
X149687643Y-96807262D01*
X149778357Y-96777024D01*
X149838833Y-96716548D01*
X149869072Y-96656071D01*
X149899310Y-96535119D01*
X149899310Y-96444405D01*
X149869072Y-96323452D01*
X149838833Y-96262976D01*
X149778357Y-96202500D01*
X149687643Y-96172262D01*
X149627167Y-96172262D01*
X149536452Y-96202500D01*
X149506214Y-96232738D01*
X148901452Y-96807262D02*
X149264310Y-96807262D01*
X149082881Y-96807262D02*
X149082881Y-96172262D01*
X149143357Y-96262976D01*
X149203833Y-96323452D01*
X149264310Y-96353690D01*
X148296690Y-96807262D02*
X148659548Y-96807262D01*
X148478119Y-96807262D02*
X148478119Y-96172262D01*
X148538595Y-96262976D01*
X148599071Y-96323452D01*
X148659548Y-96353690D01*
X149506214Y-95476786D02*
X149536452Y-95507024D01*
X149627167Y-95537262D01*
X149687643Y-95537262D01*
X149778357Y-95507024D01*
X149838833Y-95446548D01*
X149869072Y-95386071D01*
X149899310Y-95265119D01*
X149899310Y-95174405D01*
X149869072Y-95053452D01*
X149838833Y-94992976D01*
X149778357Y-94932500D01*
X149687643Y-94902262D01*
X149627167Y-94902262D01*
X149536452Y-94932500D01*
X149506214Y-94962738D01*
X148901452Y-95537262D02*
X149264310Y-95537262D01*
X149082881Y-95537262D02*
X149082881Y-94902262D01*
X149143357Y-94992976D01*
X149203833Y-95053452D01*
X149264310Y-95083690D01*
X148659548Y-94962738D02*
X148629310Y-94932500D01*
X148568833Y-94902262D01*
X148417643Y-94902262D01*
X148357167Y-94932500D01*
X148326929Y-94962738D01*
X148296690Y-95023214D01*
X148296690Y-95083690D01*
X148326929Y-95174405D01*
X148689786Y-95537262D01*
X148296690Y-95537262D01*
X145442214Y-103604786D02*
X145472452Y-103635024D01*
X145563167Y-103665262D01*
X145623643Y-103665262D01*
X145714357Y-103635024D01*
X145774833Y-103574548D01*
X145805072Y-103514071D01*
X145835310Y-103393119D01*
X145835310Y-103302405D01*
X145805072Y-103181452D01*
X145774833Y-103120976D01*
X145714357Y-103060500D01*
X145623643Y-103030262D01*
X145563167Y-103030262D01*
X145472452Y-103060500D01*
X145442214Y-103090738D01*
X144837452Y-103665262D02*
X145200310Y-103665262D01*
X145018881Y-103665262D02*
X145018881Y-103030262D01*
X145079357Y-103120976D01*
X145139833Y-103181452D01*
X145200310Y-103211690D01*
X144625786Y-103030262D02*
X144232690Y-103030262D01*
X144444357Y-103272167D01*
X144353643Y-103272167D01*
X144293167Y-103302405D01*
X144262929Y-103332643D01*
X144232690Y-103393119D01*
X144232690Y-103544310D01*
X144262929Y-103604786D01*
X144293167Y-103635024D01*
X144353643Y-103665262D01*
X144535071Y-103665262D01*
X144595548Y-103635024D01*
X144625786Y-103604786D01*
X145442214Y-104874786D02*
X145472452Y-104905024D01*
X145563167Y-104935262D01*
X145623643Y-104935262D01*
X145714357Y-104905024D01*
X145774833Y-104844548D01*
X145805072Y-104784071D01*
X145835310Y-104663119D01*
X145835310Y-104572405D01*
X145805072Y-104451452D01*
X145774833Y-104390976D01*
X145714357Y-104330500D01*
X145623643Y-104300262D01*
X145563167Y-104300262D01*
X145472452Y-104330500D01*
X145442214Y-104360738D01*
X144837452Y-104935262D02*
X145200310Y-104935262D01*
X145018881Y-104935262D02*
X145018881Y-104300262D01*
X145079357Y-104390976D01*
X145139833Y-104451452D01*
X145200310Y-104481690D01*
X144293167Y-104511929D02*
X144293167Y-104935262D01*
X144444357Y-104270024D02*
X144595548Y-104723595D01*
X144202452Y-104723595D01*
X168302214Y-94714786D02*
X168332452Y-94745024D01*
X168423167Y-94775262D01*
X168483643Y-94775262D01*
X168574357Y-94745024D01*
X168634833Y-94684548D01*
X168665072Y-94624071D01*
X168695310Y-94503119D01*
X168695310Y-94412405D01*
X168665072Y-94291452D01*
X168634833Y-94230976D01*
X168574357Y-94170500D01*
X168483643Y-94140262D01*
X168423167Y-94140262D01*
X168332452Y-94170500D01*
X168302214Y-94200738D01*
X167697452Y-94775262D02*
X168060310Y-94775262D01*
X167878881Y-94775262D02*
X167878881Y-94140262D01*
X167939357Y-94230976D01*
X167999833Y-94291452D01*
X168060310Y-94321690D01*
X167122929Y-94140262D02*
X167425310Y-94140262D01*
X167455548Y-94442643D01*
X167425310Y-94412405D01*
X167364833Y-94382167D01*
X167213643Y-94382167D01*
X167153167Y-94412405D01*
X167122929Y-94442643D01*
X167092690Y-94503119D01*
X167092690Y-94654310D01*
X167122929Y-94714786D01*
X167153167Y-94745024D01*
X167213643Y-94775262D01*
X167364833Y-94775262D01*
X167425310Y-94745024D01*
X167455548Y-94714786D01*
X168302214Y-95603786D02*
X168332452Y-95634024D01*
X168423167Y-95664262D01*
X168483643Y-95664262D01*
X168574357Y-95634024D01*
X168634833Y-95573548D01*
X168665072Y-95513071D01*
X168695310Y-95392119D01*
X168695310Y-95301405D01*
X168665072Y-95180452D01*
X168634833Y-95119976D01*
X168574357Y-95059500D01*
X168483643Y-95029262D01*
X168423167Y-95029262D01*
X168332452Y-95059500D01*
X168302214Y-95089738D01*
X167697452Y-95664262D02*
X168060310Y-95664262D01*
X167878881Y-95664262D02*
X167878881Y-95029262D01*
X167939357Y-95119976D01*
X167999833Y-95180452D01*
X168060310Y-95210690D01*
X167153167Y-95029262D02*
X167274119Y-95029262D01*
X167334595Y-95059500D01*
X167364833Y-95089738D01*
X167425310Y-95180452D01*
X167455548Y-95301405D01*
X167455548Y-95543310D01*
X167425310Y-95603786D01*
X167395071Y-95634024D01*
X167334595Y-95664262D01*
X167213643Y-95664262D01*
X167153167Y-95634024D01*
X167122929Y-95603786D01*
X167092690Y-95543310D01*
X167092690Y-95392119D01*
X167122929Y-95331643D01*
X167153167Y-95301405D01*
X167213643Y-95271167D01*
X167334595Y-95271167D01*
X167395071Y-95301405D01*
X167425310Y-95331643D01*
X167455548Y-95392119D01*
X163548786Y-102207786D02*
X163579024Y-102177548D01*
X163609262Y-102086833D01*
X163609262Y-102026357D01*
X163579024Y-101935643D01*
X163518548Y-101875167D01*
X163458071Y-101844928D01*
X163337119Y-101814690D01*
X163246405Y-101814690D01*
X163125452Y-101844928D01*
X163064976Y-101875167D01*
X163004500Y-101935643D01*
X162974262Y-102026357D01*
X162974262Y-102086833D01*
X163004500Y-102177548D01*
X163034738Y-102207786D01*
X163609262Y-102812548D02*
X163609262Y-102449690D01*
X163609262Y-102631119D02*
X162974262Y-102631119D01*
X163064976Y-102570643D01*
X163125452Y-102510167D01*
X163155690Y-102449690D01*
X162974262Y-103024214D02*
X162974262Y-103447548D01*
X163609262Y-103175405D01*
X163548786Y-99709786D02*
X163579024Y-99679548D01*
X163609262Y-99588833D01*
X163609262Y-99528357D01*
X163579024Y-99437643D01*
X163518548Y-99377167D01*
X163458071Y-99346928D01*
X163337119Y-99316690D01*
X163246405Y-99316690D01*
X163125452Y-99346928D01*
X163064976Y-99377167D01*
X163004500Y-99437643D01*
X162974262Y-99528357D01*
X162974262Y-99588833D01*
X163004500Y-99679548D01*
X163034738Y-99709786D01*
X163609262Y-100314548D02*
X163609262Y-99951690D01*
X163609262Y-100133119D02*
X162974262Y-100133119D01*
X163064976Y-100072643D01*
X163125452Y-100012167D01*
X163155690Y-99951690D01*
X163246405Y-100677405D02*
X163216167Y-100616929D01*
X163185929Y-100586690D01*
X163125452Y-100556452D01*
X163095214Y-100556452D01*
X163034738Y-100586690D01*
X163004500Y-100616929D01*
X162974262Y-100677405D01*
X162974262Y-100798357D01*
X163004500Y-100858833D01*
X163034738Y-100889071D01*
X163095214Y-100919310D01*
X163125452Y-100919310D01*
X163185929Y-100889071D01*
X163216167Y-100858833D01*
X163246405Y-100798357D01*
X163246405Y-100677405D01*
X163276643Y-100616929D01*
X163306881Y-100586690D01*
X163367357Y-100556452D01*
X163488310Y-100556452D01*
X163548786Y-100586690D01*
X163579024Y-100616929D01*
X163609262Y-100677405D01*
X163609262Y-100798357D01*
X163579024Y-100858833D01*
X163548786Y-100889071D01*
X163488310Y-100919310D01*
X163367357Y-100919310D01*
X163306881Y-100889071D01*
X163276643Y-100858833D01*
X163246405Y-100798357D01*
X168302214Y-92047786D02*
X168332452Y-92078024D01*
X168423167Y-92108262D01*
X168483643Y-92108262D01*
X168574357Y-92078024D01*
X168634833Y-92017548D01*
X168665072Y-91957071D01*
X168695310Y-91836119D01*
X168695310Y-91745405D01*
X168665072Y-91624452D01*
X168634833Y-91563976D01*
X168574357Y-91503500D01*
X168483643Y-91473262D01*
X168423167Y-91473262D01*
X168332452Y-91503500D01*
X168302214Y-91533738D01*
X167697452Y-92108262D02*
X168060310Y-92108262D01*
X167878881Y-92108262D02*
X167878881Y-91473262D01*
X167939357Y-91563976D01*
X167999833Y-91624452D01*
X168060310Y-91654690D01*
X167395071Y-92108262D02*
X167274119Y-92108262D01*
X167213643Y-92078024D01*
X167183405Y-92047786D01*
X167122929Y-91957071D01*
X167092690Y-91836119D01*
X167092690Y-91594214D01*
X167122929Y-91533738D01*
X167153167Y-91503500D01*
X167213643Y-91473262D01*
X167334595Y-91473262D01*
X167395071Y-91503500D01*
X167425310Y-91533738D01*
X167455548Y-91594214D01*
X167455548Y-91745405D01*
X167425310Y-91805881D01*
X167395071Y-91836119D01*
X167334595Y-91866357D01*
X167213643Y-91866357D01*
X167153167Y-91836119D01*
X167122929Y-91805881D01*
X167092690Y-91745405D01*
X168302214Y-92936786D02*
X168332452Y-92967024D01*
X168423167Y-92997262D01*
X168483643Y-92997262D01*
X168574357Y-92967024D01*
X168634833Y-92906548D01*
X168665072Y-92846071D01*
X168695310Y-92725119D01*
X168695310Y-92634405D01*
X168665072Y-92513452D01*
X168634833Y-92452976D01*
X168574357Y-92392500D01*
X168483643Y-92362262D01*
X168423167Y-92362262D01*
X168332452Y-92392500D01*
X168302214Y-92422738D01*
X168060310Y-92422738D02*
X168030072Y-92392500D01*
X167969595Y-92362262D01*
X167818405Y-92362262D01*
X167757929Y-92392500D01*
X167727691Y-92422738D01*
X167697452Y-92483214D01*
X167697452Y-92543690D01*
X167727691Y-92634405D01*
X168090548Y-92997262D01*
X167697452Y-92997262D01*
X167304357Y-92362262D02*
X167243881Y-92362262D01*
X167183405Y-92392500D01*
X167153167Y-92422738D01*
X167122929Y-92483214D01*
X167092690Y-92604167D01*
X167092690Y-92755357D01*
X167122929Y-92876310D01*
X167153167Y-92936786D01*
X167183405Y-92967024D01*
X167243881Y-92997262D01*
X167304357Y-92997262D01*
X167364833Y-92967024D01*
X167395071Y-92936786D01*
X167425310Y-92876310D01*
X167455548Y-92755357D01*
X167455548Y-92604167D01*
X167425310Y-92483214D01*
X167395071Y-92422738D01*
X167364833Y-92392500D01*
X167304357Y-92362262D01*
X156563786Y-98016786D02*
X156594024Y-97986548D01*
X156624262Y-97895833D01*
X156624262Y-97835357D01*
X156594024Y-97744643D01*
X156533548Y-97684167D01*
X156473071Y-97653928D01*
X156352119Y-97623690D01*
X156261405Y-97623690D01*
X156140452Y-97653928D01*
X156079976Y-97684167D01*
X156019500Y-97744643D01*
X155989262Y-97835357D01*
X155989262Y-97895833D01*
X156019500Y-97986548D01*
X156049738Y-98016786D01*
X156049738Y-98258690D02*
X156019500Y-98288928D01*
X155989262Y-98349405D01*
X155989262Y-98500595D01*
X156019500Y-98561071D01*
X156049738Y-98591309D01*
X156110214Y-98621548D01*
X156170690Y-98621548D01*
X156261405Y-98591309D01*
X156624262Y-98228452D01*
X156624262Y-98621548D01*
X156624262Y-99226310D02*
X156624262Y-98863452D01*
X156624262Y-99044881D02*
X155989262Y-99044881D01*
X156079976Y-98984405D01*
X156140452Y-98923929D01*
X156170690Y-98863452D01*
X154658786Y-95349786D02*
X154689024Y-95319548D01*
X154719262Y-95228833D01*
X154719262Y-95168357D01*
X154689024Y-95077643D01*
X154628548Y-95017167D01*
X154568071Y-94986928D01*
X154447119Y-94956690D01*
X154356405Y-94956690D01*
X154235452Y-94986928D01*
X154174976Y-95017167D01*
X154114500Y-95077643D01*
X154084262Y-95168357D01*
X154084262Y-95228833D01*
X154114500Y-95319548D01*
X154144738Y-95349786D01*
X154144738Y-95591690D02*
X154114500Y-95621928D01*
X154084262Y-95682405D01*
X154084262Y-95833595D01*
X154114500Y-95894071D01*
X154144738Y-95924309D01*
X154205214Y-95954548D01*
X154265690Y-95954548D01*
X154356405Y-95924309D01*
X154719262Y-95561452D01*
X154719262Y-95954548D01*
X154144738Y-96196452D02*
X154114500Y-96226690D01*
X154084262Y-96287167D01*
X154084262Y-96438357D01*
X154114500Y-96498833D01*
X154144738Y-96529071D01*
X154205214Y-96559310D01*
X154265690Y-96559310D01*
X154356405Y-96529071D01*
X154719262Y-96166214D01*
X154719262Y-96559310D01*
X161952214Y-93825786D02*
X161982452Y-93856024D01*
X162073167Y-93886262D01*
X162133643Y-93886262D01*
X162224357Y-93856024D01*
X162284833Y-93795548D01*
X162315072Y-93735071D01*
X162345310Y-93614119D01*
X162345310Y-93523405D01*
X162315072Y-93402452D01*
X162284833Y-93341976D01*
X162224357Y-93281500D01*
X162133643Y-93251262D01*
X162073167Y-93251262D01*
X161982452Y-93281500D01*
X161952214Y-93311738D01*
X161710310Y-93311738D02*
X161680072Y-93281500D01*
X161619595Y-93251262D01*
X161468405Y-93251262D01*
X161407929Y-93281500D01*
X161377691Y-93311738D01*
X161347452Y-93372214D01*
X161347452Y-93432690D01*
X161377691Y-93523405D01*
X161740548Y-93886262D01*
X161347452Y-93886262D01*
X161135786Y-93251262D02*
X160742690Y-93251262D01*
X160954357Y-93493167D01*
X160863643Y-93493167D01*
X160803167Y-93523405D01*
X160772929Y-93553643D01*
X160742690Y-93614119D01*
X160742690Y-93765310D01*
X160772929Y-93825786D01*
X160803167Y-93856024D01*
X160863643Y-93886262D01*
X161045071Y-93886262D01*
X161105548Y-93856024D01*
X161135786Y-93825786D01*
X157888214Y-93698786D02*
X157918452Y-93729024D01*
X158009167Y-93759262D01*
X158069643Y-93759262D01*
X158160357Y-93729024D01*
X158220833Y-93668548D01*
X158251072Y-93608071D01*
X158281310Y-93487119D01*
X158281310Y-93396405D01*
X158251072Y-93275452D01*
X158220833Y-93214976D01*
X158160357Y-93154500D01*
X158069643Y-93124262D01*
X158009167Y-93124262D01*
X157918452Y-93154500D01*
X157888214Y-93184738D01*
X157646310Y-93184738D02*
X157616072Y-93154500D01*
X157555595Y-93124262D01*
X157404405Y-93124262D01*
X157343929Y-93154500D01*
X157313691Y-93184738D01*
X157283452Y-93245214D01*
X157283452Y-93305690D01*
X157313691Y-93396405D01*
X157676548Y-93759262D01*
X157283452Y-93759262D01*
X156739167Y-93335929D02*
X156739167Y-93759262D01*
X156890357Y-93094024D02*
X157041548Y-93547595D01*
X156648452Y-93547595D01*
X175474691Y-97061262D02*
X175474691Y-96426262D01*
X175323500Y-96426262D01*
X175232786Y-96456500D01*
X175172310Y-96516976D01*
X175142071Y-96577452D01*
X175111833Y-96698405D01*
X175111833Y-96789119D01*
X175142071Y-96910071D01*
X175172310Y-96970548D01*
X175232786Y-97031024D01*
X175323500Y-97061262D01*
X175474691Y-97061262D01*
X174507071Y-97061262D02*
X174869929Y-97061262D01*
X174688500Y-97061262D02*
X174688500Y-96426262D01*
X174748976Y-96516976D01*
X174809452Y-96577452D01*
X174869929Y-96607690D01*
X158707667Y-98585262D02*
X158707667Y-99038833D01*
X158737905Y-99129548D01*
X158798381Y-99190024D01*
X158889096Y-99220262D01*
X158949572Y-99220262D01*
X158465762Y-98585262D02*
X158072666Y-98585262D01*
X158284333Y-98827167D01*
X158193619Y-98827167D01*
X158133143Y-98857405D01*
X158102905Y-98887643D01*
X158072666Y-98948119D01*
X158072666Y-99099310D01*
X158102905Y-99159786D01*
X158133143Y-99190024D01*
X158193619Y-99220262D01*
X158375047Y-99220262D01*
X158435524Y-99190024D01*
X158465762Y-99159786D01*
X172825834Y-102649262D02*
X173128215Y-102649262D01*
X173128215Y-102014262D01*
X172281547Y-102649262D02*
X172644405Y-102649262D01*
X172462976Y-102649262D02*
X172462976Y-102014262D01*
X172523452Y-102104976D01*
X172583928Y-102165452D01*
X172644405Y-102195690D01*
X119363476Y-96441738D02*
X119423952Y-96411500D01*
X119484429Y-96351024D01*
X119575143Y-96260310D01*
X119635619Y-96230071D01*
X119696095Y-96230071D01*
X119665857Y-96381262D02*
X119726333Y-96351024D01*
X119786810Y-96290548D01*
X119817048Y-96169595D01*
X119817048Y-95957929D01*
X119786810Y-95836976D01*
X119726333Y-95776500D01*
X119665857Y-95746262D01*
X119544905Y-95746262D01*
X119484429Y-95776500D01*
X119423952Y-95836976D01*
X119393714Y-95957929D01*
X119393714Y-96169595D01*
X119423952Y-96290548D01*
X119484429Y-96351024D01*
X119544905Y-96381262D01*
X119665857Y-96381262D01*
X119151810Y-95806738D02*
X119121572Y-95776500D01*
X119061095Y-95746262D01*
X118909905Y-95746262D01*
X118849429Y-95776500D01*
X118819191Y-95806738D01*
X118788952Y-95867214D01*
X118788952Y-95927690D01*
X118819191Y-96018405D01*
X119182048Y-96381262D01*
X118788952Y-96381262D01*
X124921262Y-94382167D02*
X124618881Y-94170500D01*
X124921262Y-94019309D02*
X124286262Y-94019309D01*
X124286262Y-94261214D01*
X124316500Y-94321690D01*
X124346738Y-94351929D01*
X124407214Y-94382167D01*
X124497929Y-94382167D01*
X124558405Y-94351929D01*
X124588643Y-94321690D01*
X124618881Y-94261214D01*
X124618881Y-94019309D01*
X124921262Y-94986929D02*
X124921262Y-94624071D01*
X124921262Y-94805500D02*
X124286262Y-94805500D01*
X124376976Y-94745024D01*
X124437452Y-94684548D01*
X124467690Y-94624071D01*
X117834833Y-93425262D02*
X118046500Y-93122881D01*
X118197691Y-93425262D02*
X118197691Y-92790262D01*
X117955786Y-92790262D01*
X117895310Y-92820500D01*
X117865071Y-92850738D01*
X117834833Y-92911214D01*
X117834833Y-93001929D01*
X117865071Y-93062405D01*
X117895310Y-93092643D01*
X117955786Y-93122881D01*
X118197691Y-93122881D01*
X117592929Y-92850738D02*
X117562691Y-92820500D01*
X117502214Y-92790262D01*
X117351024Y-92790262D01*
X117290548Y-92820500D01*
X117260310Y-92850738D01*
X117230071Y-92911214D01*
X117230071Y-92971690D01*
X117260310Y-93062405D01*
X117623167Y-93425262D01*
X117230071Y-93425262D01*
X123422833Y-98966262D02*
X123634500Y-98663881D01*
X123785691Y-98966262D02*
X123785691Y-98331262D01*
X123543786Y-98331262D01*
X123483310Y-98361500D01*
X123453071Y-98391738D01*
X123422833Y-98452214D01*
X123422833Y-98542929D01*
X123453071Y-98603405D01*
X123483310Y-98633643D01*
X123543786Y-98663881D01*
X123785691Y-98663881D01*
X123211167Y-98331262D02*
X122818071Y-98331262D01*
X123029738Y-98573167D01*
X122939024Y-98573167D01*
X122878548Y-98603405D01*
X122848310Y-98633643D01*
X122818071Y-98694119D01*
X122818071Y-98845310D01*
X122848310Y-98905786D01*
X122878548Y-98936024D01*
X122939024Y-98966262D01*
X123120452Y-98966262D01*
X123180929Y-98936024D01*
X123211167Y-98905786D01*
X123422833Y-97696262D02*
X123634500Y-97393881D01*
X123785691Y-97696262D02*
X123785691Y-97061262D01*
X123543786Y-97061262D01*
X123483310Y-97091500D01*
X123453071Y-97121738D01*
X123422833Y-97182214D01*
X123422833Y-97272929D01*
X123453071Y-97333405D01*
X123483310Y-97363643D01*
X123543786Y-97393881D01*
X123785691Y-97393881D01*
X122878548Y-97272929D02*
X122878548Y-97696262D01*
X123029738Y-97031024D02*
X123180929Y-97484595D01*
X122787833Y-97484595D01*
X177325262Y-91334167D02*
X177022881Y-91122500D01*
X177325262Y-90971309D02*
X176690262Y-90971309D01*
X176690262Y-91213214D01*
X176720500Y-91273690D01*
X176750738Y-91303929D01*
X176811214Y-91334167D01*
X176901929Y-91334167D01*
X176962405Y-91303929D01*
X176992643Y-91273690D01*
X177022881Y-91213214D01*
X177022881Y-90971309D01*
X177325262Y-91636548D02*
X177325262Y-91757500D01*
X177295024Y-91817976D01*
X177264786Y-91848214D01*
X177174071Y-91908690D01*
X177053119Y-91938929D01*
X176811214Y-91938929D01*
X176750738Y-91908690D01*
X176720500Y-91878452D01*
X176690262Y-91817976D01*
X176690262Y-91697024D01*
X176720500Y-91636548D01*
X176750738Y-91606309D01*
X176811214Y-91576071D01*
X176962405Y-91576071D01*
X177022881Y-91606309D01*
X177053119Y-91636548D01*
X177083357Y-91697024D01*
X177083357Y-91817976D01*
X177053119Y-91878452D01*
X177022881Y-91908690D01*
X176962405Y-91938929D01*
X170715214Y-90584262D02*
X170926881Y-90281881D01*
X171078072Y-90584262D02*
X171078072Y-89949262D01*
X170836167Y-89949262D01*
X170775691Y-89979500D01*
X170745452Y-90009738D01*
X170715214Y-90070214D01*
X170715214Y-90160929D01*
X170745452Y-90221405D01*
X170775691Y-90251643D01*
X170836167Y-90281881D01*
X171078072Y-90281881D01*
X170110452Y-90584262D02*
X170473310Y-90584262D01*
X170291881Y-90584262D02*
X170291881Y-89949262D01*
X170352357Y-90039976D01*
X170412833Y-90100452D01*
X170473310Y-90130690D01*
X169717357Y-89949262D02*
X169656881Y-89949262D01*
X169596405Y-89979500D01*
X169566167Y-90009738D01*
X169535929Y-90070214D01*
X169505690Y-90191167D01*
X169505690Y-90342357D01*
X169535929Y-90463310D01*
X169566167Y-90523786D01*
X169596405Y-90554024D01*
X169656881Y-90584262D01*
X169717357Y-90584262D01*
X169777833Y-90554024D01*
X169808071Y-90523786D01*
X169838310Y-90463310D01*
X169868548Y-90342357D01*
X169868548Y-90191167D01*
X169838310Y-90070214D01*
X169808071Y-90009738D01*
X169777833Y-89979500D01*
X169717357Y-89949262D01*
X174652214Y-90203262D02*
X174863881Y-89900881D01*
X175015072Y-90203262D02*
X175015072Y-89568262D01*
X174773167Y-89568262D01*
X174712691Y-89598500D01*
X174682452Y-89628738D01*
X174652214Y-89689214D01*
X174652214Y-89779929D01*
X174682452Y-89840405D01*
X174712691Y-89870643D01*
X174773167Y-89900881D01*
X175015072Y-89900881D01*
X174047452Y-90203262D02*
X174410310Y-90203262D01*
X174228881Y-90203262D02*
X174228881Y-89568262D01*
X174289357Y-89658976D01*
X174349833Y-89719452D01*
X174410310Y-89749690D01*
X173442690Y-90203262D02*
X173805548Y-90203262D01*
X173624119Y-90203262D02*
X173624119Y-89568262D01*
X173684595Y-89658976D01*
X173745071Y-89719452D01*
X173805548Y-89749690D01*
X172620214Y-90076262D02*
X172831881Y-89773881D01*
X172983072Y-90076262D02*
X172983072Y-89441262D01*
X172741167Y-89441262D01*
X172680691Y-89471500D01*
X172650452Y-89501738D01*
X172620214Y-89562214D01*
X172620214Y-89652929D01*
X172650452Y-89713405D01*
X172680691Y-89743643D01*
X172741167Y-89773881D01*
X172983072Y-89773881D01*
X172015452Y-90076262D02*
X172378310Y-90076262D01*
X172196881Y-90076262D02*
X172196881Y-89441262D01*
X172257357Y-89531976D01*
X172317833Y-89592452D01*
X172378310Y-89622690D01*
X171773548Y-89501738D02*
X171743310Y-89471500D01*
X171682833Y-89441262D01*
X171531643Y-89441262D01*
X171471167Y-89471500D01*
X171440929Y-89501738D01*
X171410690Y-89562214D01*
X171410690Y-89622690D01*
X171440929Y-89713405D01*
X171803786Y-90076262D01*
X171410690Y-90076262D01*
X141431262Y-103731786D02*
X141128881Y-103520119D01*
X141431262Y-103368928D02*
X140796262Y-103368928D01*
X140796262Y-103610833D01*
X140826500Y-103671309D01*
X140856738Y-103701548D01*
X140917214Y-103731786D01*
X141007929Y-103731786D01*
X141068405Y-103701548D01*
X141098643Y-103671309D01*
X141128881Y-103610833D01*
X141128881Y-103368928D01*
X141431262Y-104336548D02*
X141431262Y-103973690D01*
X141431262Y-104155119D02*
X140796262Y-104155119D01*
X140886976Y-104094643D01*
X140947452Y-104034167D01*
X140977690Y-103973690D01*
X140796262Y-104548214D02*
X140796262Y-104941310D01*
X141038167Y-104729643D01*
X141038167Y-104820357D01*
X141068405Y-104880833D01*
X141098643Y-104911071D01*
X141159119Y-104941310D01*
X141310310Y-104941310D01*
X141370786Y-104911071D01*
X141401024Y-104880833D01*
X141431262Y-104820357D01*
X141431262Y-104638929D01*
X141401024Y-104578452D01*
X141370786Y-104548214D01*
X150210214Y-105062262D02*
X150421881Y-104759881D01*
X150573072Y-105062262D02*
X150573072Y-104427262D01*
X150331167Y-104427262D01*
X150270691Y-104457500D01*
X150240452Y-104487738D01*
X150210214Y-104548214D01*
X150210214Y-104638929D01*
X150240452Y-104699405D01*
X150270691Y-104729643D01*
X150331167Y-104759881D01*
X150573072Y-104759881D01*
X149605452Y-105062262D02*
X149968310Y-105062262D01*
X149786881Y-105062262D02*
X149786881Y-104427262D01*
X149847357Y-104517976D01*
X149907833Y-104578452D01*
X149968310Y-104608690D01*
X149061167Y-104638929D02*
X149061167Y-105062262D01*
X149212357Y-104397024D02*
X149363548Y-104850595D01*
X148970452Y-104850595D01*
X153703262Y-101699786D02*
X153400881Y-101488119D01*
X153703262Y-101336928D02*
X153068262Y-101336928D01*
X153068262Y-101578833D01*
X153098500Y-101639309D01*
X153128738Y-101669548D01*
X153189214Y-101699786D01*
X153279929Y-101699786D01*
X153340405Y-101669548D01*
X153370643Y-101639309D01*
X153400881Y-101578833D01*
X153400881Y-101336928D01*
X153703262Y-102304548D02*
X153703262Y-101941690D01*
X153703262Y-102123119D02*
X153068262Y-102123119D01*
X153158976Y-102062643D01*
X153219452Y-102002167D01*
X153249690Y-101941690D01*
X153068262Y-102879071D02*
X153068262Y-102576690D01*
X153370643Y-102546452D01*
X153340405Y-102576690D01*
X153310167Y-102637167D01*
X153310167Y-102788357D01*
X153340405Y-102848833D01*
X153370643Y-102879071D01*
X153431119Y-102909310D01*
X153582310Y-102909310D01*
X153642786Y-102879071D01*
X153673024Y-102848833D01*
X153703262Y-102788357D01*
X153703262Y-102637167D01*
X153673024Y-102576690D01*
X153642786Y-102546452D01*
X152433262Y-101699786D02*
X152130881Y-101488119D01*
X152433262Y-101336928D02*
X151798262Y-101336928D01*
X151798262Y-101578833D01*
X151828500Y-101639309D01*
X151858738Y-101669548D01*
X151919214Y-101699786D01*
X152009929Y-101699786D01*
X152070405Y-101669548D01*
X152100643Y-101639309D01*
X152130881Y-101578833D01*
X152130881Y-101336928D01*
X152433262Y-102304548D02*
X152433262Y-101941690D01*
X152433262Y-102123119D02*
X151798262Y-102123119D01*
X151888976Y-102062643D01*
X151949452Y-102002167D01*
X151979690Y-101941690D01*
X151798262Y-102848833D02*
X151798262Y-102727881D01*
X151828500Y-102667405D01*
X151858738Y-102637167D01*
X151949452Y-102576690D01*
X152070405Y-102546452D01*
X152312310Y-102546452D01*
X152372786Y-102576690D01*
X152403024Y-102606929D01*
X152433262Y-102667405D01*
X152433262Y-102788357D01*
X152403024Y-102848833D01*
X152372786Y-102879071D01*
X152312310Y-102909310D01*
X152161119Y-102909310D01*
X152100643Y-102879071D01*
X152070405Y-102848833D01*
X152040167Y-102788357D01*
X152040167Y-102667405D01*
X152070405Y-102606929D01*
X152100643Y-102576690D01*
X152161119Y-102546452D01*
X151544262Y-95857786D02*
X151241881Y-95646119D01*
X151544262Y-95494928D02*
X150909262Y-95494928D01*
X150909262Y-95736833D01*
X150939500Y-95797309D01*
X150969738Y-95827548D01*
X151030214Y-95857786D01*
X151120929Y-95857786D01*
X151181405Y-95827548D01*
X151211643Y-95797309D01*
X151241881Y-95736833D01*
X151241881Y-95494928D01*
X151544262Y-96462548D02*
X151544262Y-96099690D01*
X151544262Y-96281119D02*
X150909262Y-96281119D01*
X150999976Y-96220643D01*
X151060452Y-96160167D01*
X151090690Y-96099690D01*
X150909262Y-96674214D02*
X150909262Y-97097548D01*
X151544262Y-96825405D01*
X168302214Y-93886262D02*
X168513881Y-93583881D01*
X168665072Y-93886262D02*
X168665072Y-93251262D01*
X168423167Y-93251262D01*
X168362691Y-93281500D01*
X168332452Y-93311738D01*
X168302214Y-93372214D01*
X168302214Y-93462929D01*
X168332452Y-93523405D01*
X168362691Y-93553643D01*
X168423167Y-93583881D01*
X168665072Y-93583881D01*
X167697452Y-93886262D02*
X168060310Y-93886262D01*
X167878881Y-93886262D02*
X167878881Y-93251262D01*
X167939357Y-93341976D01*
X167999833Y-93402452D01*
X168060310Y-93432690D01*
X167334595Y-93523405D02*
X167395071Y-93493167D01*
X167425310Y-93462929D01*
X167455548Y-93402452D01*
X167455548Y-93372214D01*
X167425310Y-93311738D01*
X167395071Y-93281500D01*
X167334595Y-93251262D01*
X167213643Y-93251262D01*
X167153167Y-93281500D01*
X167122929Y-93311738D01*
X167092690Y-93372214D01*
X167092690Y-93402452D01*
X167122929Y-93462929D01*
X167153167Y-93493167D01*
X167213643Y-93523405D01*
X167334595Y-93523405D01*
X167395071Y-93553643D01*
X167425310Y-93583881D01*
X167455548Y-93644357D01*
X167455548Y-93765310D01*
X167425310Y-93825786D01*
X167395071Y-93856024D01*
X167334595Y-93886262D01*
X167213643Y-93886262D01*
X167153167Y-93856024D01*
X167122929Y-93825786D01*
X167092690Y-93765310D01*
X167092690Y-93644357D01*
X167122929Y-93583881D01*
X167153167Y-93553643D01*
X167213643Y-93523405D01*
X170409810Y-94521262D02*
X170409810Y-95035310D01*
X170379571Y-95095786D01*
X170349333Y-95126024D01*
X170288857Y-95156262D01*
X170167905Y-95156262D01*
X170107429Y-95126024D01*
X170077190Y-95095786D01*
X170046952Y-95035310D01*
X170046952Y-94521262D01*
X169805048Y-94521262D02*
X169411952Y-94521262D01*
X169623619Y-94763167D01*
X169532905Y-94763167D01*
X169472429Y-94793405D01*
X169442191Y-94823643D01*
X169411952Y-94884119D01*
X169411952Y-95035310D01*
X169442191Y-95095786D01*
X169472429Y-95126024D01*
X169532905Y-95156262D01*
X169714333Y-95156262D01*
X169774810Y-95126024D01*
X169805048Y-95095786D01*
X160122810Y-94372262D02*
X160122810Y-94886310D01*
X160092571Y-94946786D01*
X160062333Y-94977024D01*
X160001857Y-95007262D01*
X159880905Y-95007262D01*
X159820429Y-94977024D01*
X159790190Y-94946786D01*
X159759952Y-94886310D01*
X159759952Y-94372262D01*
X159185429Y-94372262D02*
X159306381Y-94372262D01*
X159366857Y-94402500D01*
X159397095Y-94432738D01*
X159457572Y-94523452D01*
X159487810Y-94644405D01*
X159487810Y-94886310D01*
X159457572Y-94946786D01*
X159427333Y-94977024D01*
X159366857Y-95007262D01*
X159245905Y-95007262D01*
X159185429Y-94977024D01*
X159155191Y-94946786D01*
X159124952Y-94886310D01*
X159124952Y-94735119D01*
X159155191Y-94674643D01*
X159185429Y-94644405D01*
X159245905Y-94614167D01*
X159366857Y-94614167D01*
X159427333Y-94644405D01*
X159457572Y-94674643D01*
X159487810Y-94735119D01*
X123162786Y-91158786D02*
X123193024Y-91128548D01*
X123223262Y-91037833D01*
X123223262Y-90977357D01*
X123193024Y-90886643D01*
X123132548Y-90826167D01*
X123072071Y-90795928D01*
X122951119Y-90765690D01*
X122860405Y-90765690D01*
X122739452Y-90795928D01*
X122678976Y-90826167D01*
X122618500Y-90886643D01*
X122588262Y-90977357D01*
X122588262Y-91037833D01*
X122618500Y-91128548D01*
X122648738Y-91158786D01*
X122648738Y-91400690D02*
X122618500Y-91430928D01*
X122588262Y-91491405D01*
X122588262Y-91642595D01*
X122618500Y-91703071D01*
X122648738Y-91733309D01*
X122709214Y-91763548D01*
X122769690Y-91763548D01*
X122860405Y-91733309D01*
X123223262Y-91370452D01*
X123223262Y-91763548D01*
X122588262Y-92338071D02*
X122588262Y-92035690D01*
X122890643Y-92005452D01*
X122860405Y-92035690D01*
X122830167Y-92096167D01*
X122830167Y-92247357D01*
X122860405Y-92307833D01*
X122890643Y-92338071D01*
X122951119Y-92368310D01*
X123102310Y-92368310D01*
X123162786Y-92338071D01*
X123193024Y-92307833D01*
X123223262Y-92247357D01*
X123223262Y-92096167D01*
X123193024Y-92035690D01*
X123162786Y-92005452D01*
X152284738Y-93207524D02*
X152254500Y-93147048D01*
X152194024Y-93086571D01*
X152103310Y-92995857D01*
X152073071Y-92935381D01*
X152073071Y-92874905D01*
X152224262Y-92905143D02*
X152194024Y-92844667D01*
X152133548Y-92784190D01*
X152012595Y-92753952D01*
X151800929Y-92753952D01*
X151679976Y-92784190D01*
X151619500Y-92844667D01*
X151589262Y-92905143D01*
X151589262Y-93026095D01*
X151619500Y-93086571D01*
X151679976Y-93147048D01*
X151800929Y-93177286D01*
X152012595Y-93177286D01*
X152133548Y-93147048D01*
X152194024Y-93086571D01*
X152224262Y-93026095D01*
X152224262Y-92905143D01*
X151589262Y-93388952D02*
X151589262Y-93782048D01*
X151831167Y-93570381D01*
X151831167Y-93661095D01*
X151861405Y-93721571D01*
X151891643Y-93751809D01*
X151952119Y-93782048D01*
X152103310Y-93782048D01*
X152163786Y-93751809D01*
X152194024Y-93721571D01*
X152224262Y-93661095D01*
X152224262Y-93479667D01*
X152194024Y-93419190D01*
X152163786Y-93388952D01*
X133129262Y-96238786D02*
X132826881Y-96027119D01*
X133129262Y-95875928D02*
X132494262Y-95875928D01*
X132494262Y-96117833D01*
X132524500Y-96178309D01*
X132554738Y-96208548D01*
X132615214Y-96238786D01*
X132705929Y-96238786D01*
X132766405Y-96208548D01*
X132796643Y-96178309D01*
X132826881Y-96117833D01*
X132826881Y-95875928D01*
X133129262Y-96843548D02*
X133129262Y-96480690D01*
X133129262Y-96662119D02*
X132494262Y-96662119D01*
X132584976Y-96601643D01*
X132645452Y-96541167D01*
X132675690Y-96480690D01*
X133129262Y-97145929D02*
X133129262Y-97266881D01*
X133099024Y-97327357D01*
X133068786Y-97357595D01*
X132978071Y-97418071D01*
X132857119Y-97448310D01*
X132615214Y-97448310D01*
X132554738Y-97418071D01*
X132524500Y-97387833D01*
X132494262Y-97327357D01*
X132494262Y-97206405D01*
X132524500Y-97145929D01*
X132554738Y-97115690D01*
X132615214Y-97085452D01*
X132766405Y-97085452D01*
X132826881Y-97115690D01*
X132857119Y-97145929D01*
X132887357Y-97206405D01*
X132887357Y-97327357D01*
X132857119Y-97387833D01*
X132826881Y-97418071D01*
X132766405Y-97448310D01*
X148109214Y-92155262D02*
X148320881Y-91852881D01*
X148472072Y-92155262D02*
X148472072Y-91520262D01*
X148230167Y-91520262D01*
X148169691Y-91550500D01*
X148139452Y-91580738D01*
X148109214Y-91641214D01*
X148109214Y-91731929D01*
X148139452Y-91792405D01*
X148169691Y-91822643D01*
X148230167Y-91852881D01*
X148472072Y-91852881D01*
X147867310Y-91580738D02*
X147837072Y-91550500D01*
X147776595Y-91520262D01*
X147625405Y-91520262D01*
X147564929Y-91550500D01*
X147534691Y-91580738D01*
X147504452Y-91641214D01*
X147504452Y-91701690D01*
X147534691Y-91792405D01*
X147897548Y-92155262D01*
X147504452Y-92155262D01*
X147111357Y-91520262D02*
X147050881Y-91520262D01*
X146990405Y-91550500D01*
X146960167Y-91580738D01*
X146929929Y-91641214D01*
X146899690Y-91762167D01*
X146899690Y-91913357D01*
X146929929Y-92034310D01*
X146960167Y-92094786D01*
X146990405Y-92125024D01*
X147050881Y-92155262D01*
X147111357Y-92155262D01*
X147171833Y-92125024D01*
X147202071Y-92094786D01*
X147232310Y-92034310D01*
X147262548Y-91913357D01*
X147262548Y-91762167D01*
X147232310Y-91641214D01*
X147202071Y-91580738D01*
X147171833Y-91550500D01*
X147111357Y-91520262D01*
X145087262Y-92174785D02*
X145087262Y-91872404D01*
X144452262Y-91872404D01*
X145057024Y-92356214D02*
X145087262Y-92446929D01*
X145087262Y-92598119D01*
X145057024Y-92658595D01*
X145026786Y-92688833D01*
X144966310Y-92719072D01*
X144905833Y-92719072D01*
X144845357Y-92688833D01*
X144815119Y-92658595D01*
X144784881Y-92598119D01*
X144754643Y-92477167D01*
X144724405Y-92416691D01*
X144694167Y-92386452D01*
X144633690Y-92356214D01*
X144573214Y-92356214D01*
X144512738Y-92386452D01*
X144482500Y-92416691D01*
X144452262Y-92477167D01*
X144452262Y-92628357D01*
X144482500Y-92719072D01*
X145087262Y-93323834D02*
X145087262Y-92960976D01*
X145087262Y-93142405D02*
X144452262Y-93142405D01*
X144542976Y-93081929D01*
X144603452Y-93021453D01*
X144633690Y-92960976D01*
D14*
X144744667Y-95942667D02*
X145311333Y-95942667D01*
X145378000Y-95976000D01*
X145411333Y-96009333D01*
X145444667Y-96076000D01*
X145444667Y-96209333D01*
X145411333Y-96276000D01*
X145378000Y-96309333D01*
X145311333Y-96342667D01*
X144744667Y-96342667D01*
X144978000Y-96976000D02*
X145444667Y-96976000D01*
X144711333Y-96809333D02*
X145211333Y-96642666D01*
X145211333Y-97076000D01*
X118290095Y-105399381D02*
X118290095Y-104399381D01*
X118052000Y-104399381D01*
X117909142Y-104447000D01*
X117813904Y-104542238D01*
X117766285Y-104637476D01*
X117718666Y-104827952D01*
X117718666Y-104970810D01*
X117766285Y-105161286D01*
X117813904Y-105256524D01*
X117909142Y-105351762D01*
X118052000Y-105399381D01*
X118290095Y-105399381D01*
X117337714Y-104494619D02*
X117290095Y-104447000D01*
X117194857Y-104399381D01*
X116956761Y-104399381D01*
X116861523Y-104447000D01*
X116813904Y-104494619D01*
X116766285Y-104589857D01*
X116766285Y-104685095D01*
X116813904Y-104827952D01*
X117385333Y-105399381D01*
X116766285Y-105399381D01*
M02*
