G04 #@! TF.FileFunction,Copper,L2,Bot,Signal*
%FSLAX46Y46*%
G04 Gerber Fmt 4.6, Leading zero omitted, Abs format (unit mm)*
G04 Created by KiCad (PCBNEW 4.0.7) date Sun Oct 15 21:52:05 2017*
%MOMM*%
%LPD*%
G01*
G04 APERTURE LIST*
%ADD10C,0.100000*%
%ADD11C,0.600000*%
%ADD12R,0.800000X0.750000*%
%ADD13R,0.600000X0.500000*%
%ADD14R,0.500000X0.600000*%
%ADD15R,0.600000X0.450000*%
%ADD16R,0.600000X1.550000*%
%ADD17R,1.200000X1.800000*%
%ADD18R,0.800000X2.900000*%
%ADD19R,0.600000X0.400000*%
%ADD20R,0.400000X0.600000*%
%ADD21R,1.060000X0.650000*%
%ADD22R,0.600000X0.225000*%
%ADD23R,0.700000X0.450000*%
%ADD24R,3.400000X1.300000*%
%ADD25R,0.150000X0.500000*%
%ADD26R,0.300000X0.550000*%
%ADD27R,0.500000X0.150000*%
%ADD28R,0.550000X0.300000*%
%ADD29R,0.352000X0.300000*%
%ADD30R,0.300000X0.352000*%
%ADD31O,3.200000X1.300000*%
%ADD32O,1.300000X2.400000*%
%ADD33O,2.400000X1.200000*%
%ADD34O,1.900000X1.200000*%
%ADD35O,2.900000X1.500000*%
%ADD36R,0.700000X0.600000*%
%ADD37R,0.500000X0.900000*%
%ADD38R,0.650000X0.400000*%
%ADD39R,0.800000X0.900000*%
%ADD40C,0.500000*%
%ADD41C,0.152400*%
%ADD42C,0.254000*%
%ADD43C,0.177800*%
G04 APERTURE END LIST*
D10*
D11*
X125730000Y-104267000D03*
X160020000Y-100584000D03*
X133731000Y-99060000D03*
X134620000Y-93853000D03*
X132588000Y-91440000D03*
X151765000Y-104267000D03*
X161036000Y-102489000D03*
X163576000Y-97028000D03*
X154940000Y-93980000D03*
X142748000Y-100838000D03*
X155194000Y-97282000D03*
X136144000Y-88900000D03*
X130048000Y-100330000D03*
X137414000Y-100330000D03*
X133096000Y-96266000D03*
X131064000Y-96266000D03*
X132080000Y-96266000D03*
X132334000Y-104394000D03*
X130175000Y-102235000D03*
X136271000Y-104013000D03*
X141224000Y-94234000D03*
X164592000Y-98044000D03*
X177546000Y-100711000D03*
X166878000Y-105918000D03*
X170688000Y-100584000D03*
X169926000Y-100584000D03*
X169164000Y-100584000D03*
X168402000Y-100584000D03*
X168402000Y-99822000D03*
X169164000Y-99822000D03*
X169926000Y-99822000D03*
X170688000Y-99822000D03*
X170688000Y-99060000D03*
X169926000Y-99060000D03*
X166116000Y-105918000D03*
X168402000Y-99060000D03*
X169164000Y-99060000D03*
D12*
X176542000Y-92329000D03*
X178042000Y-92329000D03*
D13*
X176742000Y-93980000D03*
X177842000Y-93980000D03*
D14*
X171196000Y-98086000D03*
X171196000Y-96986000D03*
X169926000Y-98086000D03*
X169926000Y-96986000D03*
X168656000Y-98086000D03*
X168656000Y-96986000D03*
D13*
X154474000Y-97536000D03*
X153374000Y-97536000D03*
X154474000Y-96012000D03*
X153374000Y-96012000D03*
D14*
X154178000Y-104225000D03*
X154178000Y-105325000D03*
X152654000Y-104225000D03*
X152654000Y-105325000D03*
D13*
X165904000Y-99314000D03*
X164804000Y-99314000D03*
X165904000Y-100584000D03*
X164804000Y-100584000D03*
D14*
X162814000Y-101812000D03*
X162814000Y-102912000D03*
X162814000Y-99314000D03*
X162814000Y-100414000D03*
D13*
X165693000Y-92710000D03*
X166793000Y-92710000D03*
X165693000Y-93980000D03*
X166793000Y-93980000D03*
X159470000Y-99822000D03*
X160570000Y-99822000D03*
X159470000Y-98679000D03*
X160570000Y-98679000D03*
D14*
X162814000Y-96986000D03*
X162814000Y-98086000D03*
D13*
X158454000Y-94488000D03*
X159554000Y-94488000D03*
D15*
X174786000Y-96266000D03*
X172686000Y-96266000D03*
D16*
X159996000Y-91309000D03*
X158996000Y-91309000D03*
X157996000Y-91309000D03*
X156996000Y-91309000D03*
D17*
X161296000Y-88784000D03*
X155696000Y-88784000D03*
D18*
X174836000Y-99314000D03*
X172636000Y-99314000D03*
D19*
X138684000Y-94038000D03*
X138684000Y-94938000D03*
D20*
X130625000Y-91694000D03*
X129725000Y-91694000D03*
X137356000Y-97028000D03*
X136456000Y-97028000D03*
D19*
X134874000Y-98240000D03*
X134874000Y-97340000D03*
X176403000Y-90620000D03*
X176403000Y-89720000D03*
D20*
X175202000Y-90170000D03*
X174302000Y-90170000D03*
D19*
X142494000Y-103690000D03*
X142494000Y-104590000D03*
D20*
X157422000Y-105156000D03*
X156522000Y-105156000D03*
D19*
X158369000Y-103066000D03*
X158369000Y-102166000D03*
X159766000Y-103066000D03*
X159766000Y-102166000D03*
X155956000Y-94038000D03*
X155956000Y-94938000D03*
D20*
X165793000Y-95250000D03*
X166693000Y-95250000D03*
D21*
X172636000Y-93914000D03*
X172636000Y-92964000D03*
X172636000Y-92014000D03*
X174836000Y-92014000D03*
X174836000Y-93914000D03*
X174836000Y-92964000D03*
D22*
X159120000Y-97320000D03*
X159120000Y-96920000D03*
X159120000Y-96520000D03*
X159120000Y-96120000D03*
X159120000Y-95720000D03*
X160920000Y-95720000D03*
X160920000Y-96120000D03*
X160920000Y-96520000D03*
X160920000Y-96920000D03*
X160920000Y-97320000D03*
D14*
X135636000Y-94064000D03*
X135636000Y-92964000D03*
D23*
X146796000Y-99426000D03*
X146796000Y-100726000D03*
X144796000Y-100076000D03*
D19*
X142748000Y-100018000D03*
X142748000Y-99118000D03*
X148844000Y-99626000D03*
X148844000Y-100526000D03*
D24*
X147320000Y-97314000D03*
X147320000Y-88614000D03*
D25*
X156111000Y-102738000D03*
D26*
X155686000Y-102713000D03*
X155186000Y-102713000D03*
X154686000Y-102713000D03*
X154186000Y-102713000D03*
X153686000Y-102713000D03*
D25*
X153261000Y-102738000D03*
X153261000Y-98938000D03*
D26*
X153686000Y-98963000D03*
X154186000Y-98963000D03*
X154686000Y-98963000D03*
X155186000Y-98963000D03*
X155686000Y-98963000D03*
D25*
X156111000Y-98938000D03*
D27*
X152786000Y-102263000D03*
D28*
X152811000Y-101838000D03*
X152811000Y-101338000D03*
X152811000Y-100838000D03*
X152811000Y-100338000D03*
X152811000Y-99838000D03*
D29*
X152711800Y-99338000D03*
D27*
X156586000Y-99413000D03*
D28*
X156561000Y-99838000D03*
X156561000Y-100338000D03*
X156561000Y-100838000D03*
X156561000Y-101338000D03*
X156561000Y-101838000D03*
D27*
X156586000Y-102263000D03*
X152786000Y-99413000D03*
D10*
G36*
X153035000Y-99338500D02*
X152887000Y-99485500D01*
X152887000Y-99190500D01*
X153035000Y-99337500D01*
X153035000Y-99338500D01*
X153035000Y-99338500D01*
G37*
D30*
X153186000Y-98863800D03*
D10*
G36*
X153038500Y-99039000D02*
X153333500Y-99039000D01*
X153186500Y-99187000D01*
X153185500Y-99187000D01*
X153038500Y-99039000D01*
X153038500Y-99039000D01*
G37*
D30*
X156186000Y-98863800D03*
D29*
X156660200Y-99338000D03*
X156660200Y-102338000D03*
D30*
X153186000Y-102812200D03*
X156186000Y-102812200D03*
D29*
X152711800Y-102338000D03*
D10*
G36*
X153035000Y-102338500D02*
X152887000Y-102485500D01*
X152887000Y-102190500D01*
X153035000Y-102337500D01*
X153035000Y-102338500D01*
X153035000Y-102338500D01*
G37*
G36*
X156038500Y-99039000D02*
X156333500Y-99039000D01*
X156186500Y-99187000D01*
X156185500Y-99187000D01*
X156038500Y-99039000D01*
X156038500Y-99039000D01*
G37*
G36*
X153333500Y-102637000D02*
X153038500Y-102637000D01*
X153185500Y-102489000D01*
X153186500Y-102489000D01*
X153333500Y-102637000D01*
X153333500Y-102637000D01*
G37*
G36*
X156333500Y-102637000D02*
X156038500Y-102637000D01*
X156185500Y-102489000D01*
X156186500Y-102489000D01*
X156333500Y-102637000D01*
X156333500Y-102637000D01*
G37*
G36*
X156337000Y-99337500D02*
X156485000Y-99190500D01*
X156485000Y-99485500D01*
X156337000Y-99338500D01*
X156337000Y-99337500D01*
X156337000Y-99337500D01*
G37*
G36*
X156337000Y-102337500D02*
X156485000Y-102190500D01*
X156485000Y-102485500D01*
X156337000Y-102338500D01*
X156337000Y-102337500D01*
X156337000Y-102337500D01*
G37*
D23*
X129302000Y-103647000D03*
X129302000Y-102347000D03*
X131302000Y-102997000D03*
D31*
X125586000Y-92320000D03*
X125586000Y-100720000D03*
X118786000Y-100720000D03*
X118786000Y-92320000D03*
D32*
X178710000Y-97320000D03*
D33*
X181610000Y-90170000D03*
D34*
X181410000Y-102770000D03*
D35*
X188260000Y-89920000D03*
X188260000Y-103020000D03*
D36*
X167132000Y-96836000D03*
X167132000Y-98236000D03*
D37*
X172708000Y-102108000D03*
X171208000Y-102108000D03*
D38*
X177099000Y-103299500D03*
X177099000Y-104599500D03*
X175199000Y-103949500D03*
X177099000Y-103949500D03*
X175199000Y-104599500D03*
X175199000Y-103299500D03*
X138364000Y-98918000D03*
X138364000Y-100218000D03*
X136464000Y-99568000D03*
X138364000Y-99568000D03*
X136464000Y-100218000D03*
X136464000Y-98918000D03*
D19*
X173228000Y-104844000D03*
X173228000Y-103944000D03*
X171704000Y-103944000D03*
X171704000Y-104844000D03*
D20*
X136964000Y-102362000D03*
X137864000Y-102362000D03*
D19*
X134874000Y-99372000D03*
X134874000Y-100272000D03*
D38*
X131003000Y-98694000D03*
X131003000Y-97394000D03*
X132903000Y-98044000D03*
X131003000Y-98044000D03*
X132903000Y-97394000D03*
X132903000Y-98694000D03*
D39*
X167066000Y-104378000D03*
X165166000Y-104378000D03*
X166116000Y-102378000D03*
D19*
X169672000Y-104844000D03*
X169672000Y-103944000D03*
D20*
X127450000Y-103632000D03*
X126550000Y-103632000D03*
X127450000Y-104902000D03*
X126550000Y-104902000D03*
D40*
X143764000Y-104267000D03*
X138684000Y-102362000D03*
X141470505Y-101988495D03*
X173482000Y-97028006D03*
X163576000Y-101092000D03*
X163576000Y-101854000D03*
X163576000Y-99677587D03*
X163576000Y-100330000D03*
X164592000Y-93218000D03*
X164338000Y-94234000D03*
X156588663Y-95402446D03*
X156964593Y-98369053D03*
X157310977Y-99066717D03*
X156620412Y-93667297D03*
X150241000Y-99314000D03*
X154940000Y-92202000D03*
X153162000Y-93472000D03*
X156210000Y-103886000D03*
X141097000Y-98044000D03*
X144399000Y-100965000D03*
X137922000Y-94361000D03*
X137100402Y-95123000D03*
X130683000Y-95377000D03*
X143891000Y-101443610D03*
X141507390Y-98946930D03*
X137443108Y-95678153D03*
X137922000Y-97155000D03*
X170053000Y-93726000D03*
X140426376Y-101098234D03*
X140402606Y-96881064D03*
X134620000Y-94615000D03*
X159004000Y-102616000D03*
X161798000Y-97663000D03*
X158059079Y-96947585D03*
X157615789Y-99697977D03*
X163576000Y-96266000D03*
X162618789Y-96125448D03*
X156972000Y-94869000D03*
X157726758Y-96367366D03*
X155575000Y-95504000D03*
X152654000Y-97663000D03*
X164592000Y-94996000D03*
X159258000Y-101473000D03*
X158300789Y-101258789D03*
X157353000Y-100330000D03*
X162052000Y-99060000D03*
X163571999Y-98175001D03*
X129667000Y-90805000D03*
X146304000Y-102489000D03*
X144653000Y-98425000D03*
X142494000Y-98171000D03*
X146939000Y-92710000D03*
X140716000Y-88900000D03*
X140462000Y-102362000D03*
X141351000Y-102870000D03*
X138303000Y-104013000D03*
X176276000Y-98679000D03*
X128397000Y-101981000D03*
X130683000Y-105156000D03*
X131826000Y-100330000D03*
X145923000Y-99441000D03*
X149606000Y-100076000D03*
X154741360Y-98255903D03*
X152273000Y-98298000D03*
X130048000Y-98298000D03*
X143608993Y-102081158D03*
X141090527Y-99448793D03*
X134620000Y-96266000D03*
X175514000Y-105410006D03*
X172720000Y-103124004D03*
X170942000Y-103378000D03*
X176281327Y-104648390D03*
X170053008Y-91948000D03*
X175763505Y-99543753D03*
X139192000Y-99441000D03*
X137794052Y-97794743D03*
X139003515Y-98359484D03*
X137579459Y-98667212D03*
X136240796Y-102433057D03*
X136409485Y-101201772D03*
X173482000Y-102108000D03*
D41*
X144399000Y-103632000D02*
X143764000Y-104267000D01*
X153686000Y-103108000D02*
X153162000Y-103632000D01*
X153686000Y-102713000D02*
X153686000Y-103108000D01*
X153162000Y-103632000D02*
X144399000Y-103632000D01*
X141470505Y-101465505D02*
X140589000Y-100584000D01*
X140589000Y-100584000D02*
X140108447Y-100584000D01*
X140108447Y-100584000D02*
X138684000Y-102008447D01*
X138684000Y-102008447D02*
X138684000Y-102362000D01*
X141470505Y-101988495D02*
X141470505Y-101465505D01*
X161925000Y-95720000D02*
X162141000Y-95504000D01*
X162141000Y-95504000D02*
X162618000Y-95504000D01*
X162814000Y-98036000D02*
X162814000Y-98086000D01*
X162411600Y-97633600D02*
X162814000Y-98036000D01*
X162411600Y-97568270D02*
X162411600Y-97633600D01*
X161763330Y-96920000D02*
X162411600Y-97568270D01*
X160920000Y-96920000D02*
X161763330Y-96920000D01*
X160920000Y-95720000D02*
X161925000Y-95720000D01*
X161887000Y-95885000D02*
X161887000Y-95882600D01*
X161887000Y-95882600D02*
X161925000Y-95844600D01*
X161925000Y-95844600D02*
X161925000Y-95720000D01*
X161652000Y-96120000D02*
X161887000Y-95885000D01*
X160920000Y-96120000D02*
X161652000Y-96120000D01*
D42*
X154178000Y-104225000D02*
X154178000Y-102721000D01*
X154178000Y-102721000D02*
X154186000Y-102713000D01*
X152654000Y-104225000D02*
X154178000Y-104225000D01*
X151765000Y-104267000D02*
X152612000Y-104267000D01*
X152612000Y-104267000D02*
X152654000Y-104225000D01*
D41*
X126550000Y-103632000D02*
X126365000Y-103632000D01*
X126365000Y-103632000D02*
X125730000Y-104267000D01*
D42*
X135636000Y-94064000D02*
X134831000Y-94064000D01*
X134831000Y-94064000D02*
X134620000Y-93853000D01*
D41*
X173482000Y-96674453D02*
X173482000Y-97028006D01*
X173482000Y-95237400D02*
X173482000Y-96674453D01*
X172636000Y-94391400D02*
X173482000Y-95237400D01*
X172636000Y-93914000D02*
X172636000Y-94391400D01*
X176542000Y-92329000D02*
X176403000Y-92190000D01*
X176403000Y-92190000D02*
X176403000Y-90620000D01*
D42*
X175768000Y-92837000D02*
X175641000Y-92964000D01*
X175641000Y-92964000D02*
X174836000Y-92964000D01*
X175768000Y-92449000D02*
X175768000Y-92837000D01*
X176542000Y-92329000D02*
X175888000Y-92329000D01*
X175888000Y-92329000D02*
X175768000Y-92449000D01*
X176742000Y-93430000D02*
X176542000Y-93230000D01*
X176542000Y-93230000D02*
X176542000Y-92329000D01*
X176742000Y-93980000D02*
X176742000Y-93430000D01*
X176742000Y-96256000D02*
X176742000Y-93980000D01*
X130625000Y-91694000D02*
X132334000Y-91694000D01*
X132334000Y-91694000D02*
X132588000Y-91440000D01*
X178710000Y-97320000D02*
X177806000Y-97320000D01*
X177806000Y-97320000D02*
X176742000Y-96256000D01*
D41*
X160920000Y-96520000D02*
X161372400Y-96520000D01*
X161372400Y-96520000D02*
X161866239Y-96520000D01*
X158369000Y-97536000D02*
X158585000Y-97320000D01*
X158585000Y-97320000D02*
X159120000Y-97320000D01*
D42*
X158369000Y-98171000D02*
X158369000Y-97536000D01*
X158877000Y-98679000D02*
X158369000Y-98171000D01*
X159470000Y-98679000D02*
X158877000Y-98679000D01*
X155194000Y-96732000D02*
X154474000Y-96012000D01*
X159470000Y-99822000D02*
X159470000Y-98679000D01*
X160020000Y-100584000D02*
X159595736Y-100584000D01*
X159595736Y-100584000D02*
X159470000Y-100458264D01*
X159470000Y-100458264D02*
X159470000Y-99822000D01*
X159666000Y-103066000D02*
X159766000Y-103066000D01*
X158923000Y-103520000D02*
X159212000Y-103520000D01*
X158469000Y-103066000D02*
X158923000Y-103520000D01*
X158369000Y-103066000D02*
X158469000Y-103066000D01*
X159212000Y-103520000D02*
X159666000Y-103066000D01*
X159470000Y-98679000D02*
X159258000Y-98679000D01*
X159766000Y-103066000D02*
X160459000Y-103066000D01*
X160459000Y-103066000D02*
X161036000Y-102489000D01*
X162332239Y-96986000D02*
X161866239Y-96520000D01*
X162814000Y-96986000D02*
X162332239Y-96986000D01*
X138684000Y-94038000D02*
X141028000Y-94038000D01*
X141028000Y-94038000D02*
X141224000Y-94234000D01*
X142748000Y-100838000D02*
X142748000Y-100018000D01*
X163576000Y-97028000D02*
X162856000Y-97028000D01*
X162856000Y-97028000D02*
X162814000Y-96986000D01*
X154940000Y-93980000D02*
X155898000Y-93980000D01*
X155898000Y-93980000D02*
X155956000Y-94038000D01*
X154474000Y-97536000D02*
X154186000Y-97824000D01*
X154186000Y-97824000D02*
X154186000Y-98963000D01*
X155194000Y-97282000D02*
X155194000Y-96732000D01*
X154474000Y-96012000D02*
X154474000Y-97536000D01*
D41*
X163576000Y-101092000D02*
X163068000Y-101092000D01*
X163068000Y-101092000D02*
X162814000Y-101346000D01*
X162814000Y-101346000D02*
X162814000Y-101812000D01*
X163576000Y-102616000D02*
X163280000Y-102912000D01*
X163280000Y-102912000D02*
X162814000Y-102912000D01*
X163576000Y-101854000D02*
X163576000Y-102616000D01*
X163576000Y-99673600D02*
X163576000Y-99677587D01*
X163216400Y-99314000D02*
X163576000Y-99673600D01*
X162814000Y-99314000D02*
X163216400Y-99314000D01*
X163576000Y-100330000D02*
X162898000Y-100330000D01*
X162898000Y-100330000D02*
X162814000Y-100414000D01*
X165693000Y-92710000D02*
X165100000Y-92710000D01*
X165100000Y-92710000D02*
X164592000Y-93218000D01*
X164338000Y-94234000D02*
X165439000Y-94234000D01*
X165439000Y-94234000D02*
X165693000Y-93980000D01*
X158221701Y-96113609D02*
X158228092Y-96120000D01*
X158228092Y-96120000D02*
X159120000Y-96120000D01*
D42*
X157900000Y-95791908D02*
X157900000Y-95546000D01*
X157900000Y-95546000D02*
X158454000Y-94992000D01*
X158454000Y-94992000D02*
X158454000Y-94488000D01*
X158221701Y-96113609D02*
X157900000Y-95791908D01*
D41*
X159996000Y-91309000D02*
X159996000Y-92583000D01*
X156869271Y-94263399D02*
X156493399Y-94639271D01*
X156493399Y-94639271D02*
X156493399Y-95307182D01*
X159996000Y-92583000D02*
X158628066Y-92583000D01*
X158628066Y-92583000D02*
X157739068Y-93471998D01*
X157739068Y-93471998D02*
X157734002Y-93471998D01*
X157734002Y-93471998D02*
X156942601Y-94263399D01*
X156942601Y-94263399D02*
X156869271Y-94263399D01*
X156493399Y-95307182D02*
X156588663Y-95402446D01*
X156186000Y-98863800D02*
X156186000Y-98576000D01*
X156186000Y-98576000D02*
X156392947Y-98369053D01*
X156392947Y-98369053D02*
X156964593Y-98369053D01*
X156586000Y-99413000D02*
X157000000Y-99413000D01*
X157000000Y-99413000D02*
X157310977Y-99102023D01*
X157310977Y-99102023D02*
X157310977Y-99066717D01*
X158996000Y-91784000D02*
X158996000Y-91309000D01*
X157120520Y-93167189D02*
X157612811Y-93167189D01*
X156620412Y-93667297D02*
X157120520Y-93167189D01*
X157612811Y-93167189D02*
X158996000Y-91784000D01*
X154686000Y-102713000D02*
X154686000Y-103140400D01*
X155431600Y-103886000D02*
X155956000Y-103886000D01*
X154686000Y-103140400D02*
X155431600Y-103886000D01*
X155956000Y-103886000D02*
X156210000Y-103886000D01*
X153162000Y-93472000D02*
X151130000Y-95504000D01*
X151130000Y-95504000D02*
X151130000Y-98071447D01*
X151130000Y-98071447D02*
X150241000Y-98960447D01*
X150241000Y-98960447D02*
X150241000Y-99314000D01*
X157996000Y-91309000D02*
X157996000Y-91784000D01*
X157996000Y-91784000D02*
X157328001Y-92451999D01*
X155189999Y-92451999D02*
X154940000Y-92202000D01*
X157328001Y-92451999D02*
X155189999Y-92451999D01*
X141097000Y-97690447D02*
X141097000Y-98044000D01*
X138684000Y-94938000D02*
X139136400Y-94938000D01*
X141097000Y-96898600D02*
X141097000Y-97690447D01*
X139136400Y-94938000D02*
X141097000Y-96898600D01*
X144399000Y-100965000D02*
X144780000Y-101346000D01*
X152383400Y-99338000D02*
X152711800Y-99338000D01*
X144780000Y-101346000D02*
X150013867Y-101346000D01*
X150013867Y-101346000D02*
X152021867Y-99338000D01*
X152021867Y-99338000D02*
X152383400Y-99338000D01*
X137922000Y-94361000D02*
X138107000Y-94361000D01*
X138107000Y-94361000D02*
X138684000Y-94938000D01*
X130937000Y-95123000D02*
X137100402Y-95123000D01*
X130683000Y-95377000D02*
X130937000Y-95123000D01*
X144140999Y-101693609D02*
X143891000Y-101443610D01*
X151952934Y-99838000D02*
X150097325Y-101693609D01*
X150097325Y-101693609D02*
X144140999Y-101693609D01*
X152811000Y-99838000D02*
X151952934Y-99838000D01*
X141110930Y-98946930D02*
X141153837Y-98946930D01*
X141153837Y-98946930D02*
X141507390Y-98946930D01*
X137443108Y-95678153D02*
X137842153Y-95678153D01*
X137842153Y-95678153D02*
X141110930Y-98946930D01*
X137922000Y-97155000D02*
X137483000Y-97155000D01*
X137483000Y-97155000D02*
X137356000Y-97028000D01*
X171892000Y-92014000D02*
X171765000Y-92014000D01*
X170302999Y-93476001D02*
X170053000Y-93726000D01*
X171765000Y-92014000D02*
X170302999Y-93476001D01*
X172146000Y-92014000D02*
X171892000Y-92014000D01*
X172636000Y-92014000D02*
X171892000Y-92014000D01*
X142494000Y-103690000D02*
X143909933Y-103690000D01*
X143909933Y-103690000D02*
X144272744Y-103327189D01*
X144272744Y-103327189D02*
X152958811Y-103327189D01*
X152958811Y-103327189D02*
X153186000Y-103100000D01*
X153186000Y-103100000D02*
X153186000Y-102812200D01*
X140676375Y-101348233D02*
X140426376Y-101098234D01*
X140940602Y-102591730D02*
X140940602Y-101612460D01*
X140813602Y-103094602D02*
X140813602Y-102718730D01*
X141409000Y-103690000D02*
X140813602Y-103094602D01*
X140940602Y-101612460D02*
X140676375Y-101348233D01*
X142494000Y-103690000D02*
X141409000Y-103690000D01*
X140813602Y-102718730D02*
X140940602Y-102591730D01*
X137340670Y-94615000D02*
X139606734Y-96881064D01*
X134620000Y-94615000D02*
X137340670Y-94615000D01*
X140049053Y-96881064D02*
X140402606Y-96881064D01*
X139606734Y-96881064D02*
X140049053Y-96881064D01*
X157422000Y-104703600D02*
X157422000Y-105156000D01*
X157422000Y-104074200D02*
X157422000Y-104703600D01*
X156186000Y-102812200D02*
X156186000Y-102838200D01*
X156186000Y-102838200D02*
X157422000Y-104074200D01*
X159004000Y-102616000D02*
X158819000Y-102616000D01*
X158819000Y-102616000D02*
X158369000Y-102166000D01*
X158369000Y-102166000D02*
X158469000Y-102166000D01*
X156586000Y-102263000D02*
X158272000Y-102263000D01*
X158272000Y-102263000D02*
X158369000Y-102166000D01*
X161798000Y-97663000D02*
X161798000Y-97409000D01*
X161798000Y-97409000D02*
X161709000Y-97320000D01*
X161709000Y-97320000D02*
X161514002Y-97320000D01*
X161514002Y-97320000D02*
X160920000Y-97320000D01*
X159120000Y-96920000D02*
X158086664Y-96920000D01*
X158086664Y-96920000D02*
X158059079Y-96947585D01*
X157861000Y-101600000D02*
X157998399Y-101737399D01*
X157998399Y-101737399D02*
X158814067Y-101737399D01*
X157607000Y-101600000D02*
X157861000Y-101600000D01*
X157607000Y-101219000D02*
X157607000Y-101600000D01*
X157607000Y-101600000D02*
X157369000Y-101838000D01*
X157840542Y-100985458D02*
X157607000Y-101219000D01*
X157865788Y-100985458D02*
X157840542Y-100985458D01*
X156561000Y-101838000D02*
X157369000Y-101838000D01*
X158814067Y-101737399D02*
X159242668Y-102166000D01*
X159242668Y-102166000D02*
X159313600Y-102166000D01*
X159313600Y-102166000D02*
X159766000Y-102166000D01*
X157865788Y-99947976D02*
X157615789Y-99697977D01*
X157865788Y-100985458D02*
X157865788Y-99947976D01*
X162618789Y-96125448D02*
X163435448Y-96125448D01*
X163435448Y-96125448D02*
X163576000Y-96266000D01*
X155575000Y-95504000D02*
X155952047Y-95881047D01*
X157099000Y-94996000D02*
X156972000Y-94869000D01*
X155952047Y-95881047D02*
X156818392Y-95881047D01*
X157099000Y-95600439D02*
X157099000Y-94996000D01*
X156818392Y-95881047D02*
X157099000Y-95600439D01*
X158074403Y-96469220D02*
X157972549Y-96367366D01*
X157972549Y-96367366D02*
X157726758Y-96367366D01*
X158328402Y-96469220D02*
X158074403Y-96469220D01*
X158379182Y-96520000D02*
X158328402Y-96469220D01*
X159120000Y-96520000D02*
X158379182Y-96520000D01*
X155575000Y-95504000D02*
X155575000Y-95319000D01*
X155575000Y-95319000D02*
X155956000Y-94938000D01*
X153186000Y-98863800D02*
X153186000Y-98535400D01*
X153186000Y-98535400D02*
X152654000Y-98003400D01*
X152654000Y-98003400D02*
X152654000Y-97663000D01*
X164846000Y-95250000D02*
X164592000Y-94996000D01*
X165793000Y-95250000D02*
X164846000Y-95250000D01*
X155686000Y-102981000D02*
X155956000Y-103251000D01*
X155686000Y-102713000D02*
X155686000Y-102981000D01*
X155186000Y-102713000D02*
X155186000Y-103140400D01*
X155186000Y-103140400D02*
X155423600Y-103378000D01*
X155686000Y-98963000D02*
X155686000Y-98441000D01*
X159043789Y-101258789D02*
X159258000Y-101473000D01*
X158300789Y-101258789D02*
X159043789Y-101258789D01*
X157353000Y-100330000D02*
X156569000Y-100330000D01*
X156569000Y-100330000D02*
X156561000Y-100338000D01*
X163571999Y-98175001D02*
X163571999Y-98528554D01*
X163571999Y-98528554D02*
X163485952Y-98614601D01*
X163485952Y-98614601D02*
X162497399Y-98614601D01*
X162497399Y-98614601D02*
X162052000Y-99060000D01*
X156561000Y-101338000D02*
X156988400Y-101338000D01*
X156988400Y-101338000D02*
X157099000Y-101448600D01*
X159120000Y-95720000D02*
X158407000Y-95720000D01*
X129667000Y-90805000D02*
X129667000Y-91636000D01*
X129667000Y-91636000D02*
X129725000Y-91694000D01*
X129725000Y-91694000D02*
X129725000Y-92146400D01*
X129725000Y-92146400D02*
X129794000Y-92215400D01*
X129794000Y-92215400D02*
X129794000Y-97028000D01*
X130160000Y-97394000D02*
X131003000Y-97394000D01*
X129794000Y-97028000D02*
X130160000Y-97394000D01*
X134678000Y-98044000D02*
X134874000Y-98240000D01*
X132903000Y-98044000D02*
X134678000Y-98044000D01*
X136464000Y-98918000D02*
X136464000Y-97036000D01*
X136464000Y-97036000D02*
X136456000Y-97028000D01*
X134874000Y-98240000D02*
X134974000Y-98240000D01*
X134974000Y-98240000D02*
X135652000Y-98918000D01*
X135652000Y-98918000D02*
X136464000Y-98918000D01*
X152383600Y-101838000D02*
X152811000Y-101838000D01*
X151654000Y-101838000D02*
X152383600Y-101838000D01*
X146304000Y-102489000D02*
X151003000Y-102489000D01*
X151003000Y-102489000D02*
X151654000Y-101838000D01*
X140716000Y-88900000D02*
X142621000Y-88900000D01*
X142621000Y-88900000D02*
X146431000Y-92710000D01*
X146431000Y-92710000D02*
X146939000Y-92710000D01*
X142494000Y-98171000D02*
X144399000Y-98171000D01*
X144399000Y-98171000D02*
X144653000Y-98425000D01*
X141351000Y-102870000D02*
X141600999Y-103119999D01*
X141600999Y-103119999D02*
X144048867Y-103119999D01*
X144146488Y-103022378D02*
X151485622Y-103022378D01*
X144048867Y-103119999D02*
X144146488Y-103022378D01*
X151485622Y-103022378D02*
X152170000Y-102338000D01*
X152170000Y-102338000D02*
X152711800Y-102338000D01*
X138303000Y-104013000D02*
X139954000Y-102362000D01*
X140108447Y-102362000D02*
X140462000Y-102362000D01*
X139954000Y-102362000D02*
X140108447Y-102362000D01*
X176276000Y-98679000D02*
X175922447Y-98679000D01*
X175922447Y-98679000D02*
X175287447Y-99314000D01*
X175287447Y-99314000D02*
X174836000Y-99314000D01*
X131302000Y-102997000D02*
X128778000Y-102997000D01*
X128778000Y-102997000D02*
X128397000Y-102616000D01*
X128397000Y-102616000D02*
X128397000Y-101981000D01*
X130683000Y-105156000D02*
X131302000Y-104537000D01*
X131302000Y-104537000D02*
X131302000Y-102997000D01*
X131826000Y-100330000D02*
X131302000Y-100854000D01*
X131302000Y-100854000D02*
X131302000Y-102997000D01*
D42*
X147320000Y-97314000D02*
X147320000Y-98552000D01*
X145050000Y-98806000D02*
X144796000Y-99060000D01*
X147320000Y-98552000D02*
X147066000Y-98806000D01*
X147066000Y-98806000D02*
X145050000Y-98806000D01*
X144796000Y-99060000D02*
X144796000Y-99597000D01*
X144796000Y-99060000D02*
X144375000Y-99060000D01*
X144375000Y-99060000D02*
X144317000Y-99118000D01*
X142748000Y-99118000D02*
X144317000Y-99118000D01*
X144796000Y-99597000D02*
X144796000Y-100076000D01*
D41*
X145923000Y-99441000D02*
X146781000Y-99441000D01*
X146781000Y-99441000D02*
X146796000Y-99426000D01*
X148844000Y-99626000D02*
X149156000Y-99626000D01*
X149156000Y-99626000D02*
X149606000Y-100076000D01*
X154686000Y-98311263D02*
X154741360Y-98255903D01*
X154686000Y-98963000D02*
X154686000Y-98311263D01*
X152023001Y-98547999D02*
X152273000Y-98298000D01*
X149692600Y-100878400D02*
X152023001Y-98547999D01*
X149296400Y-100878400D02*
X149692600Y-100878400D01*
X148944000Y-100526000D02*
X149296400Y-100878400D01*
X148844000Y-100526000D02*
X148944000Y-100526000D01*
X169672000Y-103944000D02*
X170632400Y-103944000D01*
X171704000Y-103944000D02*
X172156400Y-103944000D01*
X172156400Y-103944000D02*
X173228000Y-103944000D01*
X170632400Y-103944000D02*
X171704000Y-103944000D01*
X174721600Y-103949500D02*
X175199000Y-103949500D01*
X174560498Y-104110602D02*
X174721600Y-103949500D01*
X173394602Y-104110602D02*
X174560498Y-104110602D01*
X173228000Y-103944000D02*
X173394602Y-104110602D01*
X177099000Y-103949500D02*
X175199000Y-103949500D01*
X131003000Y-98044000D02*
X130302000Y-98044000D01*
X130302000Y-98044000D02*
X130048000Y-98298000D01*
X143962546Y-102081158D02*
X143608993Y-102081158D01*
X146003512Y-102081158D02*
X143962546Y-102081158D01*
X146074271Y-102010399D02*
X146003512Y-102081158D01*
X146533729Y-102010399D02*
X146074271Y-102010399D01*
X146604488Y-102081158D02*
X146533729Y-102010399D01*
X150140842Y-102081158D02*
X146604488Y-102081158D01*
X151884000Y-100338000D02*
X150140842Y-102081158D01*
X152811000Y-100338000D02*
X151884000Y-100338000D01*
X137907734Y-96266000D02*
X141090527Y-99448793D01*
X134620000Y-96266000D02*
X137907734Y-96266000D01*
X173228000Y-104844000D02*
X173680400Y-104844000D01*
X173680400Y-104844000D02*
X174246406Y-105410006D01*
X174246406Y-105410006D02*
X175160447Y-105410006D01*
X175160447Y-105410006D02*
X175514000Y-105410006D01*
X172366447Y-103124004D02*
X172720000Y-103124004D01*
X171195996Y-103124004D02*
X172366447Y-103124004D01*
X170942000Y-103378000D02*
X171195996Y-103124004D01*
X177099000Y-104599500D02*
X176330217Y-104599500D01*
X176330217Y-104599500D02*
X176281327Y-104648390D01*
X175202000Y-90170000D02*
X175583000Y-89789000D01*
X175768000Y-89789000D02*
X175837000Y-89720000D01*
X175583000Y-89789000D02*
X175768000Y-89789000D01*
X175837000Y-89720000D02*
X176403000Y-89720000D01*
X170540609Y-91460399D02*
X170303007Y-91698001D01*
X173599999Y-91460399D02*
X170540609Y-91460399D01*
X174836000Y-92014000D02*
X174153600Y-92014000D01*
X170303007Y-91698001D02*
X170053008Y-91948000D01*
X174153600Y-92014000D02*
X173599999Y-91460399D01*
X175199000Y-102947100D02*
X176013504Y-102132596D01*
X175199000Y-103299500D02*
X175199000Y-102947100D01*
X176013504Y-102132596D02*
X176013504Y-99793752D01*
X176013504Y-99793752D02*
X175763505Y-99543753D01*
X175202000Y-91170600D02*
X175202000Y-90932000D01*
X175202000Y-90932000D02*
X175202000Y-90622400D01*
X174836000Y-92014000D02*
X174836000Y-91536600D01*
X174836000Y-91536600D02*
X175202000Y-91170600D01*
X175202000Y-90170000D02*
X175202000Y-90622400D01*
X139192000Y-99794553D02*
X139192000Y-99441000D01*
X138364000Y-100218000D02*
X138841400Y-100218000D01*
X138841400Y-100218000D02*
X139192000Y-99867400D01*
X139192000Y-99867400D02*
X139192000Y-99794553D01*
X138147605Y-97794743D02*
X137794052Y-97794743D01*
X139003515Y-98359484D02*
X138438774Y-97794743D01*
X138438774Y-97794743D02*
X138147605Y-97794743D01*
X132903000Y-98694000D02*
X133065601Y-98531399D01*
X133065601Y-98531399D02*
X134033399Y-98531399D01*
X134366000Y-98864000D02*
X134366000Y-99316400D01*
X134033399Y-98531399D02*
X134366000Y-98864000D01*
X134366000Y-99316400D02*
X134421600Y-99372000D01*
X134421600Y-99372000D02*
X134874000Y-99372000D01*
X137541000Y-99568000D02*
X138364000Y-99568000D01*
X136464000Y-99568000D02*
X137541000Y-99568000D01*
X137541000Y-99568000D02*
X137541000Y-98705671D01*
X137541000Y-98705671D02*
X137579459Y-98667212D01*
X135440000Y-99372000D02*
X135636000Y-99568000D01*
X135636000Y-99568000D02*
X136464000Y-99568000D01*
X134874000Y-99372000D02*
X135440000Y-99372000D01*
X136311853Y-102362000D02*
X136240796Y-102433057D01*
X136964000Y-102362000D02*
X136311853Y-102362000D01*
X136964000Y-101756287D02*
X136659484Y-101451771D01*
X136964000Y-102362000D02*
X136964000Y-101756287D01*
X136659484Y-101451771D02*
X136409485Y-101201772D01*
X155186000Y-98963000D02*
X155186000Y-98433000D01*
X152811000Y-101338000D02*
X152383600Y-101338000D01*
X152383600Y-101338000D02*
X152248600Y-101473000D01*
X152811000Y-100838000D02*
X152383600Y-100838000D01*
X152383600Y-100838000D02*
X152273000Y-100948600D01*
X168656000Y-104280400D02*
X168656000Y-103772400D01*
X168656000Y-103772400D02*
X168261600Y-103378000D01*
X169672000Y-104844000D02*
X169219600Y-104844000D01*
X169219600Y-104844000D02*
X168656000Y-104280400D01*
X168261600Y-103378000D02*
X166718400Y-103378000D01*
X166718400Y-103378000D02*
X165718400Y-104378000D01*
X165718400Y-104378000D02*
X165166000Y-104378000D01*
X172708000Y-102108000D02*
X173482000Y-102108000D01*
X156561000Y-100838000D02*
X156988400Y-100838000D01*
X156988400Y-100838000D02*
X157099000Y-100948600D01*
X127450000Y-103632000D02*
X129287000Y-103632000D01*
X129287000Y-103632000D02*
X129302000Y-103647000D01*
X127450000Y-104902000D02*
X127450000Y-103632000D01*
D43*
G36*
X134278300Y-88138000D02*
X134304310Y-88268763D01*
X134378382Y-88379618D01*
X134489237Y-88453690D01*
X134620000Y-88479700D01*
X139700000Y-88479700D01*
X139830763Y-88453690D01*
X139941618Y-88379618D01*
X140015690Y-88268763D01*
X140041700Y-88138000D01*
X140041700Y-86701700D01*
X191174300Y-86701700D01*
X191174300Y-90844300D01*
X189405167Y-90844300D01*
X189712547Y-90638915D01*
X189932940Y-90309074D01*
X190010332Y-89920000D01*
X189932940Y-89530926D01*
X189712547Y-89201085D01*
X189382706Y-88980692D01*
X188993632Y-88903300D01*
X187526368Y-88903300D01*
X187137294Y-88980692D01*
X186807453Y-89201085D01*
X186587060Y-89530926D01*
X186509668Y-89920000D01*
X186587060Y-90309074D01*
X186807453Y-90638915D01*
X187114833Y-90844300D01*
X180340000Y-90844300D01*
X180209237Y-90870310D01*
X180098382Y-90944382D01*
X180024310Y-91055237D01*
X179998300Y-91186000D01*
X179998300Y-101854000D01*
X180024310Y-101984763D01*
X180098382Y-102095618D01*
X180209237Y-102169690D01*
X180340000Y-102195700D01*
X180397556Y-102195700D01*
X180235437Y-102438328D01*
X180169463Y-102770000D01*
X180235437Y-103101672D01*
X180423314Y-103382849D01*
X180704491Y-103570726D01*
X181036163Y-103636700D01*
X181783837Y-103636700D01*
X182115509Y-103570726D01*
X182396686Y-103382849D01*
X182584563Y-103101672D01*
X182650537Y-102770000D01*
X182584563Y-102438328D01*
X182422444Y-102195700D01*
X186965173Y-102195700D01*
X186807453Y-102301085D01*
X186587060Y-102630926D01*
X186509668Y-103020000D01*
X186587060Y-103409074D01*
X186807453Y-103738915D01*
X187137294Y-103959308D01*
X187526368Y-104036700D01*
X188993632Y-104036700D01*
X189382706Y-103959308D01*
X189712547Y-103738915D01*
X189932940Y-103409074D01*
X190010332Y-103020000D01*
X189932940Y-102630926D01*
X189712547Y-102301085D01*
X189554827Y-102195700D01*
X191174300Y-102195700D01*
X191174300Y-106338300D01*
X140041700Y-106338300D01*
X140041700Y-104902000D01*
X140015690Y-104771237D01*
X139941618Y-104660382D01*
X139830763Y-104586310D01*
X139700000Y-104560300D01*
X134620000Y-104560300D01*
X134489237Y-104586310D01*
X134378382Y-104660382D01*
X134304310Y-104771237D01*
X134278300Y-104902000D01*
X134278300Y-106338300D01*
X127060543Y-106338300D01*
X121705750Y-104379229D01*
X125163202Y-104379229D01*
X125249295Y-104587590D01*
X125408571Y-104747144D01*
X125616782Y-104833601D01*
X125842229Y-104833798D01*
X126050590Y-104747705D01*
X126210144Y-104588429D01*
X126296601Y-104380218D01*
X126296764Y-104193143D01*
X126350000Y-104203924D01*
X126750000Y-104203924D01*
X126848833Y-104185327D01*
X126939605Y-104126917D01*
X127000500Y-104037794D01*
X127000656Y-104037023D01*
X127055083Y-104121605D01*
X127107100Y-104157147D01*
X127107100Y-104377029D01*
X127060395Y-104407083D01*
X126999500Y-104496206D01*
X126978076Y-104602000D01*
X126978076Y-105202000D01*
X126996673Y-105300833D01*
X127055083Y-105391605D01*
X127144206Y-105452500D01*
X127250000Y-105473924D01*
X127650000Y-105473924D01*
X127748833Y-105455327D01*
X127839605Y-105396917D01*
X127900500Y-105307794D01*
X127921924Y-105202000D01*
X127921924Y-104602000D01*
X127903327Y-104503167D01*
X127844917Y-104412395D01*
X127792900Y-104376853D01*
X127792900Y-104156971D01*
X127839605Y-104126917D01*
X127900500Y-104037794D01*
X127913236Y-103974900D01*
X128701290Y-103974900D01*
X128757083Y-104061605D01*
X128846206Y-104122500D01*
X128952000Y-104143924D01*
X129652000Y-104143924D01*
X129750833Y-104125327D01*
X129841605Y-104066917D01*
X129902500Y-103977794D01*
X129923924Y-103872000D01*
X129923924Y-103422000D01*
X129908476Y-103339900D01*
X130710942Y-103339900D01*
X130757083Y-103411605D01*
X130846206Y-103472500D01*
X130952000Y-103493924D01*
X130959100Y-103493924D01*
X130959100Y-104394966D01*
X130714739Y-104639327D01*
X130580673Y-104639210D01*
X130390695Y-104717707D01*
X130245218Y-104862931D01*
X130166390Y-105052771D01*
X130166210Y-105258327D01*
X130244707Y-105448305D01*
X130389931Y-105593782D01*
X130579771Y-105672610D01*
X130785327Y-105672790D01*
X130975305Y-105594293D01*
X131120782Y-105449069D01*
X131199610Y-105259229D01*
X131199728Y-105124206D01*
X131544467Y-104779467D01*
X131618798Y-104668222D01*
X131644900Y-104537000D01*
X131644900Y-104115327D01*
X137786210Y-104115327D01*
X137864707Y-104305305D01*
X138009931Y-104450782D01*
X138199771Y-104529610D01*
X138405327Y-104529790D01*
X138595305Y-104451293D01*
X138740782Y-104306069D01*
X138819610Y-104116229D01*
X138819728Y-103981206D01*
X140085115Y-102715819D01*
X140168931Y-102799782D01*
X140358771Y-102878610D01*
X140470702Y-102878708D01*
X140470702Y-103094602D01*
X140496804Y-103225824D01*
X140571135Y-103337069D01*
X141166533Y-103932467D01*
X141277778Y-104006798D01*
X141409000Y-104032900D01*
X141969029Y-104032900D01*
X141999083Y-104079605D01*
X142088206Y-104140500D01*
X142194000Y-104161924D01*
X142794000Y-104161924D01*
X142892833Y-104143327D01*
X142983605Y-104084917D01*
X143019147Y-104032900D01*
X143301732Y-104032900D01*
X143247390Y-104163771D01*
X143247210Y-104369327D01*
X143325707Y-104559305D01*
X143470931Y-104704782D01*
X143660771Y-104783610D01*
X143866327Y-104783790D01*
X144056305Y-104705293D01*
X144201782Y-104560069D01*
X144280610Y-104370229D01*
X144280728Y-104235206D01*
X144541034Y-103974900D01*
X151272678Y-103974900D01*
X151198399Y-104153782D01*
X151198202Y-104379229D01*
X151284295Y-104587590D01*
X151443571Y-104747144D01*
X151651782Y-104833601D01*
X151877229Y-104833798D01*
X152085590Y-104747705D01*
X152172747Y-104660700D01*
X152174396Y-104660700D01*
X152209083Y-104714605D01*
X152298206Y-104775500D01*
X152404000Y-104796924D01*
X152904000Y-104796924D01*
X153002833Y-104778327D01*
X153093605Y-104719917D01*
X153154500Y-104630794D01*
X153156949Y-104618700D01*
X153673707Y-104618700D01*
X153674673Y-104623833D01*
X153733083Y-104714605D01*
X153822206Y-104775500D01*
X153928000Y-104796924D01*
X154428000Y-104796924D01*
X154526833Y-104778327D01*
X154617605Y-104719917D01*
X154678500Y-104630794D01*
X154699924Y-104525000D01*
X154699924Y-103925000D01*
X154681327Y-103826167D01*
X154622917Y-103735395D01*
X154571700Y-103700400D01*
X154571700Y-103511034D01*
X155189133Y-104128467D01*
X155300378Y-104202798D01*
X155431600Y-104228900D01*
X155822214Y-104228900D01*
X155916931Y-104323782D01*
X156106771Y-104402610D01*
X156312327Y-104402790D01*
X156502305Y-104324293D01*
X156647782Y-104179069D01*
X156726610Y-103989229D01*
X156726720Y-103863854D01*
X157079100Y-104216234D01*
X157079100Y-104631029D01*
X157032395Y-104661083D01*
X156971500Y-104750206D01*
X156950076Y-104856000D01*
X156950076Y-105456000D01*
X156968673Y-105554833D01*
X157027083Y-105645605D01*
X157116206Y-105706500D01*
X157222000Y-105727924D01*
X157622000Y-105727924D01*
X157720833Y-105709327D01*
X157811605Y-105650917D01*
X157872500Y-105561794D01*
X157893924Y-105456000D01*
X157893924Y-104856000D01*
X157875327Y-104757167D01*
X157816917Y-104666395D01*
X157764900Y-104630853D01*
X157764900Y-104074200D01*
X157738798Y-103942978D01*
X157728791Y-103928000D01*
X164494076Y-103928000D01*
X164494076Y-104828000D01*
X164512673Y-104926833D01*
X164571083Y-105017605D01*
X164660206Y-105078500D01*
X164766000Y-105099924D01*
X165566000Y-105099924D01*
X165664833Y-105081327D01*
X165755605Y-105022917D01*
X165816500Y-104933794D01*
X165837924Y-104828000D01*
X165837924Y-104697125D01*
X165849622Y-104694798D01*
X165960867Y-104620467D01*
X166860434Y-103720900D01*
X168119566Y-103720900D01*
X168313100Y-103914434D01*
X168313100Y-104280400D01*
X168339202Y-104411622D01*
X168413533Y-104522867D01*
X168977133Y-105086467D01*
X169088378Y-105160798D01*
X169136377Y-105170346D01*
X169177083Y-105233605D01*
X169266206Y-105294500D01*
X169372000Y-105315924D01*
X169972000Y-105315924D01*
X170070833Y-105297327D01*
X170161605Y-105238917D01*
X170222500Y-105149794D01*
X170243924Y-105044000D01*
X170243924Y-104644000D01*
X170225327Y-104545167D01*
X170166917Y-104454395D01*
X170077794Y-104393500D01*
X170077023Y-104393344D01*
X170161605Y-104338917D01*
X170197147Y-104286900D01*
X171179029Y-104286900D01*
X171209083Y-104333605D01*
X171298206Y-104394500D01*
X171404000Y-104415924D01*
X172004000Y-104415924D01*
X172102833Y-104397327D01*
X172193605Y-104338917D01*
X172229147Y-104286900D01*
X172703029Y-104286900D01*
X172733083Y-104333605D01*
X172822206Y-104394500D01*
X172822977Y-104394656D01*
X172738395Y-104449083D01*
X172677500Y-104538206D01*
X172656076Y-104644000D01*
X172656076Y-105044000D01*
X172674673Y-105142833D01*
X172733083Y-105233605D01*
X172822206Y-105294500D01*
X172928000Y-105315924D01*
X173528000Y-105315924D01*
X173626833Y-105297327D01*
X173640195Y-105288729D01*
X174003939Y-105652473D01*
X174115184Y-105726804D01*
X174246406Y-105752906D01*
X175126214Y-105752906D01*
X175220931Y-105847788D01*
X175410771Y-105926616D01*
X175616327Y-105926796D01*
X175806305Y-105848299D01*
X175951782Y-105703075D01*
X176030610Y-105513235D01*
X176030790Y-105307679D01*
X175952293Y-105117701D01*
X175807069Y-104972224D01*
X175617229Y-104893396D01*
X175411673Y-104893216D01*
X175221695Y-104971713D01*
X175126136Y-105067106D01*
X174388440Y-105067106D01*
X173922867Y-104601533D01*
X173811622Y-104527202D01*
X173763623Y-104517654D01*
X173722917Y-104454395D01*
X173721610Y-104453502D01*
X174560498Y-104453502D01*
X174691720Y-104427400D01*
X174750665Y-104388015D01*
X174768206Y-104400000D01*
X174874000Y-104421424D01*
X175524000Y-104421424D01*
X175622833Y-104402827D01*
X175713605Y-104344417D01*
X175749147Y-104292400D01*
X175906576Y-104292400D01*
X175843545Y-104355321D01*
X175764717Y-104545161D01*
X175764537Y-104750717D01*
X175843034Y-104940695D01*
X175988258Y-105086172D01*
X176178098Y-105165000D01*
X176383654Y-105165180D01*
X176573632Y-105086683D01*
X176633876Y-105026544D01*
X176668206Y-105050000D01*
X176774000Y-105071424D01*
X177424000Y-105071424D01*
X177522833Y-105052827D01*
X177613605Y-104994417D01*
X177674500Y-104905294D01*
X177695924Y-104799500D01*
X177695924Y-104399500D01*
X177677327Y-104300667D01*
X177660920Y-104275169D01*
X177674500Y-104255294D01*
X177695924Y-104149500D01*
X177695924Y-103749500D01*
X177677327Y-103650667D01*
X177618917Y-103559895D01*
X177529794Y-103499000D01*
X177424000Y-103477576D01*
X176774000Y-103477576D01*
X176675167Y-103496173D01*
X176584395Y-103554583D01*
X176548853Y-103606600D01*
X175773608Y-103606600D01*
X175774500Y-103605294D01*
X175795924Y-103499500D01*
X175795924Y-103099500D01*
X175777327Y-103000667D01*
X175719787Y-102911247D01*
X176255971Y-102375063D01*
X176330302Y-102263818D01*
X176356404Y-102132596D01*
X176356404Y-99793752D01*
X176330302Y-99662530D01*
X176280167Y-99587497D01*
X176280295Y-99441426D01*
X176201798Y-99251448D01*
X176127144Y-99176664D01*
X176172771Y-99195610D01*
X176378327Y-99195790D01*
X176568305Y-99117293D01*
X176713782Y-98972069D01*
X176792610Y-98782229D01*
X176792790Y-98576673D01*
X176714293Y-98386695D01*
X176569069Y-98241218D01*
X176379229Y-98162390D01*
X176173673Y-98162210D01*
X175983695Y-98240707D01*
X175879598Y-98344623D01*
X175791225Y-98362202D01*
X175780700Y-98369235D01*
X175780700Y-93472000D01*
X175762461Y-93375066D01*
X175738772Y-93338252D01*
X175791663Y-93327731D01*
X175919388Y-93242388D01*
X176046388Y-93115388D01*
X176131731Y-92987663D01*
X176134373Y-92974380D01*
X176142000Y-92975924D01*
X176148300Y-92975924D01*
X176148300Y-93230000D01*
X176178269Y-93380663D01*
X176263612Y-93508388D01*
X176275463Y-93520239D01*
X176252395Y-93535083D01*
X176191500Y-93624206D01*
X176170076Y-93730000D01*
X176170076Y-94230000D01*
X176188673Y-94328833D01*
X176247083Y-94419605D01*
X176336206Y-94480500D01*
X176348300Y-94482949D01*
X176348300Y-96256000D01*
X176378269Y-96406663D01*
X176463612Y-96534388D01*
X177527612Y-97598388D01*
X177655337Y-97683731D01*
X177793300Y-97711174D01*
X177793300Y-97898734D01*
X177863080Y-98249540D01*
X178061795Y-98546939D01*
X178359194Y-98745654D01*
X178710000Y-98815434D01*
X179060806Y-98745654D01*
X179358205Y-98546939D01*
X179556920Y-98249540D01*
X179626700Y-97898734D01*
X179626700Y-96741266D01*
X179556920Y-96390460D01*
X179358205Y-96093061D01*
X179060806Y-95894346D01*
X178710000Y-95824566D01*
X178359194Y-95894346D01*
X178061795Y-96093061D01*
X177863080Y-96390460D01*
X177793300Y-96741266D01*
X177793300Y-96750524D01*
X177135700Y-96092924D01*
X177135700Y-94484293D01*
X177140833Y-94483327D01*
X177231605Y-94424917D01*
X177292500Y-94335794D01*
X177313924Y-94230000D01*
X177313924Y-93730000D01*
X177295327Y-93631167D01*
X177236917Y-93540395D01*
X177147794Y-93479500D01*
X177135700Y-93477051D01*
X177135700Y-93430000D01*
X177105731Y-93279338D01*
X177020388Y-93151612D01*
X176935700Y-93066924D01*
X176935700Y-92975924D01*
X176942000Y-92975924D01*
X177040833Y-92957327D01*
X177131605Y-92898917D01*
X177192500Y-92809794D01*
X177213924Y-92704000D01*
X177213924Y-91954000D01*
X177195327Y-91855167D01*
X177136917Y-91764395D01*
X177047794Y-91703500D01*
X176942000Y-91682076D01*
X176745900Y-91682076D01*
X176745900Y-91083852D01*
X176801833Y-91073327D01*
X176892605Y-91014917D01*
X176953500Y-90925794D01*
X176974924Y-90820000D01*
X176974924Y-90420000D01*
X176956327Y-90321167D01*
X176897917Y-90230395D01*
X176808794Y-90169500D01*
X176808023Y-90169344D01*
X176892605Y-90114917D01*
X176953500Y-90025794D01*
X176974924Y-89920000D01*
X176974924Y-89520000D01*
X176956327Y-89421167D01*
X176897917Y-89330395D01*
X176808794Y-89269500D01*
X176703000Y-89248076D01*
X176103000Y-89248076D01*
X176004167Y-89266673D01*
X175913395Y-89325083D01*
X175877853Y-89377100D01*
X175837000Y-89377100D01*
X175705778Y-89403202D01*
X175641576Y-89446100D01*
X175583000Y-89446100D01*
X175451778Y-89472202D01*
X175340533Y-89546533D01*
X175288990Y-89598076D01*
X175002000Y-89598076D01*
X174903167Y-89616673D01*
X174812395Y-89675083D01*
X174751500Y-89764206D01*
X174730076Y-89870000D01*
X174730076Y-90470000D01*
X174748673Y-90568833D01*
X174807083Y-90659605D01*
X174859100Y-90695147D01*
X174859100Y-91028566D01*
X174593533Y-91294133D01*
X174519202Y-91405378D01*
X174516875Y-91417076D01*
X174306000Y-91417076D01*
X174207167Y-91435673D01*
X174117747Y-91493213D01*
X173842466Y-91217932D01*
X173731221Y-91143601D01*
X173599999Y-91117499D01*
X170540609Y-91117499D01*
X170409387Y-91143601D01*
X170298142Y-91217932D01*
X170084747Y-91431327D01*
X169950681Y-91431210D01*
X169760703Y-91509707D01*
X169615226Y-91654931D01*
X169536398Y-91844771D01*
X169536218Y-92050327D01*
X169614715Y-92240305D01*
X169759939Y-92385782D01*
X169949779Y-92464610D01*
X170155335Y-92464790D01*
X170345313Y-92386293D01*
X170490790Y-92241069D01*
X170569618Y-92051229D01*
X170569736Y-91916206D01*
X170682643Y-91803299D01*
X171490767Y-91803299D01*
X170084739Y-93209327D01*
X169950673Y-93209210D01*
X169760695Y-93287707D01*
X169615218Y-93432931D01*
X169536390Y-93622771D01*
X169536210Y-93828327D01*
X169614707Y-94018305D01*
X169759931Y-94163782D01*
X169949771Y-94242610D01*
X170155327Y-94242790D01*
X170345305Y-94164293D01*
X170490782Y-94019069D01*
X170569610Y-93829229D01*
X170569728Y-93694206D01*
X171848465Y-92415469D01*
X171852673Y-92437833D01*
X171911083Y-92528605D01*
X172000206Y-92589500D01*
X172106000Y-92610924D01*
X173166000Y-92610924D01*
X173264833Y-92592327D01*
X173355605Y-92533917D01*
X173416500Y-92444794D01*
X173437924Y-92339000D01*
X173437924Y-91803299D01*
X173457965Y-91803299D01*
X173911133Y-92256467D01*
X174022378Y-92330798D01*
X174034076Y-92333125D01*
X174034076Y-92339000D01*
X174052673Y-92437833D01*
X174085650Y-92489080D01*
X174055500Y-92533206D01*
X174034076Y-92639000D01*
X174034076Y-93205300D01*
X173990000Y-93205300D01*
X173893066Y-93223539D01*
X173804038Y-93280827D01*
X173744312Y-93368239D01*
X173723300Y-93472000D01*
X173723300Y-94993766D01*
X173228666Y-94499132D01*
X173264833Y-94492327D01*
X173355605Y-94433917D01*
X173416500Y-94344794D01*
X173437924Y-94239000D01*
X173437924Y-93589000D01*
X173419327Y-93490167D01*
X173360917Y-93399395D01*
X173271794Y-93338500D01*
X173166000Y-93317076D01*
X172106000Y-93317076D01*
X172007167Y-93335673D01*
X171916395Y-93394083D01*
X171855500Y-93483206D01*
X171834076Y-93589000D01*
X171834076Y-94239000D01*
X171852673Y-94337833D01*
X171911083Y-94428605D01*
X172000206Y-94489500D01*
X172106000Y-94510924D01*
X172316875Y-94510924D01*
X172319202Y-94522622D01*
X172393533Y-94633867D01*
X173139100Y-95379434D01*
X173139100Y-96640220D01*
X173044218Y-96734937D01*
X172965390Y-96924777D01*
X172965210Y-97130333D01*
X173022630Y-97269300D01*
X165354000Y-97269300D01*
X165257066Y-97287539D01*
X165168038Y-97344827D01*
X165108312Y-97432239D01*
X165087300Y-97536000D01*
X165087300Y-102870000D01*
X165105539Y-102966934D01*
X165162827Y-103055962D01*
X165250239Y-103115688D01*
X165354000Y-103136700D01*
X166474766Y-103136700D01*
X165804829Y-103806637D01*
X165760917Y-103738395D01*
X165671794Y-103677500D01*
X165566000Y-103656076D01*
X164766000Y-103656076D01*
X164667167Y-103674673D01*
X164576395Y-103733083D01*
X164515500Y-103822206D01*
X164494076Y-103928000D01*
X157728791Y-103928000D01*
X157664467Y-103831733D01*
X156607924Y-102775190D01*
X156607924Y-102759924D01*
X156836200Y-102759924D01*
X156935033Y-102741327D01*
X157025805Y-102682917D01*
X157078428Y-102605900D01*
X157947692Y-102605900D01*
X157963206Y-102616500D01*
X157963977Y-102616656D01*
X157879395Y-102671083D01*
X157818500Y-102760206D01*
X157797076Y-102866000D01*
X157797076Y-103266000D01*
X157815673Y-103364833D01*
X157874083Y-103455605D01*
X157963206Y-103516500D01*
X158069000Y-103537924D01*
X158384148Y-103537924D01*
X158644612Y-103798388D01*
X158772337Y-103883731D01*
X158923000Y-103913700D01*
X159212000Y-103913700D01*
X159362663Y-103883731D01*
X159490388Y-103798388D01*
X159750852Y-103537924D01*
X160066000Y-103537924D01*
X160164833Y-103519327D01*
X160255605Y-103460917D01*
X160256437Y-103459700D01*
X160459000Y-103459700D01*
X160609663Y-103429731D01*
X160737388Y-103344388D01*
X161026085Y-103055691D01*
X161148229Y-103055798D01*
X161356590Y-102969705D01*
X161516144Y-102810429D01*
X161602601Y-102602218D01*
X161602798Y-102376771D01*
X161516705Y-102168410D01*
X161357429Y-102008856D01*
X161149218Y-101922399D01*
X160923771Y-101922202D01*
X160715410Y-102008295D01*
X160555856Y-102167571D01*
X160469399Y-102375782D01*
X160469291Y-102498933D01*
X160295924Y-102672300D01*
X160254924Y-102672300D01*
X160171794Y-102615500D01*
X160171023Y-102615344D01*
X160255605Y-102560917D01*
X160316500Y-102471794D01*
X160337924Y-102366000D01*
X160337924Y-101966000D01*
X160319327Y-101867167D01*
X160260917Y-101776395D01*
X160171794Y-101715500D01*
X160066000Y-101694076D01*
X159725676Y-101694076D01*
X159774610Y-101576229D01*
X159774790Y-101370673D01*
X159696293Y-101180695D01*
X159551069Y-101035218D01*
X159361229Y-100956390D01*
X159196345Y-100956246D01*
X159175011Y-100941991D01*
X159043789Y-100915889D01*
X158688575Y-100915889D01*
X158593858Y-100821007D01*
X158404018Y-100742179D01*
X158208688Y-100742008D01*
X158208688Y-99947976D01*
X158182586Y-99816754D01*
X158132451Y-99741721D01*
X158132579Y-99595650D01*
X158054082Y-99405672D01*
X157908858Y-99260195D01*
X157807576Y-99218139D01*
X157827587Y-99169946D01*
X157827767Y-98964390D01*
X157749270Y-98774412D01*
X157604046Y-98628935D01*
X157443787Y-98562390D01*
X157481203Y-98472282D01*
X157481383Y-98266726D01*
X157402886Y-98076748D01*
X157257662Y-97931271D01*
X157067822Y-97852443D01*
X156862266Y-97852263D01*
X156672288Y-97930760D01*
X156576729Y-98026153D01*
X156392947Y-98026153D01*
X156261725Y-98052255D01*
X156150480Y-98126586D01*
X155988575Y-98288491D01*
X155928467Y-98198533D01*
X155817222Y-98124202D01*
X155686000Y-98098100D01*
X155554778Y-98124202D01*
X155443533Y-98198533D01*
X155438673Y-98205807D01*
X155428467Y-98190533D01*
X155317222Y-98116202D01*
X155236035Y-98100053D01*
X155179653Y-97963598D01*
X155053581Y-97837306D01*
X155080782Y-97848601D01*
X155306229Y-97848798D01*
X155514590Y-97762705D01*
X155674144Y-97603429D01*
X155760601Y-97395218D01*
X155760798Y-97169771D01*
X155674705Y-96961410D01*
X155587700Y-96874253D01*
X155587700Y-96732000D01*
X155557731Y-96581338D01*
X155483133Y-96469693D01*
X157209968Y-96469693D01*
X157288465Y-96659671D01*
X157433689Y-96805148D01*
X157542464Y-96850315D01*
X157542289Y-97049912D01*
X157620786Y-97239890D01*
X157766010Y-97385367D01*
X157955850Y-97464195D01*
X157989577Y-97464225D01*
X157975300Y-97536000D01*
X157975300Y-98171000D01*
X158005269Y-98321663D01*
X158090612Y-98449388D01*
X158598612Y-98957388D01*
X158726338Y-99042731D01*
X158877000Y-99072700D01*
X158945544Y-99072700D01*
X158975083Y-99118605D01*
X159064206Y-99179500D01*
X159076300Y-99181949D01*
X159076300Y-99317707D01*
X159071167Y-99318673D01*
X158980395Y-99377083D01*
X158919500Y-99466206D01*
X158898076Y-99572000D01*
X158898076Y-100072000D01*
X158916673Y-100170833D01*
X158975083Y-100261605D01*
X159064206Y-100322500D01*
X159076300Y-100324949D01*
X159076300Y-100458264D01*
X159106269Y-100608927D01*
X159191612Y-100736652D01*
X159317348Y-100862388D01*
X159445074Y-100947731D01*
X159595736Y-100977700D01*
X159612278Y-100977700D01*
X159698571Y-101064144D01*
X159906782Y-101150601D01*
X160132229Y-101150798D01*
X160340590Y-101064705D01*
X160500144Y-100905429D01*
X160586601Y-100697218D01*
X160586798Y-100471771D01*
X160500705Y-100263410D01*
X160341429Y-100103856D01*
X160133218Y-100017399D01*
X160041924Y-100017319D01*
X160041924Y-99572000D01*
X160023327Y-99473167D01*
X159964917Y-99382395D01*
X159875794Y-99321500D01*
X159863700Y-99319051D01*
X159863700Y-99183293D01*
X159868833Y-99182327D01*
X159899913Y-99162327D01*
X161535210Y-99162327D01*
X161613707Y-99352305D01*
X161758931Y-99497782D01*
X161948771Y-99576610D01*
X162154327Y-99576790D01*
X162292076Y-99519873D01*
X162292076Y-99614000D01*
X162310673Y-99712833D01*
X162369083Y-99803605D01*
X162458206Y-99864500D01*
X162458977Y-99864656D01*
X162374395Y-99919083D01*
X162313500Y-100008206D01*
X162292076Y-100114000D01*
X162292076Y-100714000D01*
X162310673Y-100812833D01*
X162369083Y-100903605D01*
X162458206Y-100964500D01*
X162564000Y-100985924D01*
X162689142Y-100985924D01*
X162571533Y-101103533D01*
X162497202Y-101214778D01*
X162489377Y-101254118D01*
X162465167Y-101258673D01*
X162374395Y-101317083D01*
X162313500Y-101406206D01*
X162292076Y-101512000D01*
X162292076Y-102112000D01*
X162310673Y-102210833D01*
X162369083Y-102301605D01*
X162458206Y-102362500D01*
X162458977Y-102362656D01*
X162374395Y-102417083D01*
X162313500Y-102506206D01*
X162292076Y-102612000D01*
X162292076Y-103212000D01*
X162310673Y-103310833D01*
X162369083Y-103401605D01*
X162458206Y-103462500D01*
X162564000Y-103483924D01*
X163064000Y-103483924D01*
X163162833Y-103465327D01*
X163253605Y-103406917D01*
X163314500Y-103317794D01*
X163329219Y-103245110D01*
X163411222Y-103228798D01*
X163522467Y-103154467D01*
X163818467Y-102858467D01*
X163892798Y-102747222D01*
X163918900Y-102616000D01*
X163918900Y-102241786D01*
X164013782Y-102147069D01*
X164092610Y-101957229D01*
X164092790Y-101751673D01*
X164014293Y-101561695D01*
X163925725Y-101472973D01*
X164013782Y-101385069D01*
X164092610Y-101195229D01*
X164092790Y-100989673D01*
X164014293Y-100799695D01*
X163925725Y-100710973D01*
X164013782Y-100623069D01*
X164092610Y-100433229D01*
X164092790Y-100227673D01*
X164014293Y-100037695D01*
X163980518Y-100003862D01*
X164013782Y-99970656D01*
X164092610Y-99780816D01*
X164092790Y-99575260D01*
X164014293Y-99385282D01*
X163869069Y-99239805D01*
X163679229Y-99160977D01*
X163548196Y-99160862D01*
X163458867Y-99071533D01*
X163347622Y-98997202D01*
X163332185Y-98994131D01*
X163325293Y-98957501D01*
X163485952Y-98957501D01*
X163617174Y-98931399D01*
X163728419Y-98857068D01*
X163814466Y-98771021D01*
X163888797Y-98659776D01*
X163906402Y-98571269D01*
X164009781Y-98468070D01*
X164088609Y-98278230D01*
X164088789Y-98072674D01*
X164010292Y-97882696D01*
X163865068Y-97737219D01*
X163675228Y-97658391D01*
X163469672Y-97658211D01*
X163279694Y-97736708D01*
X163134217Y-97881932D01*
X163055389Y-98071772D01*
X163055214Y-98271701D01*
X162497399Y-98271701D01*
X162366177Y-98297803D01*
X162254932Y-98372134D01*
X162083739Y-98543327D01*
X161949673Y-98543210D01*
X161759695Y-98621707D01*
X161614218Y-98766931D01*
X161535390Y-98956771D01*
X161535210Y-99162327D01*
X159899913Y-99162327D01*
X159959605Y-99123917D01*
X160020500Y-99034794D01*
X160041924Y-98929000D01*
X160041924Y-98429000D01*
X160023327Y-98330167D01*
X159964917Y-98239395D01*
X159875794Y-98178500D01*
X159770000Y-98157076D01*
X159170000Y-98157076D01*
X159071167Y-98175673D01*
X158985545Y-98230769D01*
X158762700Y-98007924D01*
X158762700Y-97751900D01*
X161281222Y-97751900D01*
X161281210Y-97765327D01*
X161359707Y-97955305D01*
X161504931Y-98100782D01*
X161694771Y-98179610D01*
X161900327Y-98179790D01*
X162090305Y-98101293D01*
X162235782Y-97956069D01*
X162314610Y-97766229D01*
X162314790Y-97560673D01*
X162236293Y-97370695D01*
X162223737Y-97358117D01*
X162308831Y-97375044D01*
X162310673Y-97384833D01*
X162369083Y-97475605D01*
X162458206Y-97536500D01*
X162564000Y-97557924D01*
X163064000Y-97557924D01*
X163162833Y-97539327D01*
X163237644Y-97491188D01*
X163254571Y-97508144D01*
X163462782Y-97594601D01*
X163688229Y-97594798D01*
X163896590Y-97508705D01*
X164056144Y-97349429D01*
X164142601Y-97141218D01*
X164142798Y-96915771D01*
X164056705Y-96707410D01*
X163961111Y-96611649D01*
X164013782Y-96559069D01*
X164092610Y-96369229D01*
X164092790Y-96163673D01*
X164014293Y-95973695D01*
X163869069Y-95828218D01*
X163679229Y-95749390D01*
X163473673Y-95749210D01*
X163392989Y-95782548D01*
X163006575Y-95782548D01*
X162911858Y-95687666D01*
X162722018Y-95608838D01*
X162516462Y-95608658D01*
X162326484Y-95687155D01*
X162181007Y-95832379D01*
X162102179Y-96022219D01*
X162102012Y-96213137D01*
X162016902Y-96156269D01*
X161866239Y-96126300D01*
X161715576Y-96156269D01*
X161684400Y-96177100D01*
X161632900Y-96177100D01*
X161632900Y-95377000D01*
X161626820Y-95344689D01*
X161607724Y-95315013D01*
X161578587Y-95295104D01*
X161544000Y-95288100D01*
X158714676Y-95288100D01*
X158732388Y-95270388D01*
X158817731Y-95142663D01*
X158847639Y-94992304D01*
X158852833Y-94991327D01*
X158943605Y-94932917D01*
X159004500Y-94843794D01*
X159025924Y-94738000D01*
X159025924Y-94336327D01*
X163821210Y-94336327D01*
X163899707Y-94526305D01*
X164044931Y-94671782D01*
X164149178Y-94715069D01*
X164075390Y-94892771D01*
X164075210Y-95098327D01*
X164153707Y-95288305D01*
X164298931Y-95433782D01*
X164488771Y-95512610D01*
X164633870Y-95512737D01*
X164714778Y-95566798D01*
X164846000Y-95592900D01*
X165329148Y-95592900D01*
X165339673Y-95648833D01*
X165398083Y-95739605D01*
X165487206Y-95800500D01*
X165593000Y-95821924D01*
X165993000Y-95821924D01*
X166091833Y-95803327D01*
X166182605Y-95744917D01*
X166243500Y-95655794D01*
X166264924Y-95550000D01*
X166264924Y-94950000D01*
X166246327Y-94851167D01*
X166187917Y-94760395D01*
X166098794Y-94699500D01*
X165993000Y-94678076D01*
X165593000Y-94678076D01*
X165494167Y-94696673D01*
X165403395Y-94755083D01*
X165342500Y-94844206D01*
X165329764Y-94907100D01*
X165108778Y-94907100D01*
X165108790Y-94893673D01*
X165030293Y-94703695D01*
X164903719Y-94576900D01*
X165439000Y-94576900D01*
X165570222Y-94550798D01*
X165643368Y-94501924D01*
X165993000Y-94501924D01*
X166091833Y-94483327D01*
X166182605Y-94424917D01*
X166243500Y-94335794D01*
X166264924Y-94230000D01*
X166264924Y-93730000D01*
X166246327Y-93631167D01*
X166187917Y-93540395D01*
X166098794Y-93479500D01*
X165993000Y-93458076D01*
X165393000Y-93458076D01*
X165294167Y-93476673D01*
X165203395Y-93535083D01*
X165142500Y-93624206D01*
X165121076Y-93730000D01*
X165121076Y-93891100D01*
X164725786Y-93891100D01*
X164631069Y-93796218D01*
X164441229Y-93717390D01*
X164235673Y-93717210D01*
X164045695Y-93795707D01*
X163900218Y-93940931D01*
X163821390Y-94130771D01*
X163821210Y-94336327D01*
X159025924Y-94336327D01*
X159025924Y-94238000D01*
X159007327Y-94139167D01*
X158948917Y-94048395D01*
X158859794Y-93987500D01*
X158754000Y-93966076D01*
X158154000Y-93966076D01*
X158055167Y-93984673D01*
X157964395Y-94043083D01*
X157903500Y-94132206D01*
X157882076Y-94238000D01*
X157882076Y-94738000D01*
X157900673Y-94836833D01*
X157959083Y-94927605D01*
X157960590Y-94928634D01*
X157621612Y-95267612D01*
X157536269Y-95395337D01*
X157515111Y-95501706D01*
X157506300Y-95546000D01*
X157506300Y-95791908D01*
X157526055Y-95891224D01*
X157434453Y-95929073D01*
X157288976Y-96074297D01*
X157210148Y-96264137D01*
X157209968Y-96469693D01*
X155483133Y-96469693D01*
X155472388Y-96453612D01*
X155045924Y-96027148D01*
X155045924Y-95762000D01*
X155027327Y-95663167D01*
X154968917Y-95572395D01*
X154879794Y-95511500D01*
X154774000Y-95490076D01*
X154174000Y-95490076D01*
X154075167Y-95508673D01*
X153984395Y-95567083D01*
X153923500Y-95656206D01*
X153902076Y-95762000D01*
X153902076Y-96262000D01*
X153920673Y-96360833D01*
X153979083Y-96451605D01*
X154068206Y-96512500D01*
X154080300Y-96514949D01*
X154080300Y-97031707D01*
X154075167Y-97032673D01*
X153984395Y-97091083D01*
X153923500Y-97180206D01*
X153902076Y-97286000D01*
X153902076Y-97553897D01*
X153822269Y-97673337D01*
X153803424Y-97768076D01*
X153792300Y-97824000D01*
X153792300Y-98572254D01*
X153785500Y-98582206D01*
X153764076Y-98688000D01*
X153764076Y-99225100D01*
X153600411Y-99225100D01*
X153607924Y-99188000D01*
X153607924Y-98687800D01*
X153589327Y-98588967D01*
X153530917Y-98498195D01*
X153520018Y-98490748D01*
X153502798Y-98404178D01*
X153428467Y-98292933D01*
X153091692Y-97956158D01*
X153091782Y-97956069D01*
X153170610Y-97766229D01*
X153170790Y-97560673D01*
X153092293Y-97370695D01*
X152947069Y-97225218D01*
X152757229Y-97146390D01*
X152551673Y-97146210D01*
X152361695Y-97224707D01*
X152216218Y-97369931D01*
X152137390Y-97559771D01*
X152137210Y-97765327D01*
X152147696Y-97790704D01*
X151980695Y-97859707D01*
X151835218Y-98004931D01*
X151756390Y-98194771D01*
X151756272Y-98329794D01*
X150757688Y-99328378D01*
X150757790Y-99211673D01*
X150679293Y-99021695D01*
X150671996Y-99014385D01*
X151372467Y-98313914D01*
X151446798Y-98202669D01*
X151472900Y-98071447D01*
X151472900Y-95646034D01*
X153026705Y-94092229D01*
X154373202Y-94092229D01*
X154459295Y-94300590D01*
X154618571Y-94460144D01*
X154826782Y-94546601D01*
X155052229Y-94546798D01*
X155260590Y-94460705D01*
X155347747Y-94373700D01*
X155426396Y-94373700D01*
X155461083Y-94427605D01*
X155550206Y-94488500D01*
X155550977Y-94488656D01*
X155466395Y-94543083D01*
X155405500Y-94632206D01*
X155384076Y-94738000D01*
X155384076Y-95023817D01*
X155282695Y-95065707D01*
X155137218Y-95210931D01*
X155058390Y-95400771D01*
X155058210Y-95606327D01*
X155136707Y-95796305D01*
X155281931Y-95941782D01*
X155471771Y-96020610D01*
X155606794Y-96020728D01*
X155709580Y-96123514D01*
X155820825Y-96197845D01*
X155952047Y-96223947D01*
X156818392Y-96223947D01*
X156949614Y-96197845D01*
X157060859Y-96123514D01*
X157341467Y-95842906D01*
X157415798Y-95731661D01*
X157441900Y-95600439D01*
X157441900Y-95084720D01*
X157488610Y-94972229D01*
X157488790Y-94766673D01*
X157410293Y-94576695D01*
X157265069Y-94431218D01*
X157261287Y-94429647D01*
X157966268Y-93724666D01*
X157981535Y-93714465D01*
X158375673Y-93320327D01*
X164075210Y-93320327D01*
X164153707Y-93510305D01*
X164298931Y-93655782D01*
X164488771Y-93734610D01*
X164694327Y-93734790D01*
X164884305Y-93656293D01*
X165029782Y-93511069D01*
X165108610Y-93321229D01*
X165108728Y-93186206D01*
X165177428Y-93117506D01*
X165198083Y-93149605D01*
X165287206Y-93210500D01*
X165393000Y-93231924D01*
X165993000Y-93231924D01*
X166091833Y-93213327D01*
X166182605Y-93154917D01*
X166243500Y-93065794D01*
X166264924Y-92960000D01*
X166264924Y-92460000D01*
X166246327Y-92361167D01*
X166187917Y-92270395D01*
X166098794Y-92209500D01*
X165993000Y-92188076D01*
X165393000Y-92188076D01*
X165294167Y-92206673D01*
X165203395Y-92265083D01*
X165142500Y-92354206D01*
X165139889Y-92367100D01*
X165100000Y-92367100D01*
X164968778Y-92393202D01*
X164857533Y-92467533D01*
X164623739Y-92701327D01*
X164489673Y-92701210D01*
X164299695Y-92779707D01*
X164154218Y-92924931D01*
X164075390Y-93114771D01*
X164075210Y-93320327D01*
X158375673Y-93320327D01*
X158770100Y-92925900D01*
X159996000Y-92925900D01*
X160127222Y-92899798D01*
X160238467Y-92825467D01*
X160312798Y-92714222D01*
X160338900Y-92583000D01*
X160338900Y-92347852D01*
X160394833Y-92337327D01*
X160485605Y-92278917D01*
X160546500Y-92189794D01*
X160567924Y-92084000D01*
X160567924Y-90534000D01*
X160549327Y-90435167D01*
X160490917Y-90344395D01*
X160401794Y-90283500D01*
X160296000Y-90262076D01*
X159696000Y-90262076D01*
X159597167Y-90280673D01*
X159506395Y-90339083D01*
X159496664Y-90353325D01*
X159490917Y-90344395D01*
X159401794Y-90283500D01*
X159296000Y-90262076D01*
X158696000Y-90262076D01*
X158597167Y-90280673D01*
X158506395Y-90339083D01*
X158496664Y-90353325D01*
X158490917Y-90344395D01*
X158401794Y-90283500D01*
X158296000Y-90262076D01*
X157696000Y-90262076D01*
X157597167Y-90280673D01*
X157506395Y-90339083D01*
X157445500Y-90428206D01*
X157424076Y-90534000D01*
X157424076Y-91870990D01*
X157185967Y-92109099D01*
X155456782Y-92109099D01*
X155456790Y-92099673D01*
X155378293Y-91909695D01*
X155233069Y-91764218D01*
X155043229Y-91685390D01*
X154837673Y-91685210D01*
X154647695Y-91763707D01*
X154502218Y-91908931D01*
X154423390Y-92098771D01*
X154423210Y-92304327D01*
X154501707Y-92494305D01*
X154646931Y-92639782D01*
X154836771Y-92718610D01*
X154983859Y-92718739D01*
X155058777Y-92768797D01*
X155189999Y-92794899D01*
X157328001Y-92794899D01*
X157459223Y-92768797D01*
X157570468Y-92694466D01*
X157909010Y-92355924D01*
X157939142Y-92355924D01*
X157470777Y-92824289D01*
X157120520Y-92824289D01*
X156989298Y-92850391D01*
X156878053Y-92924722D01*
X156652151Y-93150624D01*
X156518085Y-93150507D01*
X156328107Y-93229004D01*
X156182630Y-93374228D01*
X156103802Y-93564068D01*
X156103800Y-93566076D01*
X155656000Y-93566076D01*
X155557167Y-93584673D01*
X155554639Y-93586300D01*
X155347722Y-93586300D01*
X155261429Y-93499856D01*
X155053218Y-93413399D01*
X154827771Y-93413202D01*
X154619410Y-93499295D01*
X154459856Y-93658571D01*
X154373399Y-93866782D01*
X154373202Y-94092229D01*
X153026705Y-94092229D01*
X153130261Y-93988673D01*
X153264327Y-93988790D01*
X153454305Y-93910293D01*
X153599782Y-93765069D01*
X153678610Y-93575229D01*
X153678790Y-93369673D01*
X153600293Y-93179695D01*
X153455069Y-93034218D01*
X153265229Y-92955390D01*
X153059673Y-92955210D01*
X152869695Y-93033707D01*
X152724218Y-93178931D01*
X152645390Y-93368771D01*
X152645272Y-93503794D01*
X150887533Y-95261533D01*
X150813202Y-95372778D01*
X150787100Y-95504000D01*
X150787100Y-97929413D01*
X149998533Y-98717980D01*
X149924202Y-98829225D01*
X149906597Y-98917732D01*
X149803218Y-99020931D01*
X149724390Y-99210771D01*
X149724210Y-99416327D01*
X149798667Y-99596528D01*
X149709229Y-99559390D01*
X149574206Y-99559272D01*
X149410127Y-99395193D01*
X149397327Y-99327167D01*
X149338917Y-99236395D01*
X149249794Y-99175500D01*
X149144000Y-99154076D01*
X148544000Y-99154076D01*
X148445167Y-99172673D01*
X148354395Y-99231083D01*
X148293500Y-99320206D01*
X148272076Y-99426000D01*
X148272076Y-99826000D01*
X148290673Y-99924833D01*
X148349083Y-100015605D01*
X148438206Y-100076500D01*
X148438977Y-100076656D01*
X148354395Y-100131083D01*
X148293500Y-100220206D01*
X148272076Y-100326000D01*
X148272076Y-100726000D01*
X148290673Y-100824833D01*
X148349083Y-100915605D01*
X148438206Y-100976500D01*
X148544000Y-100997924D01*
X148930990Y-100997924D01*
X148936166Y-101003100D01*
X144922034Y-101003100D01*
X144915673Y-100996739D01*
X144915790Y-100862673D01*
X144837293Y-100672695D01*
X144737696Y-100572924D01*
X145146000Y-100572924D01*
X145244833Y-100554327D01*
X145335605Y-100495917D01*
X145396500Y-100406794D01*
X145417924Y-100301000D01*
X145417924Y-99851000D01*
X145399327Y-99752167D01*
X145340917Y-99661395D01*
X145251794Y-99600500D01*
X145189700Y-99587926D01*
X145189700Y-99223076D01*
X145213076Y-99199700D01*
X145463722Y-99199700D01*
X145406390Y-99337771D01*
X145406210Y-99543327D01*
X145484707Y-99733305D01*
X145629931Y-99878782D01*
X145819771Y-99957610D01*
X146025327Y-99957790D01*
X146215305Y-99879293D01*
X146252851Y-99841813D01*
X146340206Y-99901500D01*
X146446000Y-99922924D01*
X147146000Y-99922924D01*
X147244833Y-99904327D01*
X147335605Y-99845917D01*
X147396500Y-99756794D01*
X147417924Y-99651000D01*
X147417924Y-99201000D01*
X147399327Y-99102167D01*
X147370855Y-99057921D01*
X147598388Y-98830388D01*
X147683731Y-98702663D01*
X147713700Y-98552000D01*
X147713700Y-98235924D01*
X149020000Y-98235924D01*
X149118833Y-98217327D01*
X149209605Y-98158917D01*
X149270500Y-98069794D01*
X149291924Y-97964000D01*
X149291924Y-96664000D01*
X149273327Y-96565167D01*
X149214917Y-96474395D01*
X149125794Y-96413500D01*
X149020000Y-96392076D01*
X145620000Y-96392076D01*
X145521167Y-96410673D01*
X145430395Y-96469083D01*
X145369500Y-96558206D01*
X145348076Y-96664000D01*
X145348076Y-97964000D01*
X145366673Y-98062833D01*
X145425083Y-98153605D01*
X145514206Y-98214500D01*
X145620000Y-98235924D01*
X146926300Y-98235924D01*
X146926300Y-98388924D01*
X146902924Y-98412300D01*
X145169712Y-98412300D01*
X145169790Y-98322673D01*
X145091293Y-98132695D01*
X144946069Y-97987218D01*
X144756229Y-97908390D01*
X144611130Y-97908263D01*
X144530222Y-97854202D01*
X144399000Y-97828100D01*
X142881786Y-97828100D01*
X142787069Y-97733218D01*
X142597229Y-97654390D01*
X142391673Y-97654210D01*
X142201695Y-97732707D01*
X142056218Y-97877931D01*
X141977390Y-98067771D01*
X141977210Y-98273327D01*
X142055707Y-98463305D01*
X142200931Y-98608782D01*
X142343819Y-98668114D01*
X142258395Y-98723083D01*
X142197500Y-98812206D01*
X142176076Y-98918000D01*
X142176076Y-99318000D01*
X142194673Y-99416833D01*
X142253083Y-99507605D01*
X142342206Y-99568500D01*
X142342977Y-99568656D01*
X142258395Y-99623083D01*
X142197500Y-99712206D01*
X142176076Y-99818000D01*
X142176076Y-100218000D01*
X142194673Y-100316833D01*
X142253083Y-100407605D01*
X142326655Y-100457874D01*
X142267856Y-100516571D01*
X142181399Y-100724782D01*
X142181202Y-100950229D01*
X142267295Y-101158590D01*
X142426571Y-101318144D01*
X142634782Y-101404601D01*
X142860229Y-101404798D01*
X143068590Y-101318705D01*
X143228144Y-101159429D01*
X143314601Y-100951218D01*
X143314798Y-100725771D01*
X143228705Y-100517410D01*
X143168673Y-100457273D01*
X143237605Y-100412917D01*
X143298500Y-100323794D01*
X143319924Y-100218000D01*
X143319924Y-99818000D01*
X143301327Y-99719167D01*
X143242917Y-99628395D01*
X143153794Y-99567500D01*
X143153023Y-99567344D01*
X143237605Y-99512917D01*
X143238437Y-99511700D01*
X144317000Y-99511700D01*
X144402300Y-99494733D01*
X144402300Y-99587299D01*
X144347167Y-99597673D01*
X144256395Y-99656083D01*
X144195500Y-99745206D01*
X144174076Y-99851000D01*
X144174076Y-100301000D01*
X144192673Y-100399833D01*
X144239108Y-100471995D01*
X144106695Y-100526707D01*
X143961218Y-100671931D01*
X143882390Y-100861771D01*
X143882333Y-100926902D01*
X143788673Y-100926820D01*
X143598695Y-101005317D01*
X143453218Y-101150541D01*
X143374390Y-101340381D01*
X143374210Y-101545937D01*
X143400031Y-101608429D01*
X143316688Y-101642865D01*
X143171211Y-101788089D01*
X143092383Y-101977929D01*
X143092203Y-102183485D01*
X143170700Y-102373463D01*
X143315924Y-102518940D01*
X143505764Y-102597768D01*
X143711320Y-102597948D01*
X143901298Y-102519451D01*
X143996857Y-102424058D01*
X145787356Y-102424058D01*
X145787210Y-102591327D01*
X145823633Y-102679478D01*
X144146488Y-102679478D01*
X144015266Y-102705580D01*
X143908229Y-102777099D01*
X141867782Y-102777099D01*
X141867790Y-102767673D01*
X141789293Y-102577695D01*
X141674906Y-102463109D01*
X141762810Y-102426788D01*
X141908287Y-102281564D01*
X141987115Y-102091724D01*
X141987295Y-101886168D01*
X141908798Y-101696190D01*
X141813405Y-101600631D01*
X141813405Y-101465505D01*
X141787303Y-101334283D01*
X141712972Y-101223038D01*
X140831467Y-100341533D01*
X140720222Y-100267202D01*
X140589000Y-100241100D01*
X140108447Y-100241100D01*
X139977225Y-100267202D01*
X139865980Y-100341533D01*
X138441533Y-101765980D01*
X138367202Y-101877225D01*
X138349597Y-101965732D01*
X138246218Y-102068931D01*
X138167390Y-102258771D01*
X138167210Y-102464327D01*
X138245707Y-102654305D01*
X138390931Y-102799782D01*
X138580771Y-102878610D01*
X138786327Y-102878790D01*
X138976305Y-102800293D01*
X139121782Y-102655069D01*
X139200610Y-102465229D01*
X139200790Y-102259673D01*
X139122293Y-102069695D01*
X139114996Y-102062385D01*
X139929244Y-101248137D01*
X139988083Y-101390539D01*
X140133307Y-101536016D01*
X140323147Y-101614844D01*
X140458170Y-101614962D01*
X140597702Y-101754494D01*
X140597702Y-101858874D01*
X140565229Y-101845390D01*
X140359673Y-101845210D01*
X140169695Y-101923707D01*
X140074136Y-102019100D01*
X139954000Y-102019100D01*
X139822778Y-102045202D01*
X139711533Y-102119533D01*
X138334739Y-103496327D01*
X138200673Y-103496210D01*
X138010695Y-103574707D01*
X137865218Y-103719931D01*
X137786390Y-103909771D01*
X137786210Y-104115327D01*
X131644900Y-104115327D01*
X131644900Y-103493924D01*
X131652000Y-103493924D01*
X131750833Y-103475327D01*
X131841605Y-103416917D01*
X131902500Y-103327794D01*
X131923924Y-103222000D01*
X131923924Y-102772000D01*
X131905327Y-102673167D01*
X131846917Y-102582395D01*
X131778114Y-102535384D01*
X135724006Y-102535384D01*
X135802503Y-102725362D01*
X135947727Y-102870839D01*
X136137567Y-102949667D01*
X136343123Y-102949847D01*
X136533101Y-102871350D01*
X136562746Y-102841757D01*
X136569083Y-102851605D01*
X136658206Y-102912500D01*
X136764000Y-102933924D01*
X137164000Y-102933924D01*
X137262833Y-102915327D01*
X137353605Y-102856917D01*
X137414500Y-102767794D01*
X137435924Y-102662000D01*
X137435924Y-102062000D01*
X137417327Y-101963167D01*
X137358917Y-101872395D01*
X137306900Y-101836853D01*
X137306900Y-101756287D01*
X137280798Y-101625065D01*
X137206467Y-101513820D01*
X136926158Y-101233511D01*
X136926275Y-101099445D01*
X136847778Y-100909467D01*
X136702554Y-100763990D01*
X136512714Y-100685162D01*
X136307158Y-100684982D01*
X136117180Y-100763479D01*
X135971703Y-100908703D01*
X135892875Y-101098543D01*
X135892695Y-101304099D01*
X135971192Y-101494077D01*
X136116416Y-101639554D01*
X136306256Y-101718382D01*
X136441279Y-101718500D01*
X136583806Y-101861027D01*
X136574395Y-101867083D01*
X136513500Y-101956206D01*
X136507782Y-101984444D01*
X136344025Y-101916447D01*
X136138469Y-101916267D01*
X135948491Y-101994764D01*
X135803014Y-102139988D01*
X135724186Y-102329828D01*
X135724006Y-102535384D01*
X131778114Y-102535384D01*
X131757794Y-102521500D01*
X131652000Y-102500076D01*
X131644900Y-102500076D01*
X131644900Y-100996034D01*
X131794261Y-100846673D01*
X131928327Y-100846790D01*
X132118305Y-100768293D01*
X132263782Y-100623069D01*
X132342610Y-100433229D01*
X132342790Y-100227673D01*
X132264293Y-100037695D01*
X132119069Y-99892218D01*
X131929229Y-99813390D01*
X131723673Y-99813210D01*
X131533695Y-99891707D01*
X131388218Y-100036931D01*
X131309390Y-100226771D01*
X131309272Y-100361794D01*
X131059533Y-100611533D01*
X130985202Y-100722778D01*
X130959100Y-100854000D01*
X130959100Y-102500076D01*
X130952000Y-102500076D01*
X130853167Y-102518673D01*
X130762395Y-102577083D01*
X130709772Y-102654100D01*
X128920034Y-102654100D01*
X128739900Y-102473966D01*
X128739900Y-102368786D01*
X128834782Y-102274069D01*
X128913610Y-102084229D01*
X128913790Y-101878673D01*
X128835293Y-101688695D01*
X128690069Y-101543218D01*
X128500229Y-101464390D01*
X128294673Y-101464210D01*
X128104695Y-101542707D01*
X127959218Y-101687931D01*
X127880390Y-101877771D01*
X127880210Y-102083327D01*
X127958707Y-102273305D01*
X128054100Y-102368864D01*
X128054100Y-102616000D01*
X128080202Y-102747222D01*
X128154533Y-102858467D01*
X128535533Y-103239467D01*
X128609815Y-103289100D01*
X127913852Y-103289100D01*
X127903327Y-103233167D01*
X127844917Y-103142395D01*
X127755794Y-103081500D01*
X127650000Y-103060076D01*
X127250000Y-103060076D01*
X127151167Y-103078673D01*
X127060395Y-103137083D01*
X126999500Y-103226206D01*
X126999344Y-103226977D01*
X126944917Y-103142395D01*
X126855794Y-103081500D01*
X126750000Y-103060076D01*
X126350000Y-103060076D01*
X126251167Y-103078673D01*
X126160395Y-103137083D01*
X126099500Y-103226206D01*
X126078076Y-103332000D01*
X126078076Y-103433990D01*
X125811695Y-103700371D01*
X125617771Y-103700202D01*
X125409410Y-103786295D01*
X125249856Y-103945571D01*
X125163399Y-104153782D01*
X125163202Y-104379229D01*
X121705750Y-104379229D01*
X116927700Y-102631162D01*
X116927700Y-99909700D01*
X129286000Y-99909700D01*
X129416763Y-99883690D01*
X129527618Y-99809618D01*
X129601690Y-99698763D01*
X129627700Y-99568000D01*
X129627700Y-98608329D01*
X129754931Y-98735782D01*
X129944771Y-98814610D01*
X130150327Y-98814790D01*
X130340305Y-98736293D01*
X130485782Y-98591069D01*
X130536119Y-98469843D01*
X130572206Y-98494500D01*
X130678000Y-98515924D01*
X131328000Y-98515924D01*
X131426833Y-98497327D01*
X131517605Y-98438917D01*
X131578500Y-98349794D01*
X131599924Y-98244000D01*
X131599924Y-97844000D01*
X131581327Y-97745167D01*
X131564920Y-97719669D01*
X131578500Y-97699794D01*
X131599924Y-97594000D01*
X131599924Y-97194000D01*
X131581327Y-97095167D01*
X131522917Y-97004395D01*
X131433794Y-96943500D01*
X131328000Y-96922076D01*
X130678000Y-96922076D01*
X130579167Y-96940673D01*
X130488395Y-96999083D01*
X130452853Y-97051100D01*
X130302034Y-97051100D01*
X130136900Y-96885966D01*
X130136900Y-95479327D01*
X130166210Y-95479327D01*
X130244707Y-95669305D01*
X130389931Y-95814782D01*
X130579771Y-95893610D01*
X130785327Y-95893790D01*
X130975305Y-95815293D01*
X131120782Y-95670069D01*
X131199610Y-95480229D01*
X131199623Y-95465900D01*
X136712616Y-95465900D01*
X136807333Y-95560782D01*
X136926467Y-95610251D01*
X136926318Y-95780480D01*
X136985247Y-95923100D01*
X135007786Y-95923100D01*
X134913069Y-95828218D01*
X134723229Y-95749390D01*
X134517673Y-95749210D01*
X134327695Y-95827707D01*
X134182218Y-95972931D01*
X134103390Y-96162771D01*
X134103210Y-96368327D01*
X134181707Y-96558305D01*
X134326931Y-96703782D01*
X134516771Y-96782610D01*
X134722327Y-96782790D01*
X134912305Y-96704293D01*
X135007864Y-96608900D01*
X136014592Y-96608900D01*
X136005500Y-96622206D01*
X135984076Y-96728000D01*
X135984076Y-97328000D01*
X136002673Y-97426833D01*
X136061083Y-97517605D01*
X136121100Y-97558613D01*
X136121100Y-98449444D01*
X136040167Y-98464673D01*
X135949395Y-98523083D01*
X135913853Y-98575100D01*
X135794034Y-98575100D01*
X135445924Y-98226990D01*
X135445924Y-98040000D01*
X135427327Y-97941167D01*
X135368917Y-97850395D01*
X135279794Y-97789500D01*
X135174000Y-97768076D01*
X134870395Y-97768076D01*
X134809222Y-97727202D01*
X134678000Y-97701100D01*
X133452971Y-97701100D01*
X133422917Y-97654395D01*
X133333794Y-97593500D01*
X133228000Y-97572076D01*
X132578000Y-97572076D01*
X132479167Y-97590673D01*
X132388395Y-97649083D01*
X132327500Y-97738206D01*
X132306076Y-97844000D01*
X132306076Y-98244000D01*
X132324673Y-98342833D01*
X132341080Y-98368331D01*
X132327500Y-98388206D01*
X132306076Y-98494000D01*
X132306076Y-98894000D01*
X132324673Y-98992833D01*
X132383083Y-99083605D01*
X132472206Y-99144500D01*
X132578000Y-99165924D01*
X133228000Y-99165924D01*
X133326833Y-99147327D01*
X133417605Y-99088917D01*
X133478500Y-98999794D01*
X133499924Y-98894000D01*
X133499924Y-98874299D01*
X133891365Y-98874299D01*
X134023100Y-99006034D01*
X134023100Y-99316400D01*
X134049202Y-99447622D01*
X134123533Y-99558867D01*
X134179133Y-99614467D01*
X134290378Y-99688798D01*
X134338377Y-99698346D01*
X134379083Y-99761605D01*
X134468206Y-99822500D01*
X134574000Y-99843924D01*
X135174000Y-99843924D01*
X135272833Y-99825327D01*
X135355316Y-99772250D01*
X135393533Y-99810467D01*
X135504778Y-99884798D01*
X135636000Y-99910900D01*
X135914029Y-99910900D01*
X135944083Y-99957605D01*
X136033206Y-100018500D01*
X136139000Y-100039924D01*
X136789000Y-100039924D01*
X136887833Y-100021327D01*
X136978605Y-99962917D01*
X137014147Y-99910900D01*
X137789392Y-99910900D01*
X137788500Y-99912206D01*
X137767076Y-100018000D01*
X137767076Y-100418000D01*
X137785673Y-100516833D01*
X137844083Y-100607605D01*
X137933206Y-100668500D01*
X138039000Y-100689924D01*
X138689000Y-100689924D01*
X138787833Y-100671327D01*
X138878605Y-100612917D01*
X138925589Y-100544154D01*
X138972622Y-100534798D01*
X139083867Y-100460467D01*
X139434467Y-100109867D01*
X139508798Y-99998622D01*
X139534900Y-99867400D01*
X139534900Y-99828786D01*
X139629782Y-99734069D01*
X139708610Y-99544229D01*
X139708790Y-99338673D01*
X139630293Y-99148695D01*
X139485069Y-99003218D01*
X139295229Y-98924390D01*
X139089673Y-98924210D01*
X138899695Y-99002707D01*
X138786404Y-99115801D01*
X138689000Y-99096076D01*
X138039000Y-99096076D01*
X137940167Y-99114673D01*
X137883900Y-99150880D01*
X137883900Y-99093390D01*
X138017241Y-98960281D01*
X138096069Y-98770441D01*
X138096249Y-98564885D01*
X138017752Y-98374907D01*
X137937519Y-98294534D01*
X138086357Y-98233036D01*
X138181916Y-98137643D01*
X138296740Y-98137643D01*
X138486842Y-98327745D01*
X138486725Y-98461811D01*
X138565222Y-98651789D01*
X138710446Y-98797266D01*
X138900286Y-98876094D01*
X139105842Y-98876274D01*
X139295820Y-98797777D01*
X139441297Y-98652553D01*
X139520125Y-98462713D01*
X139520212Y-98363412D01*
X140573854Y-99417054D01*
X140573737Y-99551120D01*
X140652234Y-99741098D01*
X140797458Y-99886575D01*
X140987298Y-99965403D01*
X141192854Y-99965583D01*
X141382832Y-99887086D01*
X141528309Y-99741862D01*
X141607137Y-99552022D01*
X141607214Y-99463718D01*
X141609717Y-99463720D01*
X141799695Y-99385223D01*
X141945172Y-99239999D01*
X142024000Y-99050159D01*
X142024180Y-98844603D01*
X141945683Y-98654625D01*
X141800459Y-98509148D01*
X141610619Y-98430320D01*
X141441517Y-98430172D01*
X141534782Y-98337069D01*
X141613610Y-98147229D01*
X141613790Y-97941673D01*
X141535293Y-97751695D01*
X141439900Y-97656136D01*
X141439900Y-96898600D01*
X141413798Y-96767378D01*
X141339467Y-96656133D01*
X139378867Y-94695533D01*
X139267622Y-94621202D01*
X139219623Y-94611654D01*
X139178917Y-94548395D01*
X139089794Y-94487500D01*
X139089023Y-94487344D01*
X139173605Y-94432917D01*
X139174437Y-94431700D01*
X140692518Y-94431700D01*
X140743295Y-94554590D01*
X140902571Y-94714144D01*
X141110782Y-94800601D01*
X141336229Y-94800798D01*
X141544590Y-94714705D01*
X141704144Y-94555429D01*
X141790601Y-94347218D01*
X141790798Y-94121771D01*
X141704705Y-93913410D01*
X141545429Y-93753856D01*
X141337218Y-93667399D01*
X141143273Y-93667230D01*
X141028000Y-93644300D01*
X139172924Y-93644300D01*
X139089794Y-93587500D01*
X138984000Y-93566076D01*
X138384000Y-93566076D01*
X138285167Y-93584673D01*
X138194395Y-93643083D01*
X138133500Y-93732206D01*
X138112076Y-93838000D01*
X138112076Y-93880452D01*
X138025229Y-93844390D01*
X137819673Y-93844210D01*
X137629695Y-93922707D01*
X137484218Y-94067931D01*
X137405390Y-94257771D01*
X137405366Y-94284969D01*
X137340670Y-94272100D01*
X136157924Y-94272100D01*
X136157924Y-93764000D01*
X136139327Y-93665167D01*
X136080917Y-93574395D01*
X135991794Y-93513500D01*
X135886000Y-93492076D01*
X135386000Y-93492076D01*
X135287167Y-93510673D01*
X135196395Y-93569083D01*
X135146208Y-93642535D01*
X135100705Y-93532410D01*
X134941429Y-93372856D01*
X134733218Y-93286399D01*
X134507771Y-93286202D01*
X134299410Y-93372295D01*
X134139856Y-93531571D01*
X134053399Y-93739782D01*
X134053202Y-93965229D01*
X134139295Y-94173590D01*
X134234889Y-94269351D01*
X134182218Y-94321931D01*
X134103390Y-94511771D01*
X134103210Y-94717327D01*
X134129147Y-94780100D01*
X130937000Y-94780100D01*
X130805778Y-94806202D01*
X130724760Y-94860336D01*
X130580673Y-94860210D01*
X130390695Y-94938707D01*
X130245218Y-95083931D01*
X130166390Y-95273771D01*
X130166210Y-95479327D01*
X130136900Y-95479327D01*
X130136900Y-92215400D01*
X130127793Y-92169616D01*
X130175500Y-92099794D01*
X130175656Y-92099023D01*
X130230083Y-92183605D01*
X130319206Y-92244500D01*
X130425000Y-92265924D01*
X130825000Y-92265924D01*
X130923833Y-92247327D01*
X131014605Y-92188917D01*
X131075500Y-92099794D01*
X131077949Y-92087700D01*
X132334000Y-92087700D01*
X132484663Y-92057731D01*
X132561072Y-92006676D01*
X132700229Y-92006798D01*
X132908590Y-91920705D01*
X133068144Y-91761429D01*
X133154601Y-91553218D01*
X133154798Y-91327771D01*
X133068705Y-91119410D01*
X132909429Y-90959856D01*
X132701218Y-90873399D01*
X132475771Y-90873202D01*
X132267410Y-90959295D01*
X132107856Y-91118571D01*
X132032395Y-91300300D01*
X131079293Y-91300300D01*
X131078327Y-91295167D01*
X131019917Y-91204395D01*
X130930794Y-91143500D01*
X130825000Y-91122076D01*
X130425000Y-91122076D01*
X130326167Y-91140673D01*
X130235395Y-91199083D01*
X130174500Y-91288206D01*
X130174344Y-91288977D01*
X130119917Y-91204395D01*
X130047700Y-91155052D01*
X130104782Y-91098069D01*
X130183610Y-90908229D01*
X130183790Y-90702673D01*
X130105293Y-90512695D01*
X129960069Y-90367218D01*
X129770229Y-90288390D01*
X129564673Y-90288210D01*
X129374695Y-90366707D01*
X129229218Y-90511931D01*
X129150390Y-90701771D01*
X129150210Y-90907327D01*
X129228707Y-91097305D01*
X129324100Y-91192864D01*
X129324100Y-91215614D01*
X129274500Y-91288206D01*
X129253076Y-91394000D01*
X129253076Y-91994000D01*
X129271673Y-92092833D01*
X129330083Y-92183605D01*
X129398846Y-92230589D01*
X129408202Y-92277622D01*
X129451100Y-92341824D01*
X129451100Y-93179254D01*
X129416763Y-93156310D01*
X129286000Y-93130300D01*
X116927700Y-93130300D01*
X116927700Y-90408838D01*
X120772163Y-89002327D01*
X140199210Y-89002327D01*
X140277707Y-89192305D01*
X140422931Y-89337782D01*
X140612771Y-89416610D01*
X140818327Y-89416790D01*
X141008305Y-89338293D01*
X141103864Y-89242900D01*
X142478966Y-89242900D01*
X146188533Y-92952467D01*
X146299778Y-93026798D01*
X146431000Y-93052900D01*
X146551214Y-93052900D01*
X146645931Y-93147782D01*
X146835771Y-93226610D01*
X147041327Y-93226790D01*
X147231305Y-93148293D01*
X147376782Y-93003069D01*
X147455610Y-92813229D01*
X147455790Y-92607673D01*
X147377293Y-92417695D01*
X147232069Y-92272218D01*
X147042229Y-92193390D01*
X146836673Y-92193210D01*
X146646695Y-92271707D01*
X146562094Y-92356160D01*
X142863467Y-88657533D01*
X142752222Y-88583202D01*
X142621000Y-88557100D01*
X141103786Y-88557100D01*
X141009069Y-88462218D01*
X140819229Y-88383390D01*
X140613673Y-88383210D01*
X140423695Y-88461707D01*
X140278218Y-88606931D01*
X140199390Y-88796771D01*
X140199210Y-89002327D01*
X120772163Y-89002327D01*
X127060543Y-86701700D01*
X134278300Y-86701700D01*
X134278300Y-88138000D01*
X134278300Y-88138000D01*
G37*
X134278300Y-88138000D02*
X134304310Y-88268763D01*
X134378382Y-88379618D01*
X134489237Y-88453690D01*
X134620000Y-88479700D01*
X139700000Y-88479700D01*
X139830763Y-88453690D01*
X139941618Y-88379618D01*
X140015690Y-88268763D01*
X140041700Y-88138000D01*
X140041700Y-86701700D01*
X191174300Y-86701700D01*
X191174300Y-90844300D01*
X189405167Y-90844300D01*
X189712547Y-90638915D01*
X189932940Y-90309074D01*
X190010332Y-89920000D01*
X189932940Y-89530926D01*
X189712547Y-89201085D01*
X189382706Y-88980692D01*
X188993632Y-88903300D01*
X187526368Y-88903300D01*
X187137294Y-88980692D01*
X186807453Y-89201085D01*
X186587060Y-89530926D01*
X186509668Y-89920000D01*
X186587060Y-90309074D01*
X186807453Y-90638915D01*
X187114833Y-90844300D01*
X180340000Y-90844300D01*
X180209237Y-90870310D01*
X180098382Y-90944382D01*
X180024310Y-91055237D01*
X179998300Y-91186000D01*
X179998300Y-101854000D01*
X180024310Y-101984763D01*
X180098382Y-102095618D01*
X180209237Y-102169690D01*
X180340000Y-102195700D01*
X180397556Y-102195700D01*
X180235437Y-102438328D01*
X180169463Y-102770000D01*
X180235437Y-103101672D01*
X180423314Y-103382849D01*
X180704491Y-103570726D01*
X181036163Y-103636700D01*
X181783837Y-103636700D01*
X182115509Y-103570726D01*
X182396686Y-103382849D01*
X182584563Y-103101672D01*
X182650537Y-102770000D01*
X182584563Y-102438328D01*
X182422444Y-102195700D01*
X186965173Y-102195700D01*
X186807453Y-102301085D01*
X186587060Y-102630926D01*
X186509668Y-103020000D01*
X186587060Y-103409074D01*
X186807453Y-103738915D01*
X187137294Y-103959308D01*
X187526368Y-104036700D01*
X188993632Y-104036700D01*
X189382706Y-103959308D01*
X189712547Y-103738915D01*
X189932940Y-103409074D01*
X190010332Y-103020000D01*
X189932940Y-102630926D01*
X189712547Y-102301085D01*
X189554827Y-102195700D01*
X191174300Y-102195700D01*
X191174300Y-106338300D01*
X140041700Y-106338300D01*
X140041700Y-104902000D01*
X140015690Y-104771237D01*
X139941618Y-104660382D01*
X139830763Y-104586310D01*
X139700000Y-104560300D01*
X134620000Y-104560300D01*
X134489237Y-104586310D01*
X134378382Y-104660382D01*
X134304310Y-104771237D01*
X134278300Y-104902000D01*
X134278300Y-106338300D01*
X127060543Y-106338300D01*
X121705750Y-104379229D01*
X125163202Y-104379229D01*
X125249295Y-104587590D01*
X125408571Y-104747144D01*
X125616782Y-104833601D01*
X125842229Y-104833798D01*
X126050590Y-104747705D01*
X126210144Y-104588429D01*
X126296601Y-104380218D01*
X126296764Y-104193143D01*
X126350000Y-104203924D01*
X126750000Y-104203924D01*
X126848833Y-104185327D01*
X126939605Y-104126917D01*
X127000500Y-104037794D01*
X127000656Y-104037023D01*
X127055083Y-104121605D01*
X127107100Y-104157147D01*
X127107100Y-104377029D01*
X127060395Y-104407083D01*
X126999500Y-104496206D01*
X126978076Y-104602000D01*
X126978076Y-105202000D01*
X126996673Y-105300833D01*
X127055083Y-105391605D01*
X127144206Y-105452500D01*
X127250000Y-105473924D01*
X127650000Y-105473924D01*
X127748833Y-105455327D01*
X127839605Y-105396917D01*
X127900500Y-105307794D01*
X127921924Y-105202000D01*
X127921924Y-104602000D01*
X127903327Y-104503167D01*
X127844917Y-104412395D01*
X127792900Y-104376853D01*
X127792900Y-104156971D01*
X127839605Y-104126917D01*
X127900500Y-104037794D01*
X127913236Y-103974900D01*
X128701290Y-103974900D01*
X128757083Y-104061605D01*
X128846206Y-104122500D01*
X128952000Y-104143924D01*
X129652000Y-104143924D01*
X129750833Y-104125327D01*
X129841605Y-104066917D01*
X129902500Y-103977794D01*
X129923924Y-103872000D01*
X129923924Y-103422000D01*
X129908476Y-103339900D01*
X130710942Y-103339900D01*
X130757083Y-103411605D01*
X130846206Y-103472500D01*
X130952000Y-103493924D01*
X130959100Y-103493924D01*
X130959100Y-104394966D01*
X130714739Y-104639327D01*
X130580673Y-104639210D01*
X130390695Y-104717707D01*
X130245218Y-104862931D01*
X130166390Y-105052771D01*
X130166210Y-105258327D01*
X130244707Y-105448305D01*
X130389931Y-105593782D01*
X130579771Y-105672610D01*
X130785327Y-105672790D01*
X130975305Y-105594293D01*
X131120782Y-105449069D01*
X131199610Y-105259229D01*
X131199728Y-105124206D01*
X131544467Y-104779467D01*
X131618798Y-104668222D01*
X131644900Y-104537000D01*
X131644900Y-104115327D01*
X137786210Y-104115327D01*
X137864707Y-104305305D01*
X138009931Y-104450782D01*
X138199771Y-104529610D01*
X138405327Y-104529790D01*
X138595305Y-104451293D01*
X138740782Y-104306069D01*
X138819610Y-104116229D01*
X138819728Y-103981206D01*
X140085115Y-102715819D01*
X140168931Y-102799782D01*
X140358771Y-102878610D01*
X140470702Y-102878708D01*
X140470702Y-103094602D01*
X140496804Y-103225824D01*
X140571135Y-103337069D01*
X141166533Y-103932467D01*
X141277778Y-104006798D01*
X141409000Y-104032900D01*
X141969029Y-104032900D01*
X141999083Y-104079605D01*
X142088206Y-104140500D01*
X142194000Y-104161924D01*
X142794000Y-104161924D01*
X142892833Y-104143327D01*
X142983605Y-104084917D01*
X143019147Y-104032900D01*
X143301732Y-104032900D01*
X143247390Y-104163771D01*
X143247210Y-104369327D01*
X143325707Y-104559305D01*
X143470931Y-104704782D01*
X143660771Y-104783610D01*
X143866327Y-104783790D01*
X144056305Y-104705293D01*
X144201782Y-104560069D01*
X144280610Y-104370229D01*
X144280728Y-104235206D01*
X144541034Y-103974900D01*
X151272678Y-103974900D01*
X151198399Y-104153782D01*
X151198202Y-104379229D01*
X151284295Y-104587590D01*
X151443571Y-104747144D01*
X151651782Y-104833601D01*
X151877229Y-104833798D01*
X152085590Y-104747705D01*
X152172747Y-104660700D01*
X152174396Y-104660700D01*
X152209083Y-104714605D01*
X152298206Y-104775500D01*
X152404000Y-104796924D01*
X152904000Y-104796924D01*
X153002833Y-104778327D01*
X153093605Y-104719917D01*
X153154500Y-104630794D01*
X153156949Y-104618700D01*
X153673707Y-104618700D01*
X153674673Y-104623833D01*
X153733083Y-104714605D01*
X153822206Y-104775500D01*
X153928000Y-104796924D01*
X154428000Y-104796924D01*
X154526833Y-104778327D01*
X154617605Y-104719917D01*
X154678500Y-104630794D01*
X154699924Y-104525000D01*
X154699924Y-103925000D01*
X154681327Y-103826167D01*
X154622917Y-103735395D01*
X154571700Y-103700400D01*
X154571700Y-103511034D01*
X155189133Y-104128467D01*
X155300378Y-104202798D01*
X155431600Y-104228900D01*
X155822214Y-104228900D01*
X155916931Y-104323782D01*
X156106771Y-104402610D01*
X156312327Y-104402790D01*
X156502305Y-104324293D01*
X156647782Y-104179069D01*
X156726610Y-103989229D01*
X156726720Y-103863854D01*
X157079100Y-104216234D01*
X157079100Y-104631029D01*
X157032395Y-104661083D01*
X156971500Y-104750206D01*
X156950076Y-104856000D01*
X156950076Y-105456000D01*
X156968673Y-105554833D01*
X157027083Y-105645605D01*
X157116206Y-105706500D01*
X157222000Y-105727924D01*
X157622000Y-105727924D01*
X157720833Y-105709327D01*
X157811605Y-105650917D01*
X157872500Y-105561794D01*
X157893924Y-105456000D01*
X157893924Y-104856000D01*
X157875327Y-104757167D01*
X157816917Y-104666395D01*
X157764900Y-104630853D01*
X157764900Y-104074200D01*
X157738798Y-103942978D01*
X157728791Y-103928000D01*
X164494076Y-103928000D01*
X164494076Y-104828000D01*
X164512673Y-104926833D01*
X164571083Y-105017605D01*
X164660206Y-105078500D01*
X164766000Y-105099924D01*
X165566000Y-105099924D01*
X165664833Y-105081327D01*
X165755605Y-105022917D01*
X165816500Y-104933794D01*
X165837924Y-104828000D01*
X165837924Y-104697125D01*
X165849622Y-104694798D01*
X165960867Y-104620467D01*
X166860434Y-103720900D01*
X168119566Y-103720900D01*
X168313100Y-103914434D01*
X168313100Y-104280400D01*
X168339202Y-104411622D01*
X168413533Y-104522867D01*
X168977133Y-105086467D01*
X169088378Y-105160798D01*
X169136377Y-105170346D01*
X169177083Y-105233605D01*
X169266206Y-105294500D01*
X169372000Y-105315924D01*
X169972000Y-105315924D01*
X170070833Y-105297327D01*
X170161605Y-105238917D01*
X170222500Y-105149794D01*
X170243924Y-105044000D01*
X170243924Y-104644000D01*
X170225327Y-104545167D01*
X170166917Y-104454395D01*
X170077794Y-104393500D01*
X170077023Y-104393344D01*
X170161605Y-104338917D01*
X170197147Y-104286900D01*
X171179029Y-104286900D01*
X171209083Y-104333605D01*
X171298206Y-104394500D01*
X171404000Y-104415924D01*
X172004000Y-104415924D01*
X172102833Y-104397327D01*
X172193605Y-104338917D01*
X172229147Y-104286900D01*
X172703029Y-104286900D01*
X172733083Y-104333605D01*
X172822206Y-104394500D01*
X172822977Y-104394656D01*
X172738395Y-104449083D01*
X172677500Y-104538206D01*
X172656076Y-104644000D01*
X172656076Y-105044000D01*
X172674673Y-105142833D01*
X172733083Y-105233605D01*
X172822206Y-105294500D01*
X172928000Y-105315924D01*
X173528000Y-105315924D01*
X173626833Y-105297327D01*
X173640195Y-105288729D01*
X174003939Y-105652473D01*
X174115184Y-105726804D01*
X174246406Y-105752906D01*
X175126214Y-105752906D01*
X175220931Y-105847788D01*
X175410771Y-105926616D01*
X175616327Y-105926796D01*
X175806305Y-105848299D01*
X175951782Y-105703075D01*
X176030610Y-105513235D01*
X176030790Y-105307679D01*
X175952293Y-105117701D01*
X175807069Y-104972224D01*
X175617229Y-104893396D01*
X175411673Y-104893216D01*
X175221695Y-104971713D01*
X175126136Y-105067106D01*
X174388440Y-105067106D01*
X173922867Y-104601533D01*
X173811622Y-104527202D01*
X173763623Y-104517654D01*
X173722917Y-104454395D01*
X173721610Y-104453502D01*
X174560498Y-104453502D01*
X174691720Y-104427400D01*
X174750665Y-104388015D01*
X174768206Y-104400000D01*
X174874000Y-104421424D01*
X175524000Y-104421424D01*
X175622833Y-104402827D01*
X175713605Y-104344417D01*
X175749147Y-104292400D01*
X175906576Y-104292400D01*
X175843545Y-104355321D01*
X175764717Y-104545161D01*
X175764537Y-104750717D01*
X175843034Y-104940695D01*
X175988258Y-105086172D01*
X176178098Y-105165000D01*
X176383654Y-105165180D01*
X176573632Y-105086683D01*
X176633876Y-105026544D01*
X176668206Y-105050000D01*
X176774000Y-105071424D01*
X177424000Y-105071424D01*
X177522833Y-105052827D01*
X177613605Y-104994417D01*
X177674500Y-104905294D01*
X177695924Y-104799500D01*
X177695924Y-104399500D01*
X177677327Y-104300667D01*
X177660920Y-104275169D01*
X177674500Y-104255294D01*
X177695924Y-104149500D01*
X177695924Y-103749500D01*
X177677327Y-103650667D01*
X177618917Y-103559895D01*
X177529794Y-103499000D01*
X177424000Y-103477576D01*
X176774000Y-103477576D01*
X176675167Y-103496173D01*
X176584395Y-103554583D01*
X176548853Y-103606600D01*
X175773608Y-103606600D01*
X175774500Y-103605294D01*
X175795924Y-103499500D01*
X175795924Y-103099500D01*
X175777327Y-103000667D01*
X175719787Y-102911247D01*
X176255971Y-102375063D01*
X176330302Y-102263818D01*
X176356404Y-102132596D01*
X176356404Y-99793752D01*
X176330302Y-99662530D01*
X176280167Y-99587497D01*
X176280295Y-99441426D01*
X176201798Y-99251448D01*
X176127144Y-99176664D01*
X176172771Y-99195610D01*
X176378327Y-99195790D01*
X176568305Y-99117293D01*
X176713782Y-98972069D01*
X176792610Y-98782229D01*
X176792790Y-98576673D01*
X176714293Y-98386695D01*
X176569069Y-98241218D01*
X176379229Y-98162390D01*
X176173673Y-98162210D01*
X175983695Y-98240707D01*
X175879598Y-98344623D01*
X175791225Y-98362202D01*
X175780700Y-98369235D01*
X175780700Y-93472000D01*
X175762461Y-93375066D01*
X175738772Y-93338252D01*
X175791663Y-93327731D01*
X175919388Y-93242388D01*
X176046388Y-93115388D01*
X176131731Y-92987663D01*
X176134373Y-92974380D01*
X176142000Y-92975924D01*
X176148300Y-92975924D01*
X176148300Y-93230000D01*
X176178269Y-93380663D01*
X176263612Y-93508388D01*
X176275463Y-93520239D01*
X176252395Y-93535083D01*
X176191500Y-93624206D01*
X176170076Y-93730000D01*
X176170076Y-94230000D01*
X176188673Y-94328833D01*
X176247083Y-94419605D01*
X176336206Y-94480500D01*
X176348300Y-94482949D01*
X176348300Y-96256000D01*
X176378269Y-96406663D01*
X176463612Y-96534388D01*
X177527612Y-97598388D01*
X177655337Y-97683731D01*
X177793300Y-97711174D01*
X177793300Y-97898734D01*
X177863080Y-98249540D01*
X178061795Y-98546939D01*
X178359194Y-98745654D01*
X178710000Y-98815434D01*
X179060806Y-98745654D01*
X179358205Y-98546939D01*
X179556920Y-98249540D01*
X179626700Y-97898734D01*
X179626700Y-96741266D01*
X179556920Y-96390460D01*
X179358205Y-96093061D01*
X179060806Y-95894346D01*
X178710000Y-95824566D01*
X178359194Y-95894346D01*
X178061795Y-96093061D01*
X177863080Y-96390460D01*
X177793300Y-96741266D01*
X177793300Y-96750524D01*
X177135700Y-96092924D01*
X177135700Y-94484293D01*
X177140833Y-94483327D01*
X177231605Y-94424917D01*
X177292500Y-94335794D01*
X177313924Y-94230000D01*
X177313924Y-93730000D01*
X177295327Y-93631167D01*
X177236917Y-93540395D01*
X177147794Y-93479500D01*
X177135700Y-93477051D01*
X177135700Y-93430000D01*
X177105731Y-93279338D01*
X177020388Y-93151612D01*
X176935700Y-93066924D01*
X176935700Y-92975924D01*
X176942000Y-92975924D01*
X177040833Y-92957327D01*
X177131605Y-92898917D01*
X177192500Y-92809794D01*
X177213924Y-92704000D01*
X177213924Y-91954000D01*
X177195327Y-91855167D01*
X177136917Y-91764395D01*
X177047794Y-91703500D01*
X176942000Y-91682076D01*
X176745900Y-91682076D01*
X176745900Y-91083852D01*
X176801833Y-91073327D01*
X176892605Y-91014917D01*
X176953500Y-90925794D01*
X176974924Y-90820000D01*
X176974924Y-90420000D01*
X176956327Y-90321167D01*
X176897917Y-90230395D01*
X176808794Y-90169500D01*
X176808023Y-90169344D01*
X176892605Y-90114917D01*
X176953500Y-90025794D01*
X176974924Y-89920000D01*
X176974924Y-89520000D01*
X176956327Y-89421167D01*
X176897917Y-89330395D01*
X176808794Y-89269500D01*
X176703000Y-89248076D01*
X176103000Y-89248076D01*
X176004167Y-89266673D01*
X175913395Y-89325083D01*
X175877853Y-89377100D01*
X175837000Y-89377100D01*
X175705778Y-89403202D01*
X175641576Y-89446100D01*
X175583000Y-89446100D01*
X175451778Y-89472202D01*
X175340533Y-89546533D01*
X175288990Y-89598076D01*
X175002000Y-89598076D01*
X174903167Y-89616673D01*
X174812395Y-89675083D01*
X174751500Y-89764206D01*
X174730076Y-89870000D01*
X174730076Y-90470000D01*
X174748673Y-90568833D01*
X174807083Y-90659605D01*
X174859100Y-90695147D01*
X174859100Y-91028566D01*
X174593533Y-91294133D01*
X174519202Y-91405378D01*
X174516875Y-91417076D01*
X174306000Y-91417076D01*
X174207167Y-91435673D01*
X174117747Y-91493213D01*
X173842466Y-91217932D01*
X173731221Y-91143601D01*
X173599999Y-91117499D01*
X170540609Y-91117499D01*
X170409387Y-91143601D01*
X170298142Y-91217932D01*
X170084747Y-91431327D01*
X169950681Y-91431210D01*
X169760703Y-91509707D01*
X169615226Y-91654931D01*
X169536398Y-91844771D01*
X169536218Y-92050327D01*
X169614715Y-92240305D01*
X169759939Y-92385782D01*
X169949779Y-92464610D01*
X170155335Y-92464790D01*
X170345313Y-92386293D01*
X170490790Y-92241069D01*
X170569618Y-92051229D01*
X170569736Y-91916206D01*
X170682643Y-91803299D01*
X171490767Y-91803299D01*
X170084739Y-93209327D01*
X169950673Y-93209210D01*
X169760695Y-93287707D01*
X169615218Y-93432931D01*
X169536390Y-93622771D01*
X169536210Y-93828327D01*
X169614707Y-94018305D01*
X169759931Y-94163782D01*
X169949771Y-94242610D01*
X170155327Y-94242790D01*
X170345305Y-94164293D01*
X170490782Y-94019069D01*
X170569610Y-93829229D01*
X170569728Y-93694206D01*
X171848465Y-92415469D01*
X171852673Y-92437833D01*
X171911083Y-92528605D01*
X172000206Y-92589500D01*
X172106000Y-92610924D01*
X173166000Y-92610924D01*
X173264833Y-92592327D01*
X173355605Y-92533917D01*
X173416500Y-92444794D01*
X173437924Y-92339000D01*
X173437924Y-91803299D01*
X173457965Y-91803299D01*
X173911133Y-92256467D01*
X174022378Y-92330798D01*
X174034076Y-92333125D01*
X174034076Y-92339000D01*
X174052673Y-92437833D01*
X174085650Y-92489080D01*
X174055500Y-92533206D01*
X174034076Y-92639000D01*
X174034076Y-93205300D01*
X173990000Y-93205300D01*
X173893066Y-93223539D01*
X173804038Y-93280827D01*
X173744312Y-93368239D01*
X173723300Y-93472000D01*
X173723300Y-94993766D01*
X173228666Y-94499132D01*
X173264833Y-94492327D01*
X173355605Y-94433917D01*
X173416500Y-94344794D01*
X173437924Y-94239000D01*
X173437924Y-93589000D01*
X173419327Y-93490167D01*
X173360917Y-93399395D01*
X173271794Y-93338500D01*
X173166000Y-93317076D01*
X172106000Y-93317076D01*
X172007167Y-93335673D01*
X171916395Y-93394083D01*
X171855500Y-93483206D01*
X171834076Y-93589000D01*
X171834076Y-94239000D01*
X171852673Y-94337833D01*
X171911083Y-94428605D01*
X172000206Y-94489500D01*
X172106000Y-94510924D01*
X172316875Y-94510924D01*
X172319202Y-94522622D01*
X172393533Y-94633867D01*
X173139100Y-95379434D01*
X173139100Y-96640220D01*
X173044218Y-96734937D01*
X172965390Y-96924777D01*
X172965210Y-97130333D01*
X173022630Y-97269300D01*
X165354000Y-97269300D01*
X165257066Y-97287539D01*
X165168038Y-97344827D01*
X165108312Y-97432239D01*
X165087300Y-97536000D01*
X165087300Y-102870000D01*
X165105539Y-102966934D01*
X165162827Y-103055962D01*
X165250239Y-103115688D01*
X165354000Y-103136700D01*
X166474766Y-103136700D01*
X165804829Y-103806637D01*
X165760917Y-103738395D01*
X165671794Y-103677500D01*
X165566000Y-103656076D01*
X164766000Y-103656076D01*
X164667167Y-103674673D01*
X164576395Y-103733083D01*
X164515500Y-103822206D01*
X164494076Y-103928000D01*
X157728791Y-103928000D01*
X157664467Y-103831733D01*
X156607924Y-102775190D01*
X156607924Y-102759924D01*
X156836200Y-102759924D01*
X156935033Y-102741327D01*
X157025805Y-102682917D01*
X157078428Y-102605900D01*
X157947692Y-102605900D01*
X157963206Y-102616500D01*
X157963977Y-102616656D01*
X157879395Y-102671083D01*
X157818500Y-102760206D01*
X157797076Y-102866000D01*
X157797076Y-103266000D01*
X157815673Y-103364833D01*
X157874083Y-103455605D01*
X157963206Y-103516500D01*
X158069000Y-103537924D01*
X158384148Y-103537924D01*
X158644612Y-103798388D01*
X158772337Y-103883731D01*
X158923000Y-103913700D01*
X159212000Y-103913700D01*
X159362663Y-103883731D01*
X159490388Y-103798388D01*
X159750852Y-103537924D01*
X160066000Y-103537924D01*
X160164833Y-103519327D01*
X160255605Y-103460917D01*
X160256437Y-103459700D01*
X160459000Y-103459700D01*
X160609663Y-103429731D01*
X160737388Y-103344388D01*
X161026085Y-103055691D01*
X161148229Y-103055798D01*
X161356590Y-102969705D01*
X161516144Y-102810429D01*
X161602601Y-102602218D01*
X161602798Y-102376771D01*
X161516705Y-102168410D01*
X161357429Y-102008856D01*
X161149218Y-101922399D01*
X160923771Y-101922202D01*
X160715410Y-102008295D01*
X160555856Y-102167571D01*
X160469399Y-102375782D01*
X160469291Y-102498933D01*
X160295924Y-102672300D01*
X160254924Y-102672300D01*
X160171794Y-102615500D01*
X160171023Y-102615344D01*
X160255605Y-102560917D01*
X160316500Y-102471794D01*
X160337924Y-102366000D01*
X160337924Y-101966000D01*
X160319327Y-101867167D01*
X160260917Y-101776395D01*
X160171794Y-101715500D01*
X160066000Y-101694076D01*
X159725676Y-101694076D01*
X159774610Y-101576229D01*
X159774790Y-101370673D01*
X159696293Y-101180695D01*
X159551069Y-101035218D01*
X159361229Y-100956390D01*
X159196345Y-100956246D01*
X159175011Y-100941991D01*
X159043789Y-100915889D01*
X158688575Y-100915889D01*
X158593858Y-100821007D01*
X158404018Y-100742179D01*
X158208688Y-100742008D01*
X158208688Y-99947976D01*
X158182586Y-99816754D01*
X158132451Y-99741721D01*
X158132579Y-99595650D01*
X158054082Y-99405672D01*
X157908858Y-99260195D01*
X157807576Y-99218139D01*
X157827587Y-99169946D01*
X157827767Y-98964390D01*
X157749270Y-98774412D01*
X157604046Y-98628935D01*
X157443787Y-98562390D01*
X157481203Y-98472282D01*
X157481383Y-98266726D01*
X157402886Y-98076748D01*
X157257662Y-97931271D01*
X157067822Y-97852443D01*
X156862266Y-97852263D01*
X156672288Y-97930760D01*
X156576729Y-98026153D01*
X156392947Y-98026153D01*
X156261725Y-98052255D01*
X156150480Y-98126586D01*
X155988575Y-98288491D01*
X155928467Y-98198533D01*
X155817222Y-98124202D01*
X155686000Y-98098100D01*
X155554778Y-98124202D01*
X155443533Y-98198533D01*
X155438673Y-98205807D01*
X155428467Y-98190533D01*
X155317222Y-98116202D01*
X155236035Y-98100053D01*
X155179653Y-97963598D01*
X155053581Y-97837306D01*
X155080782Y-97848601D01*
X155306229Y-97848798D01*
X155514590Y-97762705D01*
X155674144Y-97603429D01*
X155760601Y-97395218D01*
X155760798Y-97169771D01*
X155674705Y-96961410D01*
X155587700Y-96874253D01*
X155587700Y-96732000D01*
X155557731Y-96581338D01*
X155483133Y-96469693D01*
X157209968Y-96469693D01*
X157288465Y-96659671D01*
X157433689Y-96805148D01*
X157542464Y-96850315D01*
X157542289Y-97049912D01*
X157620786Y-97239890D01*
X157766010Y-97385367D01*
X157955850Y-97464195D01*
X157989577Y-97464225D01*
X157975300Y-97536000D01*
X157975300Y-98171000D01*
X158005269Y-98321663D01*
X158090612Y-98449388D01*
X158598612Y-98957388D01*
X158726338Y-99042731D01*
X158877000Y-99072700D01*
X158945544Y-99072700D01*
X158975083Y-99118605D01*
X159064206Y-99179500D01*
X159076300Y-99181949D01*
X159076300Y-99317707D01*
X159071167Y-99318673D01*
X158980395Y-99377083D01*
X158919500Y-99466206D01*
X158898076Y-99572000D01*
X158898076Y-100072000D01*
X158916673Y-100170833D01*
X158975083Y-100261605D01*
X159064206Y-100322500D01*
X159076300Y-100324949D01*
X159076300Y-100458264D01*
X159106269Y-100608927D01*
X159191612Y-100736652D01*
X159317348Y-100862388D01*
X159445074Y-100947731D01*
X159595736Y-100977700D01*
X159612278Y-100977700D01*
X159698571Y-101064144D01*
X159906782Y-101150601D01*
X160132229Y-101150798D01*
X160340590Y-101064705D01*
X160500144Y-100905429D01*
X160586601Y-100697218D01*
X160586798Y-100471771D01*
X160500705Y-100263410D01*
X160341429Y-100103856D01*
X160133218Y-100017399D01*
X160041924Y-100017319D01*
X160041924Y-99572000D01*
X160023327Y-99473167D01*
X159964917Y-99382395D01*
X159875794Y-99321500D01*
X159863700Y-99319051D01*
X159863700Y-99183293D01*
X159868833Y-99182327D01*
X159899913Y-99162327D01*
X161535210Y-99162327D01*
X161613707Y-99352305D01*
X161758931Y-99497782D01*
X161948771Y-99576610D01*
X162154327Y-99576790D01*
X162292076Y-99519873D01*
X162292076Y-99614000D01*
X162310673Y-99712833D01*
X162369083Y-99803605D01*
X162458206Y-99864500D01*
X162458977Y-99864656D01*
X162374395Y-99919083D01*
X162313500Y-100008206D01*
X162292076Y-100114000D01*
X162292076Y-100714000D01*
X162310673Y-100812833D01*
X162369083Y-100903605D01*
X162458206Y-100964500D01*
X162564000Y-100985924D01*
X162689142Y-100985924D01*
X162571533Y-101103533D01*
X162497202Y-101214778D01*
X162489377Y-101254118D01*
X162465167Y-101258673D01*
X162374395Y-101317083D01*
X162313500Y-101406206D01*
X162292076Y-101512000D01*
X162292076Y-102112000D01*
X162310673Y-102210833D01*
X162369083Y-102301605D01*
X162458206Y-102362500D01*
X162458977Y-102362656D01*
X162374395Y-102417083D01*
X162313500Y-102506206D01*
X162292076Y-102612000D01*
X162292076Y-103212000D01*
X162310673Y-103310833D01*
X162369083Y-103401605D01*
X162458206Y-103462500D01*
X162564000Y-103483924D01*
X163064000Y-103483924D01*
X163162833Y-103465327D01*
X163253605Y-103406917D01*
X163314500Y-103317794D01*
X163329219Y-103245110D01*
X163411222Y-103228798D01*
X163522467Y-103154467D01*
X163818467Y-102858467D01*
X163892798Y-102747222D01*
X163918900Y-102616000D01*
X163918900Y-102241786D01*
X164013782Y-102147069D01*
X164092610Y-101957229D01*
X164092790Y-101751673D01*
X164014293Y-101561695D01*
X163925725Y-101472973D01*
X164013782Y-101385069D01*
X164092610Y-101195229D01*
X164092790Y-100989673D01*
X164014293Y-100799695D01*
X163925725Y-100710973D01*
X164013782Y-100623069D01*
X164092610Y-100433229D01*
X164092790Y-100227673D01*
X164014293Y-100037695D01*
X163980518Y-100003862D01*
X164013782Y-99970656D01*
X164092610Y-99780816D01*
X164092790Y-99575260D01*
X164014293Y-99385282D01*
X163869069Y-99239805D01*
X163679229Y-99160977D01*
X163548196Y-99160862D01*
X163458867Y-99071533D01*
X163347622Y-98997202D01*
X163332185Y-98994131D01*
X163325293Y-98957501D01*
X163485952Y-98957501D01*
X163617174Y-98931399D01*
X163728419Y-98857068D01*
X163814466Y-98771021D01*
X163888797Y-98659776D01*
X163906402Y-98571269D01*
X164009781Y-98468070D01*
X164088609Y-98278230D01*
X164088789Y-98072674D01*
X164010292Y-97882696D01*
X163865068Y-97737219D01*
X163675228Y-97658391D01*
X163469672Y-97658211D01*
X163279694Y-97736708D01*
X163134217Y-97881932D01*
X163055389Y-98071772D01*
X163055214Y-98271701D01*
X162497399Y-98271701D01*
X162366177Y-98297803D01*
X162254932Y-98372134D01*
X162083739Y-98543327D01*
X161949673Y-98543210D01*
X161759695Y-98621707D01*
X161614218Y-98766931D01*
X161535390Y-98956771D01*
X161535210Y-99162327D01*
X159899913Y-99162327D01*
X159959605Y-99123917D01*
X160020500Y-99034794D01*
X160041924Y-98929000D01*
X160041924Y-98429000D01*
X160023327Y-98330167D01*
X159964917Y-98239395D01*
X159875794Y-98178500D01*
X159770000Y-98157076D01*
X159170000Y-98157076D01*
X159071167Y-98175673D01*
X158985545Y-98230769D01*
X158762700Y-98007924D01*
X158762700Y-97751900D01*
X161281222Y-97751900D01*
X161281210Y-97765327D01*
X161359707Y-97955305D01*
X161504931Y-98100782D01*
X161694771Y-98179610D01*
X161900327Y-98179790D01*
X162090305Y-98101293D01*
X162235782Y-97956069D01*
X162314610Y-97766229D01*
X162314790Y-97560673D01*
X162236293Y-97370695D01*
X162223737Y-97358117D01*
X162308831Y-97375044D01*
X162310673Y-97384833D01*
X162369083Y-97475605D01*
X162458206Y-97536500D01*
X162564000Y-97557924D01*
X163064000Y-97557924D01*
X163162833Y-97539327D01*
X163237644Y-97491188D01*
X163254571Y-97508144D01*
X163462782Y-97594601D01*
X163688229Y-97594798D01*
X163896590Y-97508705D01*
X164056144Y-97349429D01*
X164142601Y-97141218D01*
X164142798Y-96915771D01*
X164056705Y-96707410D01*
X163961111Y-96611649D01*
X164013782Y-96559069D01*
X164092610Y-96369229D01*
X164092790Y-96163673D01*
X164014293Y-95973695D01*
X163869069Y-95828218D01*
X163679229Y-95749390D01*
X163473673Y-95749210D01*
X163392989Y-95782548D01*
X163006575Y-95782548D01*
X162911858Y-95687666D01*
X162722018Y-95608838D01*
X162516462Y-95608658D01*
X162326484Y-95687155D01*
X162181007Y-95832379D01*
X162102179Y-96022219D01*
X162102012Y-96213137D01*
X162016902Y-96156269D01*
X161866239Y-96126300D01*
X161715576Y-96156269D01*
X161684400Y-96177100D01*
X161632900Y-96177100D01*
X161632900Y-95377000D01*
X161626820Y-95344689D01*
X161607724Y-95315013D01*
X161578587Y-95295104D01*
X161544000Y-95288100D01*
X158714676Y-95288100D01*
X158732388Y-95270388D01*
X158817731Y-95142663D01*
X158847639Y-94992304D01*
X158852833Y-94991327D01*
X158943605Y-94932917D01*
X159004500Y-94843794D01*
X159025924Y-94738000D01*
X159025924Y-94336327D01*
X163821210Y-94336327D01*
X163899707Y-94526305D01*
X164044931Y-94671782D01*
X164149178Y-94715069D01*
X164075390Y-94892771D01*
X164075210Y-95098327D01*
X164153707Y-95288305D01*
X164298931Y-95433782D01*
X164488771Y-95512610D01*
X164633870Y-95512737D01*
X164714778Y-95566798D01*
X164846000Y-95592900D01*
X165329148Y-95592900D01*
X165339673Y-95648833D01*
X165398083Y-95739605D01*
X165487206Y-95800500D01*
X165593000Y-95821924D01*
X165993000Y-95821924D01*
X166091833Y-95803327D01*
X166182605Y-95744917D01*
X166243500Y-95655794D01*
X166264924Y-95550000D01*
X166264924Y-94950000D01*
X166246327Y-94851167D01*
X166187917Y-94760395D01*
X166098794Y-94699500D01*
X165993000Y-94678076D01*
X165593000Y-94678076D01*
X165494167Y-94696673D01*
X165403395Y-94755083D01*
X165342500Y-94844206D01*
X165329764Y-94907100D01*
X165108778Y-94907100D01*
X165108790Y-94893673D01*
X165030293Y-94703695D01*
X164903719Y-94576900D01*
X165439000Y-94576900D01*
X165570222Y-94550798D01*
X165643368Y-94501924D01*
X165993000Y-94501924D01*
X166091833Y-94483327D01*
X166182605Y-94424917D01*
X166243500Y-94335794D01*
X166264924Y-94230000D01*
X166264924Y-93730000D01*
X166246327Y-93631167D01*
X166187917Y-93540395D01*
X166098794Y-93479500D01*
X165993000Y-93458076D01*
X165393000Y-93458076D01*
X165294167Y-93476673D01*
X165203395Y-93535083D01*
X165142500Y-93624206D01*
X165121076Y-93730000D01*
X165121076Y-93891100D01*
X164725786Y-93891100D01*
X164631069Y-93796218D01*
X164441229Y-93717390D01*
X164235673Y-93717210D01*
X164045695Y-93795707D01*
X163900218Y-93940931D01*
X163821390Y-94130771D01*
X163821210Y-94336327D01*
X159025924Y-94336327D01*
X159025924Y-94238000D01*
X159007327Y-94139167D01*
X158948917Y-94048395D01*
X158859794Y-93987500D01*
X158754000Y-93966076D01*
X158154000Y-93966076D01*
X158055167Y-93984673D01*
X157964395Y-94043083D01*
X157903500Y-94132206D01*
X157882076Y-94238000D01*
X157882076Y-94738000D01*
X157900673Y-94836833D01*
X157959083Y-94927605D01*
X157960590Y-94928634D01*
X157621612Y-95267612D01*
X157536269Y-95395337D01*
X157515111Y-95501706D01*
X157506300Y-95546000D01*
X157506300Y-95791908D01*
X157526055Y-95891224D01*
X157434453Y-95929073D01*
X157288976Y-96074297D01*
X157210148Y-96264137D01*
X157209968Y-96469693D01*
X155483133Y-96469693D01*
X155472388Y-96453612D01*
X155045924Y-96027148D01*
X155045924Y-95762000D01*
X155027327Y-95663167D01*
X154968917Y-95572395D01*
X154879794Y-95511500D01*
X154774000Y-95490076D01*
X154174000Y-95490076D01*
X154075167Y-95508673D01*
X153984395Y-95567083D01*
X153923500Y-95656206D01*
X153902076Y-95762000D01*
X153902076Y-96262000D01*
X153920673Y-96360833D01*
X153979083Y-96451605D01*
X154068206Y-96512500D01*
X154080300Y-96514949D01*
X154080300Y-97031707D01*
X154075167Y-97032673D01*
X153984395Y-97091083D01*
X153923500Y-97180206D01*
X153902076Y-97286000D01*
X153902076Y-97553897D01*
X153822269Y-97673337D01*
X153803424Y-97768076D01*
X153792300Y-97824000D01*
X153792300Y-98572254D01*
X153785500Y-98582206D01*
X153764076Y-98688000D01*
X153764076Y-99225100D01*
X153600411Y-99225100D01*
X153607924Y-99188000D01*
X153607924Y-98687800D01*
X153589327Y-98588967D01*
X153530917Y-98498195D01*
X153520018Y-98490748D01*
X153502798Y-98404178D01*
X153428467Y-98292933D01*
X153091692Y-97956158D01*
X153091782Y-97956069D01*
X153170610Y-97766229D01*
X153170790Y-97560673D01*
X153092293Y-97370695D01*
X152947069Y-97225218D01*
X152757229Y-97146390D01*
X152551673Y-97146210D01*
X152361695Y-97224707D01*
X152216218Y-97369931D01*
X152137390Y-97559771D01*
X152137210Y-97765327D01*
X152147696Y-97790704D01*
X151980695Y-97859707D01*
X151835218Y-98004931D01*
X151756390Y-98194771D01*
X151756272Y-98329794D01*
X150757688Y-99328378D01*
X150757790Y-99211673D01*
X150679293Y-99021695D01*
X150671996Y-99014385D01*
X151372467Y-98313914D01*
X151446798Y-98202669D01*
X151472900Y-98071447D01*
X151472900Y-95646034D01*
X153026705Y-94092229D01*
X154373202Y-94092229D01*
X154459295Y-94300590D01*
X154618571Y-94460144D01*
X154826782Y-94546601D01*
X155052229Y-94546798D01*
X155260590Y-94460705D01*
X155347747Y-94373700D01*
X155426396Y-94373700D01*
X155461083Y-94427605D01*
X155550206Y-94488500D01*
X155550977Y-94488656D01*
X155466395Y-94543083D01*
X155405500Y-94632206D01*
X155384076Y-94738000D01*
X155384076Y-95023817D01*
X155282695Y-95065707D01*
X155137218Y-95210931D01*
X155058390Y-95400771D01*
X155058210Y-95606327D01*
X155136707Y-95796305D01*
X155281931Y-95941782D01*
X155471771Y-96020610D01*
X155606794Y-96020728D01*
X155709580Y-96123514D01*
X155820825Y-96197845D01*
X155952047Y-96223947D01*
X156818392Y-96223947D01*
X156949614Y-96197845D01*
X157060859Y-96123514D01*
X157341467Y-95842906D01*
X157415798Y-95731661D01*
X157441900Y-95600439D01*
X157441900Y-95084720D01*
X157488610Y-94972229D01*
X157488790Y-94766673D01*
X157410293Y-94576695D01*
X157265069Y-94431218D01*
X157261287Y-94429647D01*
X157966268Y-93724666D01*
X157981535Y-93714465D01*
X158375673Y-93320327D01*
X164075210Y-93320327D01*
X164153707Y-93510305D01*
X164298931Y-93655782D01*
X164488771Y-93734610D01*
X164694327Y-93734790D01*
X164884305Y-93656293D01*
X165029782Y-93511069D01*
X165108610Y-93321229D01*
X165108728Y-93186206D01*
X165177428Y-93117506D01*
X165198083Y-93149605D01*
X165287206Y-93210500D01*
X165393000Y-93231924D01*
X165993000Y-93231924D01*
X166091833Y-93213327D01*
X166182605Y-93154917D01*
X166243500Y-93065794D01*
X166264924Y-92960000D01*
X166264924Y-92460000D01*
X166246327Y-92361167D01*
X166187917Y-92270395D01*
X166098794Y-92209500D01*
X165993000Y-92188076D01*
X165393000Y-92188076D01*
X165294167Y-92206673D01*
X165203395Y-92265083D01*
X165142500Y-92354206D01*
X165139889Y-92367100D01*
X165100000Y-92367100D01*
X164968778Y-92393202D01*
X164857533Y-92467533D01*
X164623739Y-92701327D01*
X164489673Y-92701210D01*
X164299695Y-92779707D01*
X164154218Y-92924931D01*
X164075390Y-93114771D01*
X164075210Y-93320327D01*
X158375673Y-93320327D01*
X158770100Y-92925900D01*
X159996000Y-92925900D01*
X160127222Y-92899798D01*
X160238467Y-92825467D01*
X160312798Y-92714222D01*
X160338900Y-92583000D01*
X160338900Y-92347852D01*
X160394833Y-92337327D01*
X160485605Y-92278917D01*
X160546500Y-92189794D01*
X160567924Y-92084000D01*
X160567924Y-90534000D01*
X160549327Y-90435167D01*
X160490917Y-90344395D01*
X160401794Y-90283500D01*
X160296000Y-90262076D01*
X159696000Y-90262076D01*
X159597167Y-90280673D01*
X159506395Y-90339083D01*
X159496664Y-90353325D01*
X159490917Y-90344395D01*
X159401794Y-90283500D01*
X159296000Y-90262076D01*
X158696000Y-90262076D01*
X158597167Y-90280673D01*
X158506395Y-90339083D01*
X158496664Y-90353325D01*
X158490917Y-90344395D01*
X158401794Y-90283500D01*
X158296000Y-90262076D01*
X157696000Y-90262076D01*
X157597167Y-90280673D01*
X157506395Y-90339083D01*
X157445500Y-90428206D01*
X157424076Y-90534000D01*
X157424076Y-91870990D01*
X157185967Y-92109099D01*
X155456782Y-92109099D01*
X155456790Y-92099673D01*
X155378293Y-91909695D01*
X155233069Y-91764218D01*
X155043229Y-91685390D01*
X154837673Y-91685210D01*
X154647695Y-91763707D01*
X154502218Y-91908931D01*
X154423390Y-92098771D01*
X154423210Y-92304327D01*
X154501707Y-92494305D01*
X154646931Y-92639782D01*
X154836771Y-92718610D01*
X154983859Y-92718739D01*
X155058777Y-92768797D01*
X155189999Y-92794899D01*
X157328001Y-92794899D01*
X157459223Y-92768797D01*
X157570468Y-92694466D01*
X157909010Y-92355924D01*
X157939142Y-92355924D01*
X157470777Y-92824289D01*
X157120520Y-92824289D01*
X156989298Y-92850391D01*
X156878053Y-92924722D01*
X156652151Y-93150624D01*
X156518085Y-93150507D01*
X156328107Y-93229004D01*
X156182630Y-93374228D01*
X156103802Y-93564068D01*
X156103800Y-93566076D01*
X155656000Y-93566076D01*
X155557167Y-93584673D01*
X155554639Y-93586300D01*
X155347722Y-93586300D01*
X155261429Y-93499856D01*
X155053218Y-93413399D01*
X154827771Y-93413202D01*
X154619410Y-93499295D01*
X154459856Y-93658571D01*
X154373399Y-93866782D01*
X154373202Y-94092229D01*
X153026705Y-94092229D01*
X153130261Y-93988673D01*
X153264327Y-93988790D01*
X153454305Y-93910293D01*
X153599782Y-93765069D01*
X153678610Y-93575229D01*
X153678790Y-93369673D01*
X153600293Y-93179695D01*
X153455069Y-93034218D01*
X153265229Y-92955390D01*
X153059673Y-92955210D01*
X152869695Y-93033707D01*
X152724218Y-93178931D01*
X152645390Y-93368771D01*
X152645272Y-93503794D01*
X150887533Y-95261533D01*
X150813202Y-95372778D01*
X150787100Y-95504000D01*
X150787100Y-97929413D01*
X149998533Y-98717980D01*
X149924202Y-98829225D01*
X149906597Y-98917732D01*
X149803218Y-99020931D01*
X149724390Y-99210771D01*
X149724210Y-99416327D01*
X149798667Y-99596528D01*
X149709229Y-99559390D01*
X149574206Y-99559272D01*
X149410127Y-99395193D01*
X149397327Y-99327167D01*
X149338917Y-99236395D01*
X149249794Y-99175500D01*
X149144000Y-99154076D01*
X148544000Y-99154076D01*
X148445167Y-99172673D01*
X148354395Y-99231083D01*
X148293500Y-99320206D01*
X148272076Y-99426000D01*
X148272076Y-99826000D01*
X148290673Y-99924833D01*
X148349083Y-100015605D01*
X148438206Y-100076500D01*
X148438977Y-100076656D01*
X148354395Y-100131083D01*
X148293500Y-100220206D01*
X148272076Y-100326000D01*
X148272076Y-100726000D01*
X148290673Y-100824833D01*
X148349083Y-100915605D01*
X148438206Y-100976500D01*
X148544000Y-100997924D01*
X148930990Y-100997924D01*
X148936166Y-101003100D01*
X144922034Y-101003100D01*
X144915673Y-100996739D01*
X144915790Y-100862673D01*
X144837293Y-100672695D01*
X144737696Y-100572924D01*
X145146000Y-100572924D01*
X145244833Y-100554327D01*
X145335605Y-100495917D01*
X145396500Y-100406794D01*
X145417924Y-100301000D01*
X145417924Y-99851000D01*
X145399327Y-99752167D01*
X145340917Y-99661395D01*
X145251794Y-99600500D01*
X145189700Y-99587926D01*
X145189700Y-99223076D01*
X145213076Y-99199700D01*
X145463722Y-99199700D01*
X145406390Y-99337771D01*
X145406210Y-99543327D01*
X145484707Y-99733305D01*
X145629931Y-99878782D01*
X145819771Y-99957610D01*
X146025327Y-99957790D01*
X146215305Y-99879293D01*
X146252851Y-99841813D01*
X146340206Y-99901500D01*
X146446000Y-99922924D01*
X147146000Y-99922924D01*
X147244833Y-99904327D01*
X147335605Y-99845917D01*
X147396500Y-99756794D01*
X147417924Y-99651000D01*
X147417924Y-99201000D01*
X147399327Y-99102167D01*
X147370855Y-99057921D01*
X147598388Y-98830388D01*
X147683731Y-98702663D01*
X147713700Y-98552000D01*
X147713700Y-98235924D01*
X149020000Y-98235924D01*
X149118833Y-98217327D01*
X149209605Y-98158917D01*
X149270500Y-98069794D01*
X149291924Y-97964000D01*
X149291924Y-96664000D01*
X149273327Y-96565167D01*
X149214917Y-96474395D01*
X149125794Y-96413500D01*
X149020000Y-96392076D01*
X145620000Y-96392076D01*
X145521167Y-96410673D01*
X145430395Y-96469083D01*
X145369500Y-96558206D01*
X145348076Y-96664000D01*
X145348076Y-97964000D01*
X145366673Y-98062833D01*
X145425083Y-98153605D01*
X145514206Y-98214500D01*
X145620000Y-98235924D01*
X146926300Y-98235924D01*
X146926300Y-98388924D01*
X146902924Y-98412300D01*
X145169712Y-98412300D01*
X145169790Y-98322673D01*
X145091293Y-98132695D01*
X144946069Y-97987218D01*
X144756229Y-97908390D01*
X144611130Y-97908263D01*
X144530222Y-97854202D01*
X144399000Y-97828100D01*
X142881786Y-97828100D01*
X142787069Y-97733218D01*
X142597229Y-97654390D01*
X142391673Y-97654210D01*
X142201695Y-97732707D01*
X142056218Y-97877931D01*
X141977390Y-98067771D01*
X141977210Y-98273327D01*
X142055707Y-98463305D01*
X142200931Y-98608782D01*
X142343819Y-98668114D01*
X142258395Y-98723083D01*
X142197500Y-98812206D01*
X142176076Y-98918000D01*
X142176076Y-99318000D01*
X142194673Y-99416833D01*
X142253083Y-99507605D01*
X142342206Y-99568500D01*
X142342977Y-99568656D01*
X142258395Y-99623083D01*
X142197500Y-99712206D01*
X142176076Y-99818000D01*
X142176076Y-100218000D01*
X142194673Y-100316833D01*
X142253083Y-100407605D01*
X142326655Y-100457874D01*
X142267856Y-100516571D01*
X142181399Y-100724782D01*
X142181202Y-100950229D01*
X142267295Y-101158590D01*
X142426571Y-101318144D01*
X142634782Y-101404601D01*
X142860229Y-101404798D01*
X143068590Y-101318705D01*
X143228144Y-101159429D01*
X143314601Y-100951218D01*
X143314798Y-100725771D01*
X143228705Y-100517410D01*
X143168673Y-100457273D01*
X143237605Y-100412917D01*
X143298500Y-100323794D01*
X143319924Y-100218000D01*
X143319924Y-99818000D01*
X143301327Y-99719167D01*
X143242917Y-99628395D01*
X143153794Y-99567500D01*
X143153023Y-99567344D01*
X143237605Y-99512917D01*
X143238437Y-99511700D01*
X144317000Y-99511700D01*
X144402300Y-99494733D01*
X144402300Y-99587299D01*
X144347167Y-99597673D01*
X144256395Y-99656083D01*
X144195500Y-99745206D01*
X144174076Y-99851000D01*
X144174076Y-100301000D01*
X144192673Y-100399833D01*
X144239108Y-100471995D01*
X144106695Y-100526707D01*
X143961218Y-100671931D01*
X143882390Y-100861771D01*
X143882333Y-100926902D01*
X143788673Y-100926820D01*
X143598695Y-101005317D01*
X143453218Y-101150541D01*
X143374390Y-101340381D01*
X143374210Y-101545937D01*
X143400031Y-101608429D01*
X143316688Y-101642865D01*
X143171211Y-101788089D01*
X143092383Y-101977929D01*
X143092203Y-102183485D01*
X143170700Y-102373463D01*
X143315924Y-102518940D01*
X143505764Y-102597768D01*
X143711320Y-102597948D01*
X143901298Y-102519451D01*
X143996857Y-102424058D01*
X145787356Y-102424058D01*
X145787210Y-102591327D01*
X145823633Y-102679478D01*
X144146488Y-102679478D01*
X144015266Y-102705580D01*
X143908229Y-102777099D01*
X141867782Y-102777099D01*
X141867790Y-102767673D01*
X141789293Y-102577695D01*
X141674906Y-102463109D01*
X141762810Y-102426788D01*
X141908287Y-102281564D01*
X141987115Y-102091724D01*
X141987295Y-101886168D01*
X141908798Y-101696190D01*
X141813405Y-101600631D01*
X141813405Y-101465505D01*
X141787303Y-101334283D01*
X141712972Y-101223038D01*
X140831467Y-100341533D01*
X140720222Y-100267202D01*
X140589000Y-100241100D01*
X140108447Y-100241100D01*
X139977225Y-100267202D01*
X139865980Y-100341533D01*
X138441533Y-101765980D01*
X138367202Y-101877225D01*
X138349597Y-101965732D01*
X138246218Y-102068931D01*
X138167390Y-102258771D01*
X138167210Y-102464327D01*
X138245707Y-102654305D01*
X138390931Y-102799782D01*
X138580771Y-102878610D01*
X138786327Y-102878790D01*
X138976305Y-102800293D01*
X139121782Y-102655069D01*
X139200610Y-102465229D01*
X139200790Y-102259673D01*
X139122293Y-102069695D01*
X139114996Y-102062385D01*
X139929244Y-101248137D01*
X139988083Y-101390539D01*
X140133307Y-101536016D01*
X140323147Y-101614844D01*
X140458170Y-101614962D01*
X140597702Y-101754494D01*
X140597702Y-101858874D01*
X140565229Y-101845390D01*
X140359673Y-101845210D01*
X140169695Y-101923707D01*
X140074136Y-102019100D01*
X139954000Y-102019100D01*
X139822778Y-102045202D01*
X139711533Y-102119533D01*
X138334739Y-103496327D01*
X138200673Y-103496210D01*
X138010695Y-103574707D01*
X137865218Y-103719931D01*
X137786390Y-103909771D01*
X137786210Y-104115327D01*
X131644900Y-104115327D01*
X131644900Y-103493924D01*
X131652000Y-103493924D01*
X131750833Y-103475327D01*
X131841605Y-103416917D01*
X131902500Y-103327794D01*
X131923924Y-103222000D01*
X131923924Y-102772000D01*
X131905327Y-102673167D01*
X131846917Y-102582395D01*
X131778114Y-102535384D01*
X135724006Y-102535384D01*
X135802503Y-102725362D01*
X135947727Y-102870839D01*
X136137567Y-102949667D01*
X136343123Y-102949847D01*
X136533101Y-102871350D01*
X136562746Y-102841757D01*
X136569083Y-102851605D01*
X136658206Y-102912500D01*
X136764000Y-102933924D01*
X137164000Y-102933924D01*
X137262833Y-102915327D01*
X137353605Y-102856917D01*
X137414500Y-102767794D01*
X137435924Y-102662000D01*
X137435924Y-102062000D01*
X137417327Y-101963167D01*
X137358917Y-101872395D01*
X137306900Y-101836853D01*
X137306900Y-101756287D01*
X137280798Y-101625065D01*
X137206467Y-101513820D01*
X136926158Y-101233511D01*
X136926275Y-101099445D01*
X136847778Y-100909467D01*
X136702554Y-100763990D01*
X136512714Y-100685162D01*
X136307158Y-100684982D01*
X136117180Y-100763479D01*
X135971703Y-100908703D01*
X135892875Y-101098543D01*
X135892695Y-101304099D01*
X135971192Y-101494077D01*
X136116416Y-101639554D01*
X136306256Y-101718382D01*
X136441279Y-101718500D01*
X136583806Y-101861027D01*
X136574395Y-101867083D01*
X136513500Y-101956206D01*
X136507782Y-101984444D01*
X136344025Y-101916447D01*
X136138469Y-101916267D01*
X135948491Y-101994764D01*
X135803014Y-102139988D01*
X135724186Y-102329828D01*
X135724006Y-102535384D01*
X131778114Y-102535384D01*
X131757794Y-102521500D01*
X131652000Y-102500076D01*
X131644900Y-102500076D01*
X131644900Y-100996034D01*
X131794261Y-100846673D01*
X131928327Y-100846790D01*
X132118305Y-100768293D01*
X132263782Y-100623069D01*
X132342610Y-100433229D01*
X132342790Y-100227673D01*
X132264293Y-100037695D01*
X132119069Y-99892218D01*
X131929229Y-99813390D01*
X131723673Y-99813210D01*
X131533695Y-99891707D01*
X131388218Y-100036931D01*
X131309390Y-100226771D01*
X131309272Y-100361794D01*
X131059533Y-100611533D01*
X130985202Y-100722778D01*
X130959100Y-100854000D01*
X130959100Y-102500076D01*
X130952000Y-102500076D01*
X130853167Y-102518673D01*
X130762395Y-102577083D01*
X130709772Y-102654100D01*
X128920034Y-102654100D01*
X128739900Y-102473966D01*
X128739900Y-102368786D01*
X128834782Y-102274069D01*
X128913610Y-102084229D01*
X128913790Y-101878673D01*
X128835293Y-101688695D01*
X128690069Y-101543218D01*
X128500229Y-101464390D01*
X128294673Y-101464210D01*
X128104695Y-101542707D01*
X127959218Y-101687931D01*
X127880390Y-101877771D01*
X127880210Y-102083327D01*
X127958707Y-102273305D01*
X128054100Y-102368864D01*
X128054100Y-102616000D01*
X128080202Y-102747222D01*
X128154533Y-102858467D01*
X128535533Y-103239467D01*
X128609815Y-103289100D01*
X127913852Y-103289100D01*
X127903327Y-103233167D01*
X127844917Y-103142395D01*
X127755794Y-103081500D01*
X127650000Y-103060076D01*
X127250000Y-103060076D01*
X127151167Y-103078673D01*
X127060395Y-103137083D01*
X126999500Y-103226206D01*
X126999344Y-103226977D01*
X126944917Y-103142395D01*
X126855794Y-103081500D01*
X126750000Y-103060076D01*
X126350000Y-103060076D01*
X126251167Y-103078673D01*
X126160395Y-103137083D01*
X126099500Y-103226206D01*
X126078076Y-103332000D01*
X126078076Y-103433990D01*
X125811695Y-103700371D01*
X125617771Y-103700202D01*
X125409410Y-103786295D01*
X125249856Y-103945571D01*
X125163399Y-104153782D01*
X125163202Y-104379229D01*
X121705750Y-104379229D01*
X116927700Y-102631162D01*
X116927700Y-99909700D01*
X129286000Y-99909700D01*
X129416763Y-99883690D01*
X129527618Y-99809618D01*
X129601690Y-99698763D01*
X129627700Y-99568000D01*
X129627700Y-98608329D01*
X129754931Y-98735782D01*
X129944771Y-98814610D01*
X130150327Y-98814790D01*
X130340305Y-98736293D01*
X130485782Y-98591069D01*
X130536119Y-98469843D01*
X130572206Y-98494500D01*
X130678000Y-98515924D01*
X131328000Y-98515924D01*
X131426833Y-98497327D01*
X131517605Y-98438917D01*
X131578500Y-98349794D01*
X131599924Y-98244000D01*
X131599924Y-97844000D01*
X131581327Y-97745167D01*
X131564920Y-97719669D01*
X131578500Y-97699794D01*
X131599924Y-97594000D01*
X131599924Y-97194000D01*
X131581327Y-97095167D01*
X131522917Y-97004395D01*
X131433794Y-96943500D01*
X131328000Y-96922076D01*
X130678000Y-96922076D01*
X130579167Y-96940673D01*
X130488395Y-96999083D01*
X130452853Y-97051100D01*
X130302034Y-97051100D01*
X130136900Y-96885966D01*
X130136900Y-95479327D01*
X130166210Y-95479327D01*
X130244707Y-95669305D01*
X130389931Y-95814782D01*
X130579771Y-95893610D01*
X130785327Y-95893790D01*
X130975305Y-95815293D01*
X131120782Y-95670069D01*
X131199610Y-95480229D01*
X131199623Y-95465900D01*
X136712616Y-95465900D01*
X136807333Y-95560782D01*
X136926467Y-95610251D01*
X136926318Y-95780480D01*
X136985247Y-95923100D01*
X135007786Y-95923100D01*
X134913069Y-95828218D01*
X134723229Y-95749390D01*
X134517673Y-95749210D01*
X134327695Y-95827707D01*
X134182218Y-95972931D01*
X134103390Y-96162771D01*
X134103210Y-96368327D01*
X134181707Y-96558305D01*
X134326931Y-96703782D01*
X134516771Y-96782610D01*
X134722327Y-96782790D01*
X134912305Y-96704293D01*
X135007864Y-96608900D01*
X136014592Y-96608900D01*
X136005500Y-96622206D01*
X135984076Y-96728000D01*
X135984076Y-97328000D01*
X136002673Y-97426833D01*
X136061083Y-97517605D01*
X136121100Y-97558613D01*
X136121100Y-98449444D01*
X136040167Y-98464673D01*
X135949395Y-98523083D01*
X135913853Y-98575100D01*
X135794034Y-98575100D01*
X135445924Y-98226990D01*
X135445924Y-98040000D01*
X135427327Y-97941167D01*
X135368917Y-97850395D01*
X135279794Y-97789500D01*
X135174000Y-97768076D01*
X134870395Y-97768076D01*
X134809222Y-97727202D01*
X134678000Y-97701100D01*
X133452971Y-97701100D01*
X133422917Y-97654395D01*
X133333794Y-97593500D01*
X133228000Y-97572076D01*
X132578000Y-97572076D01*
X132479167Y-97590673D01*
X132388395Y-97649083D01*
X132327500Y-97738206D01*
X132306076Y-97844000D01*
X132306076Y-98244000D01*
X132324673Y-98342833D01*
X132341080Y-98368331D01*
X132327500Y-98388206D01*
X132306076Y-98494000D01*
X132306076Y-98894000D01*
X132324673Y-98992833D01*
X132383083Y-99083605D01*
X132472206Y-99144500D01*
X132578000Y-99165924D01*
X133228000Y-99165924D01*
X133326833Y-99147327D01*
X133417605Y-99088917D01*
X133478500Y-98999794D01*
X133499924Y-98894000D01*
X133499924Y-98874299D01*
X133891365Y-98874299D01*
X134023100Y-99006034D01*
X134023100Y-99316400D01*
X134049202Y-99447622D01*
X134123533Y-99558867D01*
X134179133Y-99614467D01*
X134290378Y-99688798D01*
X134338377Y-99698346D01*
X134379083Y-99761605D01*
X134468206Y-99822500D01*
X134574000Y-99843924D01*
X135174000Y-99843924D01*
X135272833Y-99825327D01*
X135355316Y-99772250D01*
X135393533Y-99810467D01*
X135504778Y-99884798D01*
X135636000Y-99910900D01*
X135914029Y-99910900D01*
X135944083Y-99957605D01*
X136033206Y-100018500D01*
X136139000Y-100039924D01*
X136789000Y-100039924D01*
X136887833Y-100021327D01*
X136978605Y-99962917D01*
X137014147Y-99910900D01*
X137789392Y-99910900D01*
X137788500Y-99912206D01*
X137767076Y-100018000D01*
X137767076Y-100418000D01*
X137785673Y-100516833D01*
X137844083Y-100607605D01*
X137933206Y-100668500D01*
X138039000Y-100689924D01*
X138689000Y-100689924D01*
X138787833Y-100671327D01*
X138878605Y-100612917D01*
X138925589Y-100544154D01*
X138972622Y-100534798D01*
X139083867Y-100460467D01*
X139434467Y-100109867D01*
X139508798Y-99998622D01*
X139534900Y-99867400D01*
X139534900Y-99828786D01*
X139629782Y-99734069D01*
X139708610Y-99544229D01*
X139708790Y-99338673D01*
X139630293Y-99148695D01*
X139485069Y-99003218D01*
X139295229Y-98924390D01*
X139089673Y-98924210D01*
X138899695Y-99002707D01*
X138786404Y-99115801D01*
X138689000Y-99096076D01*
X138039000Y-99096076D01*
X137940167Y-99114673D01*
X137883900Y-99150880D01*
X137883900Y-99093390D01*
X138017241Y-98960281D01*
X138096069Y-98770441D01*
X138096249Y-98564885D01*
X138017752Y-98374907D01*
X137937519Y-98294534D01*
X138086357Y-98233036D01*
X138181916Y-98137643D01*
X138296740Y-98137643D01*
X138486842Y-98327745D01*
X138486725Y-98461811D01*
X138565222Y-98651789D01*
X138710446Y-98797266D01*
X138900286Y-98876094D01*
X139105842Y-98876274D01*
X139295820Y-98797777D01*
X139441297Y-98652553D01*
X139520125Y-98462713D01*
X139520212Y-98363412D01*
X140573854Y-99417054D01*
X140573737Y-99551120D01*
X140652234Y-99741098D01*
X140797458Y-99886575D01*
X140987298Y-99965403D01*
X141192854Y-99965583D01*
X141382832Y-99887086D01*
X141528309Y-99741862D01*
X141607137Y-99552022D01*
X141607214Y-99463718D01*
X141609717Y-99463720D01*
X141799695Y-99385223D01*
X141945172Y-99239999D01*
X142024000Y-99050159D01*
X142024180Y-98844603D01*
X141945683Y-98654625D01*
X141800459Y-98509148D01*
X141610619Y-98430320D01*
X141441517Y-98430172D01*
X141534782Y-98337069D01*
X141613610Y-98147229D01*
X141613790Y-97941673D01*
X141535293Y-97751695D01*
X141439900Y-97656136D01*
X141439900Y-96898600D01*
X141413798Y-96767378D01*
X141339467Y-96656133D01*
X139378867Y-94695533D01*
X139267622Y-94621202D01*
X139219623Y-94611654D01*
X139178917Y-94548395D01*
X139089794Y-94487500D01*
X139089023Y-94487344D01*
X139173605Y-94432917D01*
X139174437Y-94431700D01*
X140692518Y-94431700D01*
X140743295Y-94554590D01*
X140902571Y-94714144D01*
X141110782Y-94800601D01*
X141336229Y-94800798D01*
X141544590Y-94714705D01*
X141704144Y-94555429D01*
X141790601Y-94347218D01*
X141790798Y-94121771D01*
X141704705Y-93913410D01*
X141545429Y-93753856D01*
X141337218Y-93667399D01*
X141143273Y-93667230D01*
X141028000Y-93644300D01*
X139172924Y-93644300D01*
X139089794Y-93587500D01*
X138984000Y-93566076D01*
X138384000Y-93566076D01*
X138285167Y-93584673D01*
X138194395Y-93643083D01*
X138133500Y-93732206D01*
X138112076Y-93838000D01*
X138112076Y-93880452D01*
X138025229Y-93844390D01*
X137819673Y-93844210D01*
X137629695Y-93922707D01*
X137484218Y-94067931D01*
X137405390Y-94257771D01*
X137405366Y-94284969D01*
X137340670Y-94272100D01*
X136157924Y-94272100D01*
X136157924Y-93764000D01*
X136139327Y-93665167D01*
X136080917Y-93574395D01*
X135991794Y-93513500D01*
X135886000Y-93492076D01*
X135386000Y-93492076D01*
X135287167Y-93510673D01*
X135196395Y-93569083D01*
X135146208Y-93642535D01*
X135100705Y-93532410D01*
X134941429Y-93372856D01*
X134733218Y-93286399D01*
X134507771Y-93286202D01*
X134299410Y-93372295D01*
X134139856Y-93531571D01*
X134053399Y-93739782D01*
X134053202Y-93965229D01*
X134139295Y-94173590D01*
X134234889Y-94269351D01*
X134182218Y-94321931D01*
X134103390Y-94511771D01*
X134103210Y-94717327D01*
X134129147Y-94780100D01*
X130937000Y-94780100D01*
X130805778Y-94806202D01*
X130724760Y-94860336D01*
X130580673Y-94860210D01*
X130390695Y-94938707D01*
X130245218Y-95083931D01*
X130166390Y-95273771D01*
X130166210Y-95479327D01*
X130136900Y-95479327D01*
X130136900Y-92215400D01*
X130127793Y-92169616D01*
X130175500Y-92099794D01*
X130175656Y-92099023D01*
X130230083Y-92183605D01*
X130319206Y-92244500D01*
X130425000Y-92265924D01*
X130825000Y-92265924D01*
X130923833Y-92247327D01*
X131014605Y-92188917D01*
X131075500Y-92099794D01*
X131077949Y-92087700D01*
X132334000Y-92087700D01*
X132484663Y-92057731D01*
X132561072Y-92006676D01*
X132700229Y-92006798D01*
X132908590Y-91920705D01*
X133068144Y-91761429D01*
X133154601Y-91553218D01*
X133154798Y-91327771D01*
X133068705Y-91119410D01*
X132909429Y-90959856D01*
X132701218Y-90873399D01*
X132475771Y-90873202D01*
X132267410Y-90959295D01*
X132107856Y-91118571D01*
X132032395Y-91300300D01*
X131079293Y-91300300D01*
X131078327Y-91295167D01*
X131019917Y-91204395D01*
X130930794Y-91143500D01*
X130825000Y-91122076D01*
X130425000Y-91122076D01*
X130326167Y-91140673D01*
X130235395Y-91199083D01*
X130174500Y-91288206D01*
X130174344Y-91288977D01*
X130119917Y-91204395D01*
X130047700Y-91155052D01*
X130104782Y-91098069D01*
X130183610Y-90908229D01*
X130183790Y-90702673D01*
X130105293Y-90512695D01*
X129960069Y-90367218D01*
X129770229Y-90288390D01*
X129564673Y-90288210D01*
X129374695Y-90366707D01*
X129229218Y-90511931D01*
X129150390Y-90701771D01*
X129150210Y-90907327D01*
X129228707Y-91097305D01*
X129324100Y-91192864D01*
X129324100Y-91215614D01*
X129274500Y-91288206D01*
X129253076Y-91394000D01*
X129253076Y-91994000D01*
X129271673Y-92092833D01*
X129330083Y-92183605D01*
X129398846Y-92230589D01*
X129408202Y-92277622D01*
X129451100Y-92341824D01*
X129451100Y-93179254D01*
X129416763Y-93156310D01*
X129286000Y-93130300D01*
X116927700Y-93130300D01*
X116927700Y-90408838D01*
X120772163Y-89002327D01*
X140199210Y-89002327D01*
X140277707Y-89192305D01*
X140422931Y-89337782D01*
X140612771Y-89416610D01*
X140818327Y-89416790D01*
X141008305Y-89338293D01*
X141103864Y-89242900D01*
X142478966Y-89242900D01*
X146188533Y-92952467D01*
X146299778Y-93026798D01*
X146431000Y-93052900D01*
X146551214Y-93052900D01*
X146645931Y-93147782D01*
X146835771Y-93226610D01*
X147041327Y-93226790D01*
X147231305Y-93148293D01*
X147376782Y-93003069D01*
X147455610Y-92813229D01*
X147455790Y-92607673D01*
X147377293Y-92417695D01*
X147232069Y-92272218D01*
X147042229Y-92193390D01*
X146836673Y-92193210D01*
X146646695Y-92271707D01*
X146562094Y-92356160D01*
X142863467Y-88657533D01*
X142752222Y-88583202D01*
X142621000Y-88557100D01*
X141103786Y-88557100D01*
X141009069Y-88462218D01*
X140819229Y-88383390D01*
X140613673Y-88383210D01*
X140423695Y-88461707D01*
X140278218Y-88606931D01*
X140199390Y-88796771D01*
X140199210Y-89002327D01*
X120772163Y-89002327D01*
X127060543Y-86701700D01*
X134278300Y-86701700D01*
X134278300Y-88138000D01*
D42*
G36*
X171653200Y-102743000D02*
X165481000Y-102743000D01*
X165481000Y-97663000D01*
X171653200Y-97663000D01*
X171653200Y-102743000D01*
X171653200Y-102743000D01*
G37*
X171653200Y-102743000D02*
X165481000Y-102743000D01*
X165481000Y-97663000D01*
X171653200Y-97663000D01*
X171653200Y-102743000D01*
G36*
X173355000Y-102743000D02*
X173123582Y-102743000D01*
X173034679Y-102653942D01*
X172830841Y-102569301D01*
X172610128Y-102569108D01*
X172406142Y-102653393D01*
X172316379Y-102743000D01*
X172085000Y-102743000D01*
X172085000Y-97663000D01*
X173355000Y-97663000D01*
X173355000Y-102743000D01*
X173355000Y-102743000D01*
G37*
X173355000Y-102743000D02*
X173123582Y-102743000D01*
X173034679Y-102653942D01*
X172830841Y-102569301D01*
X172610128Y-102569108D01*
X172406142Y-102653393D01*
X172316379Y-102743000D01*
X172085000Y-102743000D01*
X172085000Y-97663000D01*
X173355000Y-97663000D01*
X173355000Y-102743000D01*
G36*
X174306000Y-93599771D02*
X175366000Y-93599771D01*
X175370098Y-93599000D01*
X175387000Y-93599000D01*
X175387000Y-99135680D01*
X175293443Y-99229074D01*
X175208802Y-99432912D01*
X175208609Y-99653625D01*
X175292894Y-99857611D01*
X175387000Y-99951881D01*
X175387000Y-100965000D01*
X174117000Y-100965000D01*
X174117000Y-93599000D01*
X174302193Y-93599000D01*
X174306000Y-93599771D01*
X174306000Y-93599771D01*
G37*
X174306000Y-93599771D02*
X175366000Y-93599771D01*
X175370098Y-93599000D01*
X175387000Y-93599000D01*
X175387000Y-99135680D01*
X175293443Y-99229074D01*
X175208802Y-99432912D01*
X175208609Y-99653625D01*
X175292894Y-99857611D01*
X175387000Y-99951881D01*
X175387000Y-100965000D01*
X174117000Y-100965000D01*
X174117000Y-93599000D01*
X174302193Y-93599000D01*
X174306000Y-93599771D01*
M02*
