G04 #@! TF.FileFunction,Legend,Top*
%FSLAX46Y46*%
G04 Gerber Fmt 4.6, Leading zero omitted, Abs format (unit mm)*
G04 Created by KiCad (PCBNEW 4.0.6) date Fri Jun  2 23:15:54 2017*
%MOMM*%
%LPD*%
G01*
G04 APERTURE LIST*
%ADD10C,0.100000*%
%ADD11C,0.254000*%
%ADD12C,0.120000*%
%ADD13C,0.150000*%
%ADD14C,0.127000*%
%ADD15C,0.125000*%
G04 APERTURE END LIST*
D10*
D11*
X142989904Y-89220524D02*
X142566571Y-88615762D01*
X142264190Y-89220524D02*
X142264190Y-87950524D01*
X142747999Y-87950524D01*
X142868952Y-88011000D01*
X142929428Y-88071476D01*
X142989904Y-88192429D01*
X142989904Y-88373857D01*
X142929428Y-88494810D01*
X142868952Y-88555286D01*
X142747999Y-88615762D01*
X142264190Y-88615762D01*
X143352761Y-87950524D02*
X144078476Y-87950524D01*
X143715619Y-89220524D02*
X143715619Y-87950524D01*
X145408952Y-89160048D02*
X145590380Y-89220524D01*
X145892761Y-89220524D01*
X146013714Y-89160048D01*
X146074190Y-89099571D01*
X146134666Y-88978619D01*
X146134666Y-88857667D01*
X146074190Y-88736714D01*
X146013714Y-88676238D01*
X145892761Y-88615762D01*
X145650857Y-88555286D01*
X145529904Y-88494810D01*
X145469428Y-88434333D01*
X145408952Y-88313381D01*
X145408952Y-88192429D01*
X145469428Y-88071476D01*
X145529904Y-88011000D01*
X145650857Y-87950524D01*
X145953237Y-87950524D01*
X146134666Y-88011000D01*
X146860381Y-89220524D02*
X146739428Y-89160048D01*
X146678952Y-89099571D01*
X146618476Y-88978619D01*
X146618476Y-88615762D01*
X146678952Y-88494810D01*
X146739428Y-88434333D01*
X146860381Y-88373857D01*
X147041809Y-88373857D01*
X147162761Y-88434333D01*
X147223238Y-88494810D01*
X147283714Y-88615762D01*
X147283714Y-88978619D01*
X147223238Y-89099571D01*
X147162761Y-89160048D01*
X147041809Y-89220524D01*
X146860381Y-89220524D01*
X148009429Y-89220524D02*
X147888476Y-89160048D01*
X147828000Y-89039095D01*
X147828000Y-87950524D01*
X149037524Y-89220524D02*
X149037524Y-87950524D01*
X149037524Y-89160048D02*
X148916571Y-89220524D01*
X148674667Y-89220524D01*
X148553714Y-89160048D01*
X148493238Y-89099571D01*
X148432762Y-88978619D01*
X148432762Y-88615762D01*
X148493238Y-88494810D01*
X148553714Y-88434333D01*
X148674667Y-88373857D01*
X148916571Y-88373857D01*
X149037524Y-88434333D01*
X150126095Y-89160048D02*
X150005143Y-89220524D01*
X149763238Y-89220524D01*
X149642286Y-89160048D01*
X149581810Y-89039095D01*
X149581810Y-88555286D01*
X149642286Y-88434333D01*
X149763238Y-88373857D01*
X150005143Y-88373857D01*
X150126095Y-88434333D01*
X150186572Y-88555286D01*
X150186572Y-88676238D01*
X149581810Y-88797190D01*
X150730857Y-89220524D02*
X150730857Y-88373857D01*
X150730857Y-88615762D02*
X150791333Y-88494810D01*
X150851809Y-88434333D01*
X150972762Y-88373857D01*
X151093714Y-88373857D01*
X151517047Y-89220524D02*
X151517047Y-88373857D01*
X151517047Y-87950524D02*
X151456571Y-88011000D01*
X151517047Y-88071476D01*
X151577523Y-88011000D01*
X151517047Y-87950524D01*
X151517047Y-88071476D01*
X152121809Y-88373857D02*
X152121809Y-89220524D01*
X152121809Y-88494810D02*
X152182285Y-88434333D01*
X152303238Y-88373857D01*
X152484666Y-88373857D01*
X152605618Y-88434333D01*
X152666095Y-88555286D01*
X152666095Y-89220524D01*
X153815143Y-88373857D02*
X153815143Y-89401952D01*
X153754666Y-89522905D01*
X153694190Y-89583381D01*
X153573238Y-89643857D01*
X153391809Y-89643857D01*
X153270857Y-89583381D01*
X153815143Y-89160048D02*
X153694190Y-89220524D01*
X153452286Y-89220524D01*
X153331333Y-89160048D01*
X153270857Y-89099571D01*
X153210381Y-88978619D01*
X153210381Y-88615762D01*
X153270857Y-88494810D01*
X153331333Y-88434333D01*
X153452286Y-88373857D01*
X153694190Y-88373857D01*
X153815143Y-88434333D01*
X155387524Y-89220524D02*
X155387524Y-87950524D01*
X155992286Y-89220524D02*
X155992286Y-88373857D01*
X155992286Y-88615762D02*
X156052762Y-88494810D01*
X156113238Y-88434333D01*
X156234191Y-88373857D01*
X156355143Y-88373857D01*
X156959905Y-89220524D02*
X156838952Y-89160048D01*
X156778476Y-89099571D01*
X156718000Y-88978619D01*
X156718000Y-88615762D01*
X156778476Y-88494810D01*
X156838952Y-88434333D01*
X156959905Y-88373857D01*
X157141333Y-88373857D01*
X157262285Y-88434333D01*
X157322762Y-88494810D01*
X157383238Y-88615762D01*
X157383238Y-88978619D01*
X157322762Y-89099571D01*
X157262285Y-89160048D01*
X157141333Y-89220524D01*
X156959905Y-89220524D01*
X157927524Y-88373857D02*
X157927524Y-89220524D01*
X157927524Y-88494810D02*
X157988000Y-88434333D01*
X158108953Y-88373857D01*
X158290381Y-88373857D01*
X158411333Y-88434333D01*
X158471810Y-88555286D01*
X158471810Y-89220524D01*
D12*
X117225000Y-104797000D02*
X117725000Y-104797000D01*
X117725000Y-103737000D02*
X117225000Y-103737000D01*
X120146000Y-98006000D02*
X120646000Y-98006000D01*
X120646000Y-97066000D02*
X120146000Y-97066000D01*
X174282000Y-103128000D02*
X174282000Y-103628000D01*
X175222000Y-103628000D02*
X175222000Y-103128000D01*
X175396000Y-103724000D02*
X175396000Y-102524000D01*
X177156000Y-102524000D02*
X177156000Y-103724000D01*
X118114000Y-98066000D02*
X118614000Y-98066000D01*
X118614000Y-97006000D02*
X118114000Y-97006000D01*
X119696000Y-103527000D02*
X120196000Y-103527000D01*
X120196000Y-102467000D02*
X119696000Y-102467000D01*
X119696000Y-104797000D02*
X120196000Y-104797000D01*
X120196000Y-103737000D02*
X119696000Y-103737000D01*
X117225000Y-103527000D02*
X117725000Y-103527000D01*
X117725000Y-102467000D02*
X117225000Y-102467000D01*
D13*
X164870000Y-102290000D02*
X140870000Y-102290000D01*
X173870000Y-90890000D02*
X173870000Y-94290000D01*
X140870000Y-90890000D02*
X173870000Y-90890000D01*
X140870000Y-102290000D02*
X140870000Y-90890000D01*
X172511421Y-100790000D02*
G75*
G03X172511421Y-100790000I-141421J0D01*
G01*
X172511421Y-94790000D02*
G75*
G03X172511421Y-94790000I-141421J0D01*
G01*
X172070000Y-93290000D02*
X173870000Y-95090000D01*
X165870000Y-93290000D02*
X165870000Y-93390000D01*
X172070000Y-93290000D02*
X165870000Y-93290000D01*
X173870000Y-102290000D02*
X173870000Y-95090000D01*
X165870000Y-102290000D02*
X173870000Y-102290000D01*
X165870000Y-102190000D02*
X165870000Y-102290000D01*
X121480000Y-91980000D02*
G75*
G03X121480000Y-91980000I-100000J0D01*
G01*
X120980000Y-92480000D02*
X120480000Y-92480000D01*
X120980000Y-93780000D02*
X120980000Y-92480000D01*
X117780000Y-92480000D02*
X118280000Y-92480000D01*
X117780000Y-93780000D02*
X117780000Y-92480000D01*
X117780000Y-95480000D02*
X117780000Y-94980000D01*
X118280000Y-95480000D02*
X117780000Y-95480000D01*
X120980000Y-95480000D02*
X120480000Y-95480000D01*
X120980000Y-94980000D02*
X120980000Y-95480000D01*
X116883000Y-87754000D02*
G75*
G03X116883000Y-87754000I-100000J0D01*
G01*
X116883000Y-90254000D02*
X116883000Y-90054000D01*
X119083000Y-90254000D02*
X116883000Y-90254000D01*
X119083000Y-90054000D02*
X119083000Y-90254000D01*
X116983000Y-88054000D02*
X116983000Y-88254000D01*
X119083000Y-88054000D02*
X116983000Y-88054000D01*
X119083000Y-88254000D02*
X119083000Y-88054000D01*
D12*
X119996000Y-99170000D02*
X118096000Y-99170000D01*
X118596000Y-101490000D02*
X119996000Y-101490000D01*
X122136000Y-103882000D02*
X122136000Y-103382000D01*
X121196000Y-103382000D02*
X121196000Y-103882000D01*
D13*
X103886000Y-99620000D02*
X103886000Y-102020000D01*
X103886000Y-93420000D02*
X103886000Y-91020000D01*
X116686000Y-99620000D02*
X103886000Y-99620000D01*
X116686000Y-93420000D02*
X116686000Y-99620000D01*
X103886000Y-93420000D02*
X116686000Y-93420000D01*
X191310000Y-91320000D02*
X191310000Y-88320000D01*
X191310000Y-101620000D02*
X191310000Y-104320000D01*
X180410000Y-91320000D02*
X191310000Y-91320000D01*
X180410000Y-101620000D02*
X180410000Y-91320000D01*
X191310000Y-101620000D02*
X180410000Y-101620000D01*
X124564000Y-95420000D02*
X124564000Y-93620000D01*
X124564000Y-99420000D02*
X124564000Y-97620000D01*
X137564000Y-99420000D02*
X137564000Y-97620000D01*
X137564000Y-93620000D02*
X137564000Y-95420000D01*
X137564000Y-103020000D02*
X137564000Y-101720000D01*
X124564000Y-103020000D02*
X137564000Y-103020000D01*
X124564000Y-101720000D02*
X124564000Y-103020000D01*
X137564000Y-90020000D02*
X137564000Y-91320000D01*
X124564000Y-90020000D02*
X137564000Y-90020000D01*
X124564000Y-91320000D02*
X124564000Y-90020000D01*
X136164000Y-101320000D02*
X132964000Y-102820000D01*
X132964000Y-101320000D02*
X136164000Y-102820000D01*
X129164000Y-101320000D02*
X125964000Y-102820000D01*
X125964000Y-101320000D02*
X129164000Y-102820000D01*
X132664000Y-90220000D02*
X129464000Y-91720000D01*
X129464000Y-90220000D02*
X132664000Y-91720000D01*
X132964000Y-101320000D02*
X132964000Y-102820000D01*
X136164000Y-101320000D02*
X132964000Y-101320000D01*
X136164000Y-102820000D02*
X136164000Y-101320000D01*
X132964000Y-102820000D02*
X136164000Y-102820000D01*
X125964000Y-102820000D02*
X125964000Y-101320000D01*
X129164000Y-102820000D02*
X125964000Y-102820000D01*
X129164000Y-101320000D02*
X129164000Y-102820000D01*
X125964000Y-101320000D02*
X129164000Y-101320000D01*
X129464000Y-91720000D02*
X129464000Y-90220000D01*
X132664000Y-91720000D02*
X129464000Y-91720000D01*
X132664000Y-90220000D02*
X132664000Y-91720000D01*
X129464000Y-90220000D02*
X132664000Y-90220000D01*
D14*
X115845167Y-104620786D02*
X115814929Y-104651024D01*
X115724214Y-104681262D01*
X115663738Y-104681262D01*
X115573024Y-104651024D01*
X115512548Y-104590548D01*
X115482309Y-104530071D01*
X115452071Y-104409119D01*
X115452071Y-104318405D01*
X115482309Y-104197452D01*
X115512548Y-104136976D01*
X115573024Y-104076500D01*
X115663738Y-104046262D01*
X115724214Y-104046262D01*
X115814929Y-104076500D01*
X115845167Y-104106738D01*
X116087071Y-104106738D02*
X116117309Y-104076500D01*
X116177786Y-104046262D01*
X116328976Y-104046262D01*
X116389452Y-104076500D01*
X116419690Y-104106738D01*
X116449929Y-104167214D01*
X116449929Y-104227690D01*
X116419690Y-104318405D01*
X116056833Y-104681262D01*
X116449929Y-104681262D01*
X120290167Y-98651786D02*
X120259929Y-98682024D01*
X120169214Y-98712262D01*
X120108738Y-98712262D01*
X120018024Y-98682024D01*
X119957548Y-98621548D01*
X119927309Y-98561071D01*
X119897071Y-98440119D01*
X119897071Y-98349405D01*
X119927309Y-98228452D01*
X119957548Y-98167976D01*
X120018024Y-98107500D01*
X120108738Y-98077262D01*
X120169214Y-98077262D01*
X120259929Y-98107500D01*
X120290167Y-98137738D01*
X120501833Y-98077262D02*
X120894929Y-98077262D01*
X120683262Y-98319167D01*
X120773976Y-98319167D01*
X120834452Y-98349405D01*
X120864690Y-98379643D01*
X120894929Y-98440119D01*
X120894929Y-98591310D01*
X120864690Y-98651786D01*
X120834452Y-98682024D01*
X120773976Y-98712262D01*
X120592548Y-98712262D01*
X120532071Y-98682024D01*
X120501833Y-98651786D01*
X173962786Y-104548214D02*
X173993024Y-104578452D01*
X174023262Y-104669167D01*
X174023262Y-104729643D01*
X173993024Y-104820357D01*
X173932548Y-104880833D01*
X173872071Y-104911072D01*
X173751119Y-104941310D01*
X173660405Y-104941310D01*
X173539452Y-104911072D01*
X173478976Y-104880833D01*
X173418500Y-104820357D01*
X173388262Y-104729643D01*
X173388262Y-104669167D01*
X173418500Y-104578452D01*
X173448738Y-104548214D01*
X174023262Y-103943452D02*
X174023262Y-104306310D01*
X174023262Y-104124881D02*
X173388262Y-104124881D01*
X173478976Y-104185357D01*
X173539452Y-104245833D01*
X173569690Y-104306310D01*
X173388262Y-103550357D02*
X173388262Y-103489881D01*
X173418500Y-103429405D01*
X173448738Y-103399167D01*
X173509214Y-103368929D01*
X173630167Y-103338690D01*
X173781357Y-103338690D01*
X173902310Y-103368929D01*
X173962786Y-103399167D01*
X173993024Y-103429405D01*
X174023262Y-103489881D01*
X174023262Y-103550357D01*
X173993024Y-103610833D01*
X173962786Y-103641071D01*
X173902310Y-103671310D01*
X173781357Y-103701548D01*
X173630167Y-103701548D01*
X173509214Y-103671310D01*
X173448738Y-103641071D01*
X173418500Y-103610833D01*
X173388262Y-103550357D01*
X178213262Y-103229834D02*
X178213262Y-103532215D01*
X177578262Y-103532215D01*
X177638738Y-103048405D02*
X177608500Y-103018167D01*
X177578262Y-102957690D01*
X177578262Y-102806500D01*
X177608500Y-102746024D01*
X177638738Y-102715786D01*
X177699214Y-102685547D01*
X177759690Y-102685547D01*
X177850405Y-102715786D01*
X178213262Y-103078643D01*
X178213262Y-102685547D01*
X118258167Y-98839262D02*
X118046500Y-98536881D01*
X117895309Y-98839262D02*
X117895309Y-98204262D01*
X118137214Y-98204262D01*
X118197690Y-98234500D01*
X118227929Y-98264738D01*
X118258167Y-98325214D01*
X118258167Y-98415929D01*
X118227929Y-98476405D01*
X118197690Y-98506643D01*
X118137214Y-98536881D01*
X117895309Y-98536881D01*
X118832690Y-98204262D02*
X118530309Y-98204262D01*
X118500071Y-98506643D01*
X118530309Y-98476405D01*
X118590786Y-98446167D01*
X118741976Y-98446167D01*
X118802452Y-98476405D01*
X118832690Y-98506643D01*
X118862929Y-98567119D01*
X118862929Y-98718310D01*
X118832690Y-98778786D01*
X118802452Y-98809024D01*
X118741976Y-98839262D01*
X118590786Y-98839262D01*
X118530309Y-98809024D01*
X118500071Y-98778786D01*
X121306167Y-103284262D02*
X121094500Y-102981881D01*
X120943309Y-103284262D02*
X120943309Y-102649262D01*
X121185214Y-102649262D01*
X121245690Y-102679500D01*
X121275929Y-102709738D01*
X121306167Y-102770214D01*
X121306167Y-102860929D01*
X121275929Y-102921405D01*
X121245690Y-102951643D01*
X121185214Y-102981881D01*
X120943309Y-102981881D01*
X121850452Y-102649262D02*
X121729500Y-102649262D01*
X121669024Y-102679500D01*
X121638786Y-102709738D01*
X121578309Y-102800452D01*
X121548071Y-102921405D01*
X121548071Y-103163310D01*
X121578309Y-103223786D01*
X121608548Y-103254024D01*
X121669024Y-103284262D01*
X121789976Y-103284262D01*
X121850452Y-103254024D01*
X121880690Y-103223786D01*
X121910929Y-103163310D01*
X121910929Y-103012119D01*
X121880690Y-102951643D01*
X121850452Y-102921405D01*
X121789976Y-102891167D01*
X121669024Y-102891167D01*
X121608548Y-102921405D01*
X121578309Y-102951643D01*
X121548071Y-103012119D01*
X121306167Y-104554262D02*
X121094500Y-104251881D01*
X120943309Y-104554262D02*
X120943309Y-103919262D01*
X121185214Y-103919262D01*
X121245690Y-103949500D01*
X121275929Y-103979738D01*
X121306167Y-104040214D01*
X121306167Y-104130929D01*
X121275929Y-104191405D01*
X121245690Y-104221643D01*
X121185214Y-104251881D01*
X120943309Y-104251881D01*
X121517833Y-103919262D02*
X121941167Y-103919262D01*
X121669024Y-104554262D01*
X115845167Y-103284262D02*
X115633500Y-102981881D01*
X115482309Y-103284262D02*
X115482309Y-102649262D01*
X115724214Y-102649262D01*
X115784690Y-102679500D01*
X115814929Y-102709738D01*
X115845167Y-102770214D01*
X115845167Y-102860929D01*
X115814929Y-102921405D01*
X115784690Y-102951643D01*
X115724214Y-102981881D01*
X115482309Y-102981881D01*
X116208024Y-102921405D02*
X116147548Y-102891167D01*
X116117309Y-102860929D01*
X116087071Y-102800452D01*
X116087071Y-102770214D01*
X116117309Y-102709738D01*
X116147548Y-102679500D01*
X116208024Y-102649262D01*
X116328976Y-102649262D01*
X116389452Y-102679500D01*
X116419690Y-102709738D01*
X116449929Y-102770214D01*
X116449929Y-102800452D01*
X116419690Y-102860929D01*
X116389452Y-102891167D01*
X116328976Y-102921405D01*
X116208024Y-102921405D01*
X116147548Y-102951643D01*
X116117309Y-102981881D01*
X116087071Y-103042357D01*
X116087071Y-103163310D01*
X116117309Y-103223786D01*
X116147548Y-103254024D01*
X116208024Y-103284262D01*
X116328976Y-103284262D01*
X116389452Y-103254024D01*
X116419690Y-103223786D01*
X116449929Y-103163310D01*
X116449929Y-103042357D01*
X116419690Y-102981881D01*
X116389452Y-102951643D01*
X116328976Y-102921405D01*
D13*
X174586667Y-98323333D02*
X175153333Y-98323333D01*
X175220000Y-98290000D01*
X175253333Y-98256667D01*
X175286667Y-98190000D01*
X175286667Y-98056667D01*
X175253333Y-97990000D01*
X175220000Y-97956667D01*
X175153333Y-97923333D01*
X174586667Y-97923333D01*
X174586667Y-97256667D02*
X174586667Y-97590000D01*
X174920000Y-97623334D01*
X174886667Y-97590000D01*
X174853333Y-97523334D01*
X174853333Y-97356667D01*
X174886667Y-97290000D01*
X174920000Y-97256667D01*
X174986667Y-97223334D01*
X175153333Y-97223334D01*
X175220000Y-97256667D01*
X175253333Y-97290000D01*
X175286667Y-97356667D01*
X175286667Y-97523334D01*
X175253333Y-97590000D01*
X175220000Y-97623334D01*
X165736666Y-93006667D02*
X165336666Y-93006667D01*
X165536666Y-93006667D02*
X165536666Y-92306667D01*
X165470000Y-92406667D01*
X165403333Y-92473333D01*
X165336666Y-92506667D01*
X166336667Y-92540000D02*
X166336667Y-93006667D01*
X166170000Y-92273333D02*
X166003333Y-92773333D01*
X166436667Y-92773333D01*
X166070000Y-103306667D02*
X165670000Y-103306667D01*
X165870000Y-103306667D02*
X165870000Y-102606667D01*
X165803334Y-102706667D01*
X165736667Y-102773333D01*
X165670000Y-102806667D01*
D14*
X121309190Y-92743262D02*
X121309190Y-93257310D01*
X121339429Y-93317786D01*
X121369667Y-93348024D01*
X121430143Y-93378262D01*
X121551095Y-93378262D01*
X121611571Y-93348024D01*
X121641810Y-93317786D01*
X121672048Y-93257310D01*
X121672048Y-92743262D01*
X122307048Y-93378262D02*
X121944190Y-93378262D01*
X122125619Y-93378262D02*
X122125619Y-92743262D01*
X122065143Y-92833976D01*
X122004667Y-92894452D01*
X121944190Y-92924690D01*
D15*
X117916333Y-91537333D02*
X117849667Y-91504000D01*
X117783000Y-91437333D01*
X117683000Y-91337333D01*
X117616333Y-91304000D01*
X117549667Y-91304000D01*
X117583000Y-91470667D02*
X117516333Y-91437333D01*
X117449667Y-91370667D01*
X117416333Y-91237333D01*
X117416333Y-91004000D01*
X117449667Y-90870667D01*
X117516333Y-90804000D01*
X117583000Y-90770667D01*
X117716333Y-90770667D01*
X117783000Y-90804000D01*
X117849667Y-90870667D01*
X117883000Y-91004000D01*
X117883000Y-91237333D01*
X117849667Y-91370667D01*
X117783000Y-91437333D01*
X117716333Y-91470667D01*
X117583000Y-91470667D01*
X118549666Y-91470667D02*
X118149666Y-91470667D01*
X118349666Y-91470667D02*
X118349666Y-90770667D01*
X118283000Y-90870667D01*
X118216333Y-90937333D01*
X118149666Y-90970667D01*
D14*
X121064262Y-100813810D02*
X121578310Y-100813810D01*
X121638786Y-100783571D01*
X121669024Y-100753333D01*
X121699262Y-100692857D01*
X121699262Y-100571905D01*
X121669024Y-100511429D01*
X121638786Y-100481190D01*
X121578310Y-100450952D01*
X121064262Y-100450952D01*
X121124738Y-100178810D02*
X121094500Y-100148572D01*
X121064262Y-100088095D01*
X121064262Y-99936905D01*
X121094500Y-99876429D01*
X121124738Y-99846191D01*
X121185214Y-99815952D01*
X121245690Y-99815952D01*
X121336405Y-99846191D01*
X121699262Y-100209048D01*
X121699262Y-99815952D01*
X122908786Y-104040214D02*
X122939024Y-104070452D01*
X122969262Y-104161167D01*
X122969262Y-104221643D01*
X122939024Y-104312357D01*
X122878548Y-104372833D01*
X122818071Y-104403072D01*
X122697119Y-104433310D01*
X122606405Y-104433310D01*
X122485452Y-104403072D01*
X122424976Y-104372833D01*
X122364500Y-104312357D01*
X122334262Y-104221643D01*
X122334262Y-104161167D01*
X122364500Y-104070452D01*
X122394738Y-104040214D01*
X122394738Y-103798310D02*
X122364500Y-103768072D01*
X122334262Y-103707595D01*
X122334262Y-103556405D01*
X122364500Y-103495929D01*
X122394738Y-103465691D01*
X122455214Y-103435452D01*
X122515690Y-103435452D01*
X122606405Y-103465691D01*
X122969262Y-103828548D01*
X122969262Y-103435452D01*
X122334262Y-102891167D02*
X122334262Y-103012119D01*
X122364500Y-103072595D01*
X122394738Y-103102833D01*
X122485452Y-103163310D01*
X122606405Y-103193548D01*
X122848310Y-103193548D01*
X122908786Y-103163310D01*
X122939024Y-103133071D01*
X122969262Y-103072595D01*
X122969262Y-102951643D01*
X122939024Y-102891167D01*
X122908786Y-102860929D01*
X122848310Y-102830690D01*
X122697119Y-102830690D01*
X122636643Y-102860929D01*
X122606405Y-102891167D01*
X122576167Y-102951643D01*
X122576167Y-103072595D01*
X122606405Y-103133071D01*
X122636643Y-103163310D01*
X122697119Y-103193548D01*
X116174333Y-100372262D02*
X116174333Y-100825833D01*
X116144095Y-100916548D01*
X116083619Y-100977024D01*
X115992904Y-101007262D01*
X115932428Y-101007262D01*
X116809334Y-101007262D02*
X116446476Y-101007262D01*
X116627905Y-101007262D02*
X116627905Y-100372262D01*
X116567429Y-100462976D01*
X116506953Y-100523452D01*
X116446476Y-100553690D01*
D13*
X176762381Y-93653333D02*
X177476667Y-93653333D01*
X177619524Y-93700953D01*
X177714762Y-93796191D01*
X177762381Y-93939048D01*
X177762381Y-94034286D01*
X176857619Y-93224762D02*
X176810000Y-93177143D01*
X176762381Y-93081905D01*
X176762381Y-92843809D01*
X176810000Y-92748571D01*
X176857619Y-92700952D01*
X176952857Y-92653333D01*
X177048095Y-92653333D01*
X177190952Y-92700952D01*
X177762381Y-93272381D01*
X177762381Y-92653333D01*
X130130666Y-104203333D02*
X130230666Y-104236667D01*
X130397333Y-104236667D01*
X130464000Y-104203333D01*
X130497333Y-104170000D01*
X130530666Y-104103333D01*
X130530666Y-104036667D01*
X130497333Y-103970000D01*
X130464000Y-103936667D01*
X130397333Y-103903333D01*
X130264000Y-103870000D01*
X130197333Y-103836667D01*
X130164000Y-103803333D01*
X130130666Y-103736667D01*
X130130666Y-103670000D01*
X130164000Y-103603333D01*
X130197333Y-103570000D01*
X130264000Y-103536667D01*
X130430666Y-103536667D01*
X130530666Y-103570000D01*
X130764000Y-103536667D02*
X130930667Y-104236667D01*
X131064000Y-103736667D01*
X131197333Y-104236667D01*
X131364000Y-103536667D01*
X131997333Y-104236667D02*
X131597333Y-104236667D01*
X131797333Y-104236667D02*
X131797333Y-103536667D01*
X131730667Y-103636667D01*
X131664000Y-103703333D01*
X131597333Y-103736667D01*
M02*
