M48
;DRILL file {KiCad 4.0.7} date Sun Oct 15 20:20:57 2017
;FORMAT={-:-/ absolute / inch / decimal}
FMAT,2
INCH,TZ
T1C0.012
T2C0.020
T3C0.028
T4C0.031
T5C0.039
%
G90
G05
M72
T1
X4.95Y-4.105
X5.055Y-4.015
X5.105Y-3.575
X5.12Y-3.87
X5.12Y-3.95
X5.125Y-4.025
X5.145Y-3.755
X5.145Y-4.14
X5.16Y-3.79
X5.19Y-3.95
X5.2Y-3.79
X5.21Y-4.11
X5.22Y-3.6
X5.24Y-3.79
X5.265Y-3.9
X5.3Y-3.695
X5.3Y-3.725
X5.3Y-3.79
X5.36Y-3.5
X5.3638Y-4.0328
X5.365Y-4.095
X5.3705Y-3.9843
X5.3977Y-3.745
X5.41Y-3.95
X5.4111Y-3.7669
X5.4165Y-3.8845
X5.425Y-3.8502
X5.43Y-3.715
X5.43Y-3.825
X5.445Y-4.095
X5.46Y-4.03
X5.4726Y-3.8724
X5.48Y-3.915
X5.5277Y-3.8142
X5.5286Y-3.9802
X5.53Y-4.03
X5.54Y-3.5
X5.5547Y-3.9153
X5.555Y-3.86
X5.56Y-3.71
X5.565Y-4.05
X5.5697Y-4.0153
X5.5712Y-3.8955
X5.61Y-3.865
X5.62Y-3.97
X5.6539Y-4.0189
X5.66Y-4.105
X5.665Y-3.9938
X5.685Y-3.975
X5.695Y-3.875
X5.745Y-3.915
X5.76Y-4.035
X5.785Y-3.65
X5.89Y-3.94
X5.915Y-3.91
X5.975Y-4.105
X5.995Y-3.87
X6.01Y-3.845
X6.03Y-3.68
X6.095Y-3.87
X6.1Y-3.63
X6.1Y-3.7
X6.11Y-3.83
X6.125Y-3.76
X6.15Y-4.09
X6.1649Y-3.756
X6.1662Y-3.6877
X6.1797Y-3.8728
X6.18Y-3.735
X6.1933Y-3.9003
X6.195Y-3.95
X6.2053Y-3.9251
X6.2097Y-3.794
X6.2228Y-3.8168
X6.2323Y-3.9866
X6.26Y-4.04
X6.27Y-3.995
X6.3Y-3.96
X6.34Y-4.035
X6.37Y-3.845
X6.38Y-3.9
X6.4023Y-3.7845
X6.4398Y-3.8652
X6.44Y-3.79
X6.44Y-3.82
X6.44Y-3.9243
X6.44Y-3.95
X6.44Y-3.98
X6.44Y-4.01
X6.47Y-3.71
X6.48Y-3.67
X6.48Y-3.74
X6.48Y-3.86
X6.54Y-4.17
X6.57Y-4.17
X6.63Y-3.9
X6.63Y-3.93
X6.63Y-3.96
X6.66Y-3.9
X6.66Y-3.93
X6.66Y-3.96
X6.69Y-3.9
X6.69Y-3.93
X6.69Y-3.96
X6.695Y-3.69
X6.695Y-3.62
X6.72Y-3.9
X6.72Y-3.93
X6.72Y-3.96
X6.73Y-4.07
X6.8Y-4.06
X6.83Y-3.82
X6.83Y-4.02
X6.91Y-4.15
X6.9198Y-3.919
X6.94Y-3.885
X6.9402Y-4.12
X6.99Y-3.965
T2
X4.6766Y-3.6346
X4.6766Y-3.9654
X4.9443Y-3.6346
X4.9443Y-3.9654
T3
X7.1421Y-4.0461
X7.15Y-3.55
T4
X7.0358Y-3.8315
T5
X7.4118Y-3.5402
X7.4118Y-4.0559
T0
M30
